<svg id="Layer_1" data-name="Layer 1" xmlns="http://www.w3.org/2000/svg" viewBox="0 0 865 402"><defs><style>.cls-1,.cls-5,.cls-7{fill:none;}.cls-2{fill:#eb1c24;}.cls-3{fill:#808083;}.cls-12,.cls-4,.cls-8{fill:#0060ad;}.cls-5{stroke:#eb1c24;stroke-miterlimit:10;stroke-width:2.96px;}.cls-11,.cls-6,.cls-9{fill:#fff;}.cls-12,.cls-6,.cls-7,.cls-8,.cls-9{stroke:#0060ad;stroke-linecap:round;stroke-linejoin:round;}.cls-6,.cls-7,.cls-8{stroke-width:4.12px;}.cls-9{stroke-width:3.37px;}.cls-10{fill:#0060a9;}.cls-12{stroke-width:2.24px;}</style></defs><title>Chiffre 05</title><rect class="cls-1" width="865" height="402"/><path class="cls-2" d="M459.91,251.26a27.78,27.78,0,0,1-.75-3.2c-.23-1.23-.46-2.93-.68-5.11s-.39-5-.48-8.52-.14-8-.14-13.41.05-9.93.14-13.42.25-6.34.48-8.52.45-3.88.68-5.11a27.78,27.78,0,0,1,.75-3.2,24.25,24.25,0,0,1,9.19-13.08q6.47-4.49,16.15-4.49t16.14,4.49a24.31,24.31,0,0,1,9.2,13.08,30.22,30.22,0,0,1,.74,3.2c.23,1.23.46,2.93.69,5.11s.38,5,.47,8.52.14,8,.14,13.42,0,9.92-.14,13.41-.25,6.34-.47,8.52-.46,3.88-.69,5.11a30.22,30.22,0,0,1-.74,3.2,24.31,24.31,0,0,1-9.2,13.08q-6.48,4.49-16.14,4.49t-16.15-4.49A24.25,24.25,0,0,1,459.91,251.26Zm11.3-2.32a13.08,13.08,0,0,0,5.25,6.95,17.79,17.79,0,0,0,17.57,0,13.08,13.08,0,0,0,5.25-6.95,14.94,14.94,0,0,0,.68-2.58q.27-1.5.48-4.5c.13-2,.22-4.65.27-8s.07-7.61.07-12.87,0-9.56-.07-12.88-.14-6-.27-8-.3-3.49-.48-4.49a15.32,15.32,0,0,0-.68-2.59,13.12,13.12,0,0,0-5.25-7,17.79,17.79,0,0,0-17.57,0,13.12,13.12,0,0,0-5.25,7,15.32,15.32,0,0,0-.68,2.59,43.32,43.32,0,0,0-.47,4.49q-.21,3-.28,8T469.72,221c0,5.26,0,9.56.06,12.87s.14,6,.28,8a43.26,43.26,0,0,0,.47,4.5A14.94,14.94,0,0,0,471.21,248.94Z" transform="translate(-2.64)"/><path class="cls-2" d="M518.62,249.22a1.42,1.42,0,0,1,1.09-1.64l8.31-2c.82-.27,1.36,0,1.64,1a18.75,18.75,0,0,0,2,4.29,14.92,14.92,0,0,0,3.27,3.75,16.33,16.33,0,0,0,4.77,2.66,18.82,18.82,0,0,0,6.47,1q7.49,0,11.72-4.63a16.76,16.76,0,0,0,4.22-11.72q0-7.77-4.63-12.47t-12.4-4.7H541a1.2,1.2,0,0,1-1.36-1.36v-7.9a1.2,1.2,0,0,1,1.36-1.36h3.95q7,0,11.18-4.23t4.22-11.3a14.68,14.68,0,0,0-3.95-10.63q-4-4.08-10.9-4.09-6.54,0-10,3.27a16.33,16.33,0,0,0-4.7,8,1.42,1.42,0,0,1-1.64,1.09l-8.17-2a1.23,1.23,0,0,1-1.09-1.64,21.6,21.6,0,0,1,2.79-7.35A23.38,23.38,0,0,1,528,179a25.63,25.63,0,0,1,7.77-4.23,33.46,33.46,0,0,1,21,.28,23.53,23.53,0,0,1,8.25,5.17,22.1,22.1,0,0,1,5.17,8A28,28,0,0,1,572,198.27a20.94,20.94,0,0,1-3.33,11.92,27.23,27.23,0,0,1-8.11,8v.27a19.5,19.5,0,0,1,4.5,2.86,21,21,0,0,1,4.22,4.84,29.84,29.84,0,0,1,3.2,6.74,26.66,26.66,0,0,1,1.3,8.58,29.5,29.5,0,0,1-2,11.17,25.18,25.18,0,0,1-5.72,8.65,25.47,25.47,0,0,1-8.79,5.59,30.62,30.62,0,0,1-11.1,2q-11.31,0-18.46-5.51A23.89,23.89,0,0,1,518.62,249.22Z" transform="translate(-2.64)"/><path class="cls-3" d="M451,306.4l.4-5.44.47-10.07.2-8.46c0-1.71,0-2.93,0-3.66,1.62,0,3,0,4,0,.92,0,1.93,0,3,0s2,0,2.74,0a21.09,21.09,0,0,1,3.43.26,6.27,6.27,0,0,1,2.78,1.21,5.9,5.9,0,0,1,1.8,2.18,6.72,6.72,0,0,1,.58,2.83,8.49,8.49,0,0,1-.46,2.81,7.43,7.43,0,0,1-1.34,2.35,7.26,7.26,0,0,1-2.09,1.72,9.38,9.38,0,0,1-2.33.83c-.62.13-1.47.26-2.55.38l3.56,5.69,3.69,5.65,1.11,1.76-2.09,0-2.16,0-1.46-2.77-.89-1.6-1-1.7L458,292.86c-.19-.3-.51-.82-.94-1.56a15.52,15.52,0,0,0,2.76.28,9.79,9.79,0,0,0,3.67-.66,5.32,5.32,0,0,0,2.55-2.08,5.69,5.69,0,0,0,.9-3.13,5.1,5.1,0,0,0-.28-1.73,3.28,3.28,0,0,0-.9-1.35,4.58,4.58,0,0,0-1.22-.79,6.36,6.36,0,0,0-1.54-.36,15.65,15.65,0,0,0-2-.12l-2.88,0c-1.24,0-2,0-2.36,0q-.63,13.61-.77,25l-2,0Z" transform="translate(-2.64)"/><path class="cls-3" d="M490.86,303.18c-.16.75-.32,1.69-.48,2.84a30,30,0,0,1-3.38.66,24.73,24.73,0,0,1-2.84.17,15.49,15.49,0,0,1-4.54-.61,7.79,7.79,0,0,1-3.46-2.11,8.94,8.94,0,0,1-2.06-3.46,13.19,13.19,0,0,1-.63-4.11,13.67,13.67,0,0,1,1.15-5.59,9,9,0,0,1,3.48-4.06,10.69,10.69,0,0,1,5.88-1.48,11.72,11.72,0,0,1,3.52.53,7,7,0,0,1,2.79,1.63A7.34,7.34,0,0,1,492,290.3a10,10,0,0,1,.6,3.51,8.25,8.25,0,0,1-.12,1.42H477.05c-.05.74-.08,1.31-.08,1.7a8.7,8.7,0,0,0,.89,3.91,6.09,6.09,0,0,0,2.64,2.72,8.46,8.46,0,0,0,4,.92A19.92,19.92,0,0,0,490.86,303.18Zm-13.64-9.63h12.06a11.94,11.94,0,0,0-.16-2,5.58,5.58,0,0,0-.53-1.47,4.1,4.1,0,0,0-1-1.31,4.44,4.44,0,0,0-1.58-.85,6.38,6.38,0,0,0-2-.3,7.28,7.28,0,0,0-2.2.33,6.29,6.29,0,0,0-1.84.89,5.93,5.93,0,0,0-1.36,1.33,6.26,6.26,0,0,0-.83,1.46A13.59,13.59,0,0,0,477.22,293.55Zm4.65-10.33,1.86-5.3c.67,0,1.35,0,2,0s1.32,0,2.07,0c-.9,1.25-2.06,3-3.51,5.3-.38,0-.79,0-1.25,0S482.24,283.19,481.87,283.22Z" transform="translate(-2.64)"/><path class="cls-3" d="M497.38,289.15c.12-.59.25-1.47.39-2.63a36,36,0,0,1,4.22-.86,28,28,0,0,1,3.49-.23,16.79,16.79,0,0,1,3.41.33,7.07,7.07,0,0,1,2.64,1.09,3.6,3.6,0,0,1,1.4,1.72,6.13,6.13,0,0,1,.34,2.08c0,.93-.07,2.5-.21,4.69s-.25,4.22-.32,6.08-.11,3.52-.11,5c-.73,0-1.32,0-1.78,0l-1.85,0,.43-5.52.31-6.54c-.47.36-.83.62-1.06.77a8.49,8.49,0,0,1-.8.41,9.41,9.41,0,0,1-1,.36c-.36.12-1.05.32-2.08.6s-1.77.5-2.2.65a12.85,12.85,0,0,0-2.21.89,6.68,6.68,0,0,0-1.36,1,3.35,3.35,0,0,0-.77,1.05,3.73,3.73,0,0,0-.26,1.36,2.88,2.88,0,0,0,.65,1.9,3.34,3.34,0,0,0,1.63,1.13,7.74,7.74,0,0,0,2.35.31,12.59,12.59,0,0,0,4.28-.73,21.31,21.31,0,0,0-.65,2.41,23.3,23.3,0,0,1-2.41.36c-.62,0-1.21.07-1.76.07a11.6,11.6,0,0,1-4.33-.65,4.65,4.65,0,0,1-2.33-2,5.61,5.61,0,0,1-.77-2.89,5,5,0,0,1,.27-1.68,5.35,5.35,0,0,1,.74-1.4A6.24,6.24,0,0,1,497,297a9,9,0,0,1,1.8-1,22.43,22.43,0,0,1,2.2-.8c.83-.27,2.18-.62,4-1.07a13.88,13.88,0,0,0,1.52-.41c.42-.14.79-.28,1.12-.42a4.06,4.06,0,0,0,.85-.47,3.86,3.86,0,0,0,.67-.67,2.76,2.76,0,0,0,.44-.8,2.3,2.3,0,0,0,.14-.81,2.4,2.4,0,0,0-.65-1.7,3.45,3.45,0,0,0-1.69-1,9.33,9.33,0,0,0-2.46-.29,18.18,18.18,0,0,0-2.7.22,19.76,19.76,0,0,0-2.39.5C499.21,288.47,498.38,288.76,497.38,289.15Z" transform="translate(-2.64)"/><path class="cls-3" d="M518.13,306.4q.4-6.22.79-14.78.26-6.21.38-12.85l1.89,0,1.8,0-.63,11.88-.44,12-.08,3.72-1.78,0Z" transform="translate(-2.64)"/><path class="cls-3" d="M527.51,306.4l.35-5.1.39-8.71.16-6.7,1.87,0,1.82,0q-.23,3.17-.41,6.61t-.3,7.54q-.12,4.09-.12,6.36l-1.82,0Zm.93-24.92c0-1.27.06-2.23.06-2.87.74,0,1.39,0,2,0s1.36,0,1.94,0c0,.41-.06,1.37-.12,2.87l-1.88,0Z" transform="translate(-2.64)"/><path class="cls-3" d="M535.79,306l-.13-1.49c0-.16,0-.68-.16-1.55a14.46,14.46,0,0,0,5.75,1.36,6.36,6.36,0,0,0,2.33-.37,2.9,2.9,0,0,0,1.43-1.08,2.67,2.67,0,0,0,.47-1.48,2.83,2.83,0,0,0-.13-.85,3.35,3.35,0,0,0-.39-.81,5.72,5.72,0,0,0-.78-.87c-.35-.32-1.06-.91-2.15-1.79s-1.91-1.56-2.47-2.06a10.65,10.65,0,0,1-1.44-1.51,6.21,6.21,0,0,1-.88-1.57,4.69,4.69,0,0,1-.28-1.6,4.39,4.39,0,0,1,.82-2.51,4.85,4.85,0,0,1,2.37-1.81,10,10,0,0,1,3.63-.6,27.14,27.14,0,0,1,5.12.54c.06,1.06.13,2,.21,2.9a11.76,11.76,0,0,0-4.48-.93,7.47,7.47,0,0,0-2.21.31,2.86,2.86,0,0,0-1.5.94,2.23,2.23,0,0,0-.48,1.38,2.88,2.88,0,0,0,.16.93,3.36,3.36,0,0,0,.58,1,8,8,0,0,0,1,1c.39.33,1.17,1,2.34,1.9a29,29,0,0,1,2.4,2.06,9.87,9.87,0,0,1,1.11,1.38,5.36,5.36,0,0,1,.68,1.41,4.91,4.91,0,0,1,.22,1.43,4.55,4.55,0,0,1-.85,2.63,5.38,5.38,0,0,1-2.5,1.88,9.75,9.75,0,0,1-3.72.67c-.58,0-1.26,0-2.05-.11s-1.44-.17-2-.27S536.6,306.22,535.79,306Z" transform="translate(-2.64)"/><path class="cls-3" d="M570,303.18c-.16.75-.32,1.69-.49,2.84a29.85,29.85,0,0,1-3.37.66,24.73,24.73,0,0,1-2.84.17,15.61,15.61,0,0,1-4.55-.61,7.81,7.81,0,0,1-3.45-2.11,8.94,8.94,0,0,1-2.06-3.46,13.19,13.19,0,0,1-.63-4.11,13.51,13.51,0,0,1,1.15-5.59,9,9,0,0,1,3.48-4.06,10.69,10.69,0,0,1,5.88-1.48,11.77,11.77,0,0,1,3.52.53,7,7,0,0,1,2.79,1.63,7.32,7.32,0,0,1,1.72,2.71,9.73,9.73,0,0,1,.61,3.51,8.25,8.25,0,0,1-.12,1.42H556.17c0,.74-.08,1.31-.08,1.7a8.7,8.7,0,0,0,.89,3.91,6.07,6.07,0,0,0,2.63,2.72,8.5,8.5,0,0,0,4,.92A20,20,0,0,0,570,303.18Zm-13.65-9.63H568.4a11.94,11.94,0,0,0-.16-2,6,6,0,0,0-.53-1.47,4.1,4.1,0,0,0-1-1.31,4.53,4.53,0,0,0-1.58-.85,6.38,6.38,0,0,0-2-.3,7.23,7.23,0,0,0-2.2.33,6.17,6.17,0,0,0-1.84.89,5.73,5.73,0,0,0-1.36,1.33,6.26,6.26,0,0,0-.83,1.46A14.9,14.9,0,0,0,556.33,293.55ZM561,283.22l1.86-5.3c.66,0,1.35,0,2,0s1.32,0,2.06,0q-1.34,1.88-3.5,5.3c-.38,0-.8,0-1.25,0S561.35,283.19,561,283.22Z" transform="translate(-2.64)"/><path class="cls-3" d="M592,303.18c-.17.75-.33,1.69-.49,2.84a30.28,30.28,0,0,1-3.37.66,24.73,24.73,0,0,1-2.84.17,15.56,15.56,0,0,1-4.55-.61,7.81,7.81,0,0,1-3.45-2.11,9,9,0,0,1-2.07-3.46,14.06,14.06,0,0,1,.53-9.7,9.06,9.06,0,0,1,3.47-4.06,10.73,10.73,0,0,1,5.88-1.48,11.78,11.78,0,0,1,3.53.53,7,7,0,0,1,2.79,1.63,7.32,7.32,0,0,1,1.72,2.71,9.73,9.73,0,0,1,.61,3.51,8.25,8.25,0,0,1-.12,1.42H578.18c0,.74-.08,1.31-.08,1.7a8.57,8.57,0,0,0,.89,3.91,6,6,0,0,0,2.63,2.72,8.5,8.5,0,0,0,4,.92A20,20,0,0,0,592,303.18Zm-13.65-9.63h12.07a13.13,13.13,0,0,0-.16-2,6,6,0,0,0-.53-1.47,4.4,4.4,0,0,0-1-1.31,4.53,4.53,0,0,0-1.58-.85,6.45,6.45,0,0,0-2-.3,7.17,7.17,0,0,0-2.19.33,6.35,6.35,0,0,0-1.85.89,5.88,5.88,0,0,0-1.35,1.33,6.26,6.26,0,0,0-.83,1.46A14.9,14.9,0,0,0,578.34,293.55Z" transform="translate(-2.64)"/><path class="cls-3" d="M596.26,306l-.12-1.49c0-.16-.06-.68-.16-1.55a14.39,14.39,0,0,0,5.75,1.36,6.34,6.34,0,0,0,2.32-.37,2.85,2.85,0,0,0,1.43-1.08,2.6,2.6,0,0,0,.48-1.48,2.85,2.85,0,0,0-.14-.85,3,3,0,0,0-.39-.81,5.72,5.72,0,0,0-.78-.87c-.34-.32-1.06-.91-2.15-1.79s-1.91-1.56-2.47-2.06a10,10,0,0,1-1.43-1.51,5.65,5.65,0,0,1-.88-1.57,4.7,4.7,0,0,1-.29-1.6,4.46,4.46,0,0,1,.82-2.51,4.85,4.85,0,0,1,2.37-1.81,10,10,0,0,1,3.64-.6,27.14,27.14,0,0,1,5.12.54c0,1.06.12,2,.2,2.9a11.71,11.71,0,0,0-4.47-.93,7.49,7.49,0,0,0-2.22.31,2.94,2.94,0,0,0-1.5.94,2.23,2.23,0,0,0-.48,1.38,2.64,2.64,0,0,0,.17.93,3.31,3.31,0,0,0,.57,1,7.49,7.49,0,0,0,1,1c.39.33,1.17,1,2.33,1.9a29,29,0,0,1,2.4,2.06,9.29,9.29,0,0,1,1.12,1.38,5.31,5.31,0,0,1,.67,1.41,4.59,4.59,0,0,1,.22,1.43,4.54,4.54,0,0,1-.84,2.63,5.43,5.43,0,0,1-2.5,1.88,9.84,9.84,0,0,1-3.73.67c-.58,0-1.26,0-2-.11s-1.45-.17-2-.27S597.07,306.22,596.26,306Z" transform="translate(-2.64)"/><path class="cls-4" d="M450.38,91.23c-.07-1.65-.18-3.08-.34-4.3a26.87,26.87,0,0,0,5,1.84,18.27,18.27,0,0,0,4.23.53,9.84,9.84,0,0,0,3.63-.66,5.47,5.47,0,0,0,2.53-1.88,4.72,4.72,0,0,0,.84-2.77,4.93,4.93,0,0,0-.28-1.7,5.89,5.89,0,0,0-.93-1.62,18.65,18.65,0,0,0-2.21-2.21q-1.57-1.39-4.46-3.84L456.42,73q-1.1-.95-2-1.86A16.51,16.51,0,0,1,453,69.35a9.56,9.56,0,0,1-.92-1.54,6.87,6.87,0,0,1-.51-1.53,8.33,8.33,0,0,1-.18-1.73,7.69,7.69,0,0,1,1.22-4.19,8.48,8.48,0,0,1,3.68-3.13,15.27,15.27,0,0,1,6.5-1.17,40.2,40.2,0,0,1,7.1.78c0,1.12.16,2.49.37,4.11a22.16,22.16,0,0,0-7.24-1.4,8.41,8.41,0,0,0-3.75.74,5.72,5.72,0,0,0-2.29,1.89,4.19,4.19,0,0,0-.78,2.37,4.77,4.77,0,0,0,.21,1.41,5.29,5.29,0,0,0,.62,1.32,12.61,12.61,0,0,0,1.49,1.83,32.22,32.22,0,0,0,2.45,2.26l3,2.44q2.58,2.14,3.77,3.31a16.26,16.26,0,0,1,1.89,2.17,8.43,8.43,0,0,1,1.09,2.16,7.81,7.81,0,0,1,.39,2.51,8.29,8.29,0,0,1-.9,3.84,7.57,7.57,0,0,1-2.57,2.88,11,11,0,0,1-3.74,1.59,19.38,19.38,0,0,1-4.29.47,25.08,25.08,0,0,1-3.71-.28A48.25,48.25,0,0,1,450.38,91.23Z" transform="translate(-2.64)"/><path class="cls-4" d="M484.43,92.16l.52-8,.7-16.5.23-7.63c-4.24,0-8,.09-11.15.23.1-1.38.16-2.61.18-3.67q6.6,0,14.26,0l8.33,0h4.42c-.12,1.54-.18,2.77-.18,3.67q-4-.22-8.93-.23h-2.13l-.55,11.52-.54,16.23v4.34l-2.5,0Z" transform="translate(-2.64)"/><path class="cls-4" d="M500.26,92.16l4.73-9L517.07,59.6l1.41-3,3,0,3,0,4.5,12.76,8.32,22.77-2.47,0-2.78,0q-.71-2.49-2.33-7.23c-1.08-3.16-2-5.72-2.74-7.68H512.82L509.05,85l-3.32,7.13-2.67,0Zm14.1-18.35h11.7L521.22,60Z" transform="translate(-2.64)"/><path class="cls-4" d="M549.32,92.16l.52-8,.7-16.5.24-7.63c-4.25,0-8,.09-11.16.23.1-1.38.16-2.61.18-3.67q6.62,0,14.26,0l8.33,0h4.42c-.12,1.54-.18,2.77-.18,3.67q-4-.22-8.93-.23h-2.13L555,71.59l-.54,16.23v4.34l-2.5,0Z" transform="translate(-2.64)"/><path class="cls-4" d="M569.88,92.16l.39-6,.55-12.47.36-12.29q0-1.06,0-2.13l0-2.66,2.69,0,2.52,0q-.46,6.51-.7,13.59-.42,11.36-.6,21.94l-2.44,0Z" transform="translate(-2.64)"/><path class="cls-4" d="M602.11,56.06a23.45,23.45,0,0,1,7.31,1.12,15.47,15.47,0,0,1,6.11,3.7,14.9,14.9,0,0,1,3.76,5.77,21.14,21.14,0,0,1,1.12,6.95,24,24,0,0,1-1.25,7.71,15.85,15.85,0,0,1-3.85,6.27,16.46,16.46,0,0,1-6.41,3.87,25.36,25.36,0,0,1-15.63.11A16.07,16.07,0,0,1,587,88a14.09,14.09,0,0,1-3.72-5.73,20.92,20.92,0,0,1-1.15-7,22.31,22.31,0,0,1,1.38-7.79,16.5,16.5,0,0,1,4.07-6.31,16.86,16.86,0,0,1,6.51-3.83A25.53,25.53,0,0,1,602.11,56.06Zm-.29,3.49a17.3,17.3,0,0,0-5.91,1,12.34,12.34,0,0,0-4.85,3.21A14.12,14.12,0,0,0,588,69a19.51,19.51,0,0,0-1,6.24A17.06,17.06,0,0,0,588,81a11.66,11.66,0,0,0,2.91,4.62,12.1,12.1,0,0,0,4.63,2.74,17.82,17.82,0,0,0,5.65.9,17.38,17.38,0,0,0,5.77-1,11.94,11.94,0,0,0,4.74-3.06,13.16,13.16,0,0,0,3-5.06,20,20,0,0,0,1-6.21,19.67,19.67,0,0,0-.87-5.87,11.86,11.86,0,0,0-2.78-4.77,11.21,11.21,0,0,0-4.55-2.87A17.07,17.07,0,0,0,601.82,59.55Z" transform="translate(-2.64)"/><path class="cls-4" d="M626.06,92.16l.52-7.23.89-21.14.1-4.11c0-1.3,0-2.32,0-3l3.25,0,3,0,2.84,4.58,17.2,26L655,56.63l2.32,0,2.29,0L659,65.74l-.7,16.06L658,92.16c-1,0-2,0-3,0s-2,0-3.14,0l-2.4-3.82L631.81,61.92c-.07,1-.14,2.5-.21,4.58l-.72,18.4-.16,7.26-2.27,0Z" transform="translate(-2.64)"/><path class="cls-4" d="M664.87,91.23c-.07-1.65-.19-3.08-.34-4.3a26.61,26.61,0,0,0,5,1.84,18.14,18.14,0,0,0,4.23.53,9.84,9.84,0,0,0,3.63-.66,5.39,5.39,0,0,0,2.52-1.88,4.66,4.66,0,0,0,.85-2.77,4.93,4.93,0,0,0-.29-1.7,6.1,6.1,0,0,0-.92-1.62,19.47,19.47,0,0,0-2.21-2.21q-1.57-1.39-4.47-3.84L670.9,73c-.72-.63-1.38-1.25-2-1.86a16.69,16.69,0,0,1-1.49-1.77,10.35,10.35,0,0,1-.92-1.54,6.87,6.87,0,0,1-.51-1.53,8.33,8.33,0,0,1-.18-1.73,7.77,7.77,0,0,1,1.22-4.19,8.51,8.51,0,0,1,3.69-3.13,15.22,15.22,0,0,1,6.49-1.17,40.3,40.3,0,0,1,7.11.78q0,1.68.36,4.11a22.11,22.11,0,0,0-7.24-1.4,8.34,8.34,0,0,0-3.74.74,5.65,5.65,0,0,0-2.29,1.89,4.13,4.13,0,0,0-.79,2.37,4.77,4.77,0,0,0,.21,1.41,5,5,0,0,0,.63,1.32A12.51,12.51,0,0,0,673,69.11c.59.62,1.41,1.37,2.45,2.26.26.2,1.25,1,3,2.44s3,2.53,3.77,3.31a16.26,16.26,0,0,1,1.89,2.17,8.43,8.43,0,0,1,1.09,2.16,7.81,7.81,0,0,1,.39,2.51,8.41,8.41,0,0,1-.89,3.84,7.52,7.52,0,0,1-2.58,2.88,11,11,0,0,1-3.74,1.59,19.38,19.38,0,0,1-4.29.47,25.18,25.18,0,0,1-3.71-.28A48.18,48.18,0,0,1,664.87,91.23Z" transform="translate(-2.64)"/><path class="cls-4" d="M451.81,145.47l.74-10.72.78-21.06q0-1.27,0-3.75c2.18,0,4.05,0,5.59,0,1,0,2.47,0,4.5,0l4.32,0a33.2,33.2,0,0,1,7.29.68,12,12,0,0,1,4.1,1.74,13,13,0,0,1,3.32,3.27,14.37,14.37,0,0,1,2.16,4.43,22.35,22.35,0,0,1,.83,6.1,23,23,0,0,1-1.54,8.34,16.67,16.67,0,0,1-4.56,6.66,15.28,15.28,0,0,1-6.8,3.52,38.57,38.57,0,0,1-8.39.84l-7.26-.05Zm5-3.49c2.11.06,4.08.08,5.9.08,1.53,0,3.08-.07,4.67-.22a20.52,20.52,0,0,0,4.26-.82,10.76,10.76,0,0,0,3.71-2.15,13.73,13.73,0,0,0,3-3.51,15.42,15.42,0,0,0,1.73-4.4,21.57,21.57,0,0,0,.58-4.93,18,18,0,0,0-.73-5.21,11.35,11.35,0,0,0-2.49-4.32,8.48,8.48,0,0,0-4.16-2.56,25.5,25.5,0,0,0-6.37-.64q-4.86,0-8.9.08Z" transform="translate(-2.64)"/><path class="cls-4" d="M497.94,109.94c-.52.89-1.09,1.81-1.69,2.79s-1.11,1.78-1.49,2.44l-2,3.49-1.28,0c-.29,0-.71,0-1.25,0,1.25-3.56,2.22-6.46,2.89-8.72l2.29,0Z" transform="translate(-2.64)"/><path class="cls-4" d="M502.34,145.47l.65-9.79.74-18.29.08-4c0-1,0-2.16,0-3.46q5.88,0,12.05,0l8.3,0h2.65c-.12,1.21-.2,2.42-.23,3.65l-2.32-.13c-.57,0-1.56-.07-2.95-.08l-4.15,0c-4.1,0-6.95,0-8.57.08l-.47,12.18c2.67,0,5.07.08,7.18.08q3.46,0,9.09-.11c-.12,1.22-.2,2.42-.23,3.6l-9-.08q-2.62,0-7.32.1l-.47,12.86,2.71,0q7.36,0,9.78-.05t5.64-.24c-.13,1.29-.2,2.51-.24,3.67q-6.27,0-10.59-.05Zm10.9-38.86,2.4-6.82c.85,0,1.73,0,2.63,0s1.7,0,2.65,0c-1.14,1.61-2.64,3.89-4.5,6.82-.49,0-1,0-1.61,0S513.71,106.58,513.24,106.61Z" transform="translate(-2.64)"/><path class="cls-4" d="M532.51,145.47l.44-5.91.83-20.35.1-4.38c0-.69,0-1.37,0-2v-2.84c2.17,0,3.93,0,5.28,0,.82,0,2.07,0,3.75,0s2.94,0,3.78,0a18.28,18.28,0,0,1,4.89.48,7.12,7.12,0,0,1,2.81,1.61,8,8,0,0,1,1.93,2.8,9.34,9.34,0,0,1,.7,3.67,10.76,10.76,0,0,1-1.66,5.9,10.24,10.24,0,0,1-4.55,3.9,15.45,15.45,0,0,1-6.41,1.29,24.23,24.23,0,0,1-4.17-.41,29.77,29.77,0,0,0-.88-3.26,20.89,20.89,0,0,0,4,.39,14.39,14.39,0,0,0,3.58-.43,7.24,7.24,0,0,0,2.93-1.43,6.7,6.7,0,0,0,1.9-2.51,7.76,7.76,0,0,0,.68-3.2,6,6,0,0,0-.5-2.46,4.31,4.31,0,0,0-1.36-1.8,5,5,0,0,0-2-.9,17.18,17.18,0,0,0-3.21-.23h-2.19l-2.73,0-2,0q-.31,5.7-.45,10.36l-.36,10.69q-.18,6.09-.18,8.15v2.94l-2.42-.05Z" transform="translate(-2.64)"/><path class="cls-4" d="M562.74,109.94l2.59,0,2.52,0-1.17,19.86-.08,2.42v.5a12.08,12.08,0,0,0,1.07,5.61,7.19,7.19,0,0,0,3.4,3.08A13.86,13.86,0,0,0,577,142.5a14.87,14.87,0,0,0,4.43-.62,9.28,9.28,0,0,0,2.88-1.46,7.69,7.69,0,0,0,2-2.24,9.27,9.27,0,0,0,1-2.89,65.9,65.9,0,0,0,.65-7.08l.47-8.38c.13-3.09.23-6.38.28-9.89l2.69,0,2.42,0L593,122.2l-.47,10.15a31.53,31.53,0,0,1-.75,5.5,10.79,10.79,0,0,1-1.15,2.6,8.39,8.39,0,0,1-1.67,2,12.48,12.48,0,0,1-2.83,1.85,17.39,17.39,0,0,1-3.75,1.25,31.37,31.37,0,0,1-5.88.54,24.9,24.9,0,0,1-5.54-.59,15.34,15.34,0,0,1-4.12-1.59,10.73,10.73,0,0,1-3-2.42,8.06,8.06,0,0,1-1.48-2.76,12.94,12.94,0,0,1-.63-4.14c0-1.61.07-3.46.2-5.54s.29-5.23.49-9.43S562.74,112.16,562.74,109.94Z" transform="translate(-2.64)"/><path class="cls-4" d="M600.13,145.47l.52-7,.6-12.94.26-10.88c0-2.2,0-3.77,0-4.71,2.08,0,3.81,0,5.18,0,1.18,0,2.49,0,3.92,0s2.61,0,3.52,0a26,26,0,0,1,4.42.34,7.82,7.82,0,0,1,3.56,1.55,7.44,7.44,0,0,1,2.32,2.81,8.44,8.44,0,0,1,.74,3.63,10.86,10.86,0,0,1-.58,3.62,9.65,9.65,0,0,1-1.72,3,9.28,9.28,0,0,1-2.69,2.21,12.25,12.25,0,0,1-3,1.07c-.79.17-1.89.33-3.27.49l4.58,7.31,4.73,7.27c.33.5.81,1.26,1.43,2.26l-2.69-.05-2.77.05-1.88-3.56c-.38-.7-.77-1.38-1.15-2.06s-.8-1.41-1.25-2.19l-5.9-9.6q-.36-.57-1.2-2a19.54,19.54,0,0,0,3.54.37,12.57,12.57,0,0,0,4.73-.86,6.84,6.84,0,0,0,3.28-2.67,7.31,7.31,0,0,0,1.15-4,6.73,6.73,0,0,0-.36-2.23,4.11,4.11,0,0,0-1.16-1.73,5.57,5.57,0,0,0-1.56-1,7.79,7.79,0,0,0-2-.47,20.81,20.81,0,0,0-2.56-.16l-3.7.06c-1.6,0-2.61,0-3,0q-.81,17.49-1,32.17l-2.55-.05Z" transform="translate(-2.64)"/><path class="cls-4" d="M625.61,145.47l4.74-8.95,12.08-23.61,1.4-3,3,0,3,0,4.51,12.76,8.32,22.77-2.47-.05-2.79.05c-.46-1.66-1.24-4.08-2.32-7.23s-2-5.72-2.75-7.68H638.18l-3.77,7.78-3.33,7.13-2.67-.05Zm14.11-18.35h11.7l-4.84-13.77Z" transform="translate(-2.64)"/><path class="cls-4" d="M674.68,145.47l.52-8,.7-16.51.23-7.62q-6.36,0-11.15.23c.1-1.39.16-2.61.18-3.67q6.6,0,14.26,0l8.33,0h4.42c-.12,1.54-.18,2.76-.18,3.67q-4-.23-8.93-.23h-2.13l-.55,11.52-.54,16.23v4.34l-2.5-.05Z" transform="translate(-2.64)"/><path class="cls-4" d="M695.24,145.47l.39-6,.55-12.46.36-12.29q0-1.07,0-2.13l0-2.66,2.68,0,2.53,0q-.46,6.51-.7,13.59-.42,11.34-.6,21.94l-2.45-.05Z" transform="translate(-2.64)"/><path class="cls-4" d="M727.47,109.37a23.49,23.49,0,0,1,7.31,1.12,15.51,15.51,0,0,1,6.11,3.69,15,15,0,0,1,3.76,5.78,21.1,21.1,0,0,1,1.12,7,24,24,0,0,1-1.25,7.71,15.87,15.87,0,0,1-3.86,6.27,16.35,16.35,0,0,1-6.4,3.87,25.55,25.55,0,0,1-15.63.11,16,16,0,0,1-6.23-3.6,14.21,14.21,0,0,1-3.73-5.73,21.17,21.17,0,0,1-1.14-7,22.31,22.31,0,0,1,1.38-7.79,16.61,16.61,0,0,1,4.07-6.32,17,17,0,0,1,6.51-3.82A25.53,25.53,0,0,1,727.47,109.37Zm-.29,3.49a17.3,17.3,0,0,0-5.91,1,12.34,12.34,0,0,0-4.85,3.21,14,14,0,0,0-3.07,5.2,19.52,19.52,0,0,0-1,6.24,17.1,17.1,0,0,0,1,5.79,11.75,11.75,0,0,0,2.92,4.62,12.1,12.1,0,0,0,4.63,2.74,17.82,17.82,0,0,0,5.65.9,17.13,17.13,0,0,0,5.77-1,11.81,11.81,0,0,0,4.73-3.05,13.06,13.06,0,0,0,3-5.06,20.08,20.08,0,0,0,1-6.22,19.6,19.6,0,0,0-.87-5.86,11.77,11.77,0,0,0-2.79-4.77,11.3,11.3,0,0,0-4.54-2.88A17.34,17.34,0,0,0,727.18,112.86Z" transform="translate(-2.64)"/><path class="cls-4" d="M751.42,145.47l.52-7.23.89-21.14.1-4.11c0-1.3,0-2.32,0-3l3.25,0,3,0,2.83,4.58,17.21,26,1.09-30.53,2.32,0,2.29,0-.57,9.11-.7,16.06-.31,10.36c-1,0-2-.05-3-.05s-2,0-3.14.05l-2.4-3.82-17.63-26.42c-.07,1-.14,2.49-.21,4.58l-.73,18.4-.15,7.26-2.27-.05Z" transform="translate(-2.64)"/><path class="cls-4" d="M790.23,144.53c-.08-1.64-.19-3.08-.34-4.29a25.82,25.82,0,0,0,5,1.83,17.63,17.63,0,0,0,4.22.54,9.66,9.66,0,0,0,3.64-.67,5.31,5.31,0,0,0,2.52-1.87,4.75,4.75,0,0,0,.85-2.77,5,5,0,0,0-.29-1.71,6.06,6.06,0,0,0-.92-1.61,18.93,18.93,0,0,0-2.22-2.21c-1-.93-2.53-2.21-4.46-3.84l-1.93-1.64c-.73-.63-1.38-1.25-2-1.86a15.57,15.57,0,0,1-1.49-1.77,10,10,0,0,1-.92-1.54,6.87,6.87,0,0,1-.51-1.53,8.42,8.42,0,0,1-.18-1.74,7.8,7.8,0,0,1,1.22-4.19,8.53,8.53,0,0,1,3.68-3.12,15.27,15.27,0,0,1,6.5-1.17,40.11,40.11,0,0,1,7.1.78c0,1.12.16,2.49.37,4.11a22.16,22.16,0,0,0-7.24-1.4,8.56,8.56,0,0,0-3.75.73,5.89,5.89,0,0,0-2.29,1.9,4.13,4.13,0,0,0-.78,2.36,4.83,4.83,0,0,0,.21,1.42,5,5,0,0,0,.63,1.32,12.38,12.38,0,0,0,1.48,1.83,32.27,32.27,0,0,0,2.45,2.25l3,2.45c1.72,1.42,3,2.53,3.77,3.31a16.26,16.26,0,0,1,1.89,2.17,8.43,8.43,0,0,1,1.09,2.16,7.81,7.81,0,0,1,.39,2.51,8.29,8.29,0,0,1-.9,3.84,7.48,7.48,0,0,1-2.57,2.88,11.46,11.46,0,0,1-3.74,1.59,19.39,19.39,0,0,1-4.29.46,26.47,26.47,0,0,1-3.71-.27A46.07,46.07,0,0,1,790.23,144.53Z" transform="translate(-2.64)"/><line class="cls-5" x1="425.33" y1="41.88" x2="425.33" y2="367.34"/><path class="cls-6" d="M59.39,189.55v84c0,21,65.26,38.09,156.82,38.09S373,294.6,373,273.56V186.19" transform="translate(-2.64)"/><ellipse class="cls-6" cx="213.57" cy="187.31" rx="156.83" ry="38.09"/><ellipse class="cls-7" cx="213.57" cy="187.31" rx="147.86" ry="31.37"/><path class="cls-8" d="M89.38,201.87c27.12-9.37,68.8-15.68,126.83-15.68s99.72,6.31,126.84,15.68" transform="translate(-2.64)"/><ellipse class="cls-8" cx="213.57" cy="201.87" rx="126.83" ry="15.68"/><path class="cls-9" d="M113.16,179.47H85.92c-2,0-3.58,4.51-3.58,10.08s1.6,10.08,3.58,10.08h27.24" transform="translate(-2.64)"/><ellipse class="cls-9" cx="110.16" cy="189.55" rx="3.58" ry="10.08"/><path class="cls-4" d="M312.24,67.43c0,.22,0,.44,0,.66a7.95,7.95,0,1,0,15.89,0c0-.21,0-.51,0-.72C328.09,67.36,312.24,67.43,312.24,67.43Z" transform="translate(-2.64)"/><rect class="cls-10" x="307.49" y="65.08" width="20.06" height="1.7" rx="0.19" ry="0.19"/><path class="cls-4" d="M324.06,57.75v1.72a.67.67,0,0,1-.66.66.66.66,0,0,1-.65-.66V57.24a8.82,8.82,0,0,0-1.87-.34v2.57a.67.67,0,0,1-.66.66.66.66,0,0,1-.65-.66V56.89a8.81,8.81,0,0,0-1.87.32v2.26a.66.66,0,1,1-1.31,0V57.69a9.13,9.13,0,0,0-5.28,7.39h18.11A9.11,9.11,0,0,0,324.06,57.75Z" transform="translate(-2.64)"/><path class="cls-4" d="M335.1,78.26H308.9c-.09,0-.16-.06-.26-.06H278c-2.27,0-4.11,2.41-4.11,4.67s1.84,4.68,4.11,4.68h30.63c.11,0,.2-.07.3-.08v73.08a4.68,4.68,0,1,0,9.35,0V121.18a1.73,1.73,0,0,1,1.44-1.78h.87a1.72,1.72,0,0,1,1.43,1.78v39.37a4.68,4.68,0,1,0,9.35,0v-70c0-.59.71-1,.94-1a1.15,1.15,0,0,1,.93,1v27c0,2.27,2.41,4.11,4.68,4.11s4.67-1.84,4.67-4.11V85.59C342.6,80.81,339.89,78.26,335.1,78.26Z" transform="translate(-2.64)"/><rect class="cls-11" x="309.58" y="92.5" width="15.9" height="9.85"/><rect class="cls-11" x="307.04" y="78.2" width="3.16" height="8.91"/><rect class="cls-11" x="306.7" y="87.42" width="3.83" height="3.05"/><rect class="cls-11" x="325.23" y="78.2" width="3.16" height="8.91"/><rect class="cls-11" x="324.89" y="87.42" width="3.83" height="3.05"/><line class="cls-12" x1="275.81" y1="82.48" x2="256.8" y2="63.47"/><path class="cls-4" d="M257.47,93.18a14.39,14.39,0,0,0,4-7.11,14.35,14.35,0,0,1,4-7.1c3.42-3.43,5.73-3.69,5.73-3.69L260.47,64.49s-2.32.26-5.74,3.69a14.35,14.35,0,0,0-4,7.1,14.39,14.39,0,0,1-4,7.11Z" transform="translate(-2.64)"/></svg>