<svg id="Layer_1" data-name="Layer 1" xmlns="http://www.w3.org/2000/svg" viewBox="0 0 865 402"><defs><style>.cls-1,.cls-10,.cls-11,.cls-12,.cls-5{fill:none;}.cls-2{fill:#0060ad;}.cls-3{fill:#eb1c24;}.cls-4{fill:#808083;}.cls-5{stroke:#e61d28;stroke-width:2.96px;}.cls-10,.cls-5,.cls-8,.cls-9{stroke-miterlimit:10;}.cls-6{fill:#0060a9;}.cls-7,.cls-8,.cls-9{fill:#fff;}.cls-10,.cls-11,.cls-12,.cls-8,.cls-9{stroke:#0060ad;}.cls-8,.cls-9{stroke-width:5.92px;}.cls-11,.cls-8{fill-rule:evenodd;}.cls-10{stroke-width:5.34px;}.cls-11,.cls-12{stroke-linecap:round;stroke-linejoin:round;}.cls-11{stroke-width:4.48px;}.cls-12{stroke-width:2.24px;}</style></defs><title>Chiffre 04</title><rect class="cls-1" width="865" height="402"/><path class="cls-2" d="M417.46,92.52l.45-5.9.83-20.36.1-4.37c0-.7,0-1.38,0-2.06V57q3.25.06,5.28.06,1.23,0,3.75-.06c1.68,0,2.94-.05,3.78-.05a18.28,18.28,0,0,1,4.89.48A7,7,0,0,1,439.38,59a7.88,7.88,0,0,1,1.93,2.79,9.38,9.38,0,0,1,.7,3.67,10.74,10.74,0,0,1-1.66,5.9,10.2,10.2,0,0,1-4.55,3.91,15.61,15.61,0,0,1-6.41,1.28,23.27,23.27,0,0,1-4.17-.41,30.39,30.39,0,0,0-.88-3.26,20.89,20.89,0,0,0,4,.39,14.39,14.39,0,0,0,3.58-.43,7.24,7.24,0,0,0,2.93-1.43,6.62,6.62,0,0,0,1.9-2.51,7.72,7.72,0,0,0,.68-3.2,6,6,0,0,0-.5-2.46,4.46,4.46,0,0,0-1.36-1.8,4.82,4.82,0,0,0-2-.89,16.26,16.26,0,0,0-3.22-.24h-2.18l-2.74,0-2,0q-.3,5.7-.44,10.36l-.36,10.7q-.18,6.09-.18,8.14v2.94l-2.42,0Z" transform="translate(0.26)"/><path class="cls-2" d="M446.41,92.52l.66-9.78.73-18.3.08-4c0-1,0-2.17,0-3.47q5.88,0,12.05,0l8.3,0h2.66c-.13,1.21-.2,2.42-.24,3.65l-2.32-.13c-.57,0-1.55-.06-3-.08l-4.15,0c-4.1,0-6.95,0-8.57.08l-.47,12.18c2.67.06,5.07.08,7.19.08q3.47,0,9.08-.1c-.12,1.21-.19,2.41-.23,3.59l-9-.08q-2.62,0-7.31.11l-.48,12.85,2.71,0q7.38,0,9.78,0c1.61,0,3.49-.11,5.64-.24-.12,1.29-.2,2.51-.23,3.67q-6.28,0-10.6,0Zm10.91-38.86,2.39-6.82c.85,0,1.73,0,2.63,0s1.7,0,2.66,0q-1.72,2.43-4.51,6.82c-.48,0-1,0-1.61,0S457.79,53.63,457.32,53.66Z" transform="translate(0.26)"/><path class="cls-2" d="M476.53,92.52l.52-7,.59-12.93.26-10.89Q478,58.4,478,57c2.08,0,3.8.06,5.18.06,1.18,0,2.48,0,3.91-.06s2.61-.05,3.53-.05a26,26,0,0,1,4.42.34,8,8,0,0,1,3.56,1.55,7.61,7.61,0,0,1,2.32,2.81,8.62,8.62,0,0,1,.74,3.63,10.86,10.86,0,0,1-.58,3.62,9.94,9.94,0,0,1-1.72,3,9.33,9.33,0,0,1-2.7,2.21,11.62,11.62,0,0,1-3,1.07c-.8.17-1.89.34-3.28.49L494.93,83l4.74,7.26c.33.5.81,1.26,1.43,2.26l-2.69,0-2.78,0L493.75,89c-.38-.7-.76-1.38-1.14-2.06s-.8-1.4-1.26-2.18l-5.89-9.61c-.25-.38-.65-1-1.2-2a20.2,20.2,0,0,0,3.54.36,12.52,12.52,0,0,0,4.72-.86,6.74,6.74,0,0,0,3.28-2.67,7.21,7.21,0,0,0,1.16-4,6.63,6.63,0,0,0-.36-2.22A4.17,4.17,0,0,0,495.44,62a5.8,5.8,0,0,0-1.56-1,8.36,8.36,0,0,0-2-.47,20.91,20.91,0,0,0-2.57-.15l-3.69.05c-1.6,0-2.61,0-3.05,0q-.79,17.49-1,32.17l-2.56,0Z" transform="translate(0.26)"/><path class="cls-2" d="M506.75,92.52l.39-6,.54-12.47.37-12.29c0-.71,0-1.42,0-2.13l0-2.66,2.68,0,2.53,0q-.48,6.51-.7,13.59-.42,11.36-.6,21.94l-2.45,0Z" transform="translate(0.26)"/><path class="cls-2" d="M519.32,92.52l.55-4.81,1.64-19.39L522.3,57l3.42,0L529,57l.59,2.27c.18.61.39,1.32.65,2.13s.72,2.18,1.36,4.09l3.2,9.24,4,12.39L544,74.72l5.91-13.54c.21-.48.41-1,.61-1.54l.95-2.65q1.7,0,3.51,0l3.33,0-.33,12.42-.14,8.15c0,.76,0,1.52,0,2.29l0,6v3.36c0,.38,0,1.5.06,3.35l-2.29,0c-.54,0-1.33,0-2.37,0l.15-3.3.39-18.74c.06-2.1.08-4.44.08-7l0-2.13L542.37,88.75l-1.51,3.77-2.37,0c-.54,0-1.38,0-2.51,0l-3.09-9.81-3.19-9.66-3.17-9.32c-.14-.41-.37-1.16-.7-2.23l-.32,3-1.59,22.39c0,.74-.07,1.49-.09,2.24s-.06,1.86-.09,3.35l-2.19,0Z" transform="translate(0.26)"/><path class="cls-2" d="M565.5,92.52l.65-9.78.74-18.3.08-4c0-1,0-2.17,0-3.47q5.88,0,12,0l8.3,0H590c-.12,1.21-.2,2.42-.23,3.65l-2.32-.13c-.57,0-1.56-.06-3-.08l-4.15,0c-4.1,0-7,0-8.57.08l-.47,12.18c2.67.06,5.07.08,7.19.08q3.45,0,9.08-.1c-.12,1.21-.2,2.41-.23,3.59l-9-.08q-2.62,0-7.32.11l-.47,12.85,2.71,0q7.37,0,9.78,0c1.61,0,3.48-.11,5.64-.24-.12,1.29-.2,2.51-.24,3.67q-6.27,0-10.59,0Zm14.55-38.86c-.52,0-1,0-1.56,0s-1.18,0-1.62,0q-2.6-4.24-4.37-6.82c1,0,1.88,0,2.66,0s1.79,0,2.63,0Z" transform="translate(0.26)"/><path class="cls-2" d="M602.9,92.52l.52-8,.71-16.5.23-7.63c-4.25,0-8,.09-11.16.23.1-1.38.16-2.61.18-3.67q6.61,0,14.26,0L616,57h4.43c-.13,1.54-.19,2.76-.19,3.67q-4-.22-8.92-.23h-2.14L608.61,72l-.55,16.23v4.34l-2.5,0Z" transform="translate(0.26)"/><path class="cls-2" d="M623.42,92.52l.51-7,.6-12.93.26-10.89c0-2.2.05-3.77.05-4.71,2.08,0,3.81.06,5.18.06,1.18,0,2.49,0,3.92-.06s2.61-.05,3.53-.05a26,26,0,0,1,4.41.34,8,8,0,0,1,3.57,1.55,7.61,7.61,0,0,1,2.32,2.81,8.62,8.62,0,0,1,.74,3.63,10.86,10.86,0,0,1-.59,3.62,9.71,9.71,0,0,1-1.71,3,9.46,9.46,0,0,1-2.7,2.21,11.76,11.76,0,0,1-3,1.07c-.8.17-1.89.34-3.28.49L641.82,83l4.74,7.26c.33.5.8,1.26,1.43,2.26l-2.7,0-2.77,0L640.64,89c-.38-.7-.76-1.38-1.14-2.06s-.8-1.4-1.26-2.18l-5.89-9.61c-.25-.38-.65-1-1.2-2a20.2,20.2,0,0,0,3.54.36,12.52,12.52,0,0,0,4.72-.86,6.74,6.74,0,0,0,3.28-2.67,7.29,7.29,0,0,0,1.16-4,6.39,6.39,0,0,0-.37-2.22A4.06,4.06,0,0,0,642.33,62a5.69,5.69,0,0,0-1.57-1,8.26,8.26,0,0,0-2-.47,21,21,0,0,0-2.57-.15l-3.69.05c-1.6,0-2.62,0-3,0q-.81,17.49-1,32.17l-2.56,0Z" transform="translate(0.26)"/><path class="cls-2" d="M653.61,92.52l.65-9.78.74-18.3.08-4c0-1,0-2.17,0-3.47q5.88,0,12,0l8.3,0h2.65c-.12,1.21-.19,2.42-.23,3.65l-2.32-.13c-.57,0-1.55-.06-2.95-.08l-4.15,0c-4.1,0-7,0-8.57.08l-.47,12.18c2.67.06,5.07.08,7.19.08,2.31,0,5.33,0,9.08-.1-.12,1.21-.2,2.41-.23,3.59l-9-.08q-2.62,0-7.32.11l-.47,12.85,2.71,0q7.37,0,9.78,0c1.61,0,3.49-.11,5.64-.24-.12,1.29-.2,2.51-.24,3.67q-6.27,0-10.59,0Z" transform="translate(0.26)"/><path class="cls-2" d="M682.32,91.59c-.07-1.65-.18-3.08-.34-4.3a26.61,26.61,0,0,0,5,1.84,18.27,18.27,0,0,0,4.23.53A9.84,9.84,0,0,0,694.8,89a5.47,5.47,0,0,0,2.53-1.88,4.72,4.72,0,0,0,.84-2.77,5,5,0,0,0-.28-1.7A5.89,5.89,0,0,0,697,81a18.65,18.65,0,0,0-2.21-2.21q-1.57-1.39-4.46-3.84l-1.93-1.64a25.66,25.66,0,0,1-2-1.86,16.51,16.51,0,0,1-1.48-1.77,10.5,10.5,0,0,1-.93-1.54,7.42,7.42,0,0,1-.5-1.53,7.81,7.81,0,0,1,1-5.92,8.42,8.42,0,0,1,3.68-3.13,15.27,15.27,0,0,1,6.5-1.17,40.2,40.2,0,0,1,7.1.78c0,1.12.16,2.49.37,4.11a22.16,22.16,0,0,0-7.24-1.4,8.41,8.41,0,0,0-3.75.74,5.72,5.72,0,0,0-2.29,1.89,4.19,4.19,0,0,0-.78,2.37,4.88,4.88,0,0,0,.21,1.42,5.23,5.23,0,0,0,.62,1.31,12.61,12.61,0,0,0,1.49,1.83c.59.62,1.4,1.37,2.44,2.26.26.2,1.26,1,3,2.44s3,2.53,3.78,3.31a15.43,15.43,0,0,1,1.88,2.17,8.47,8.47,0,0,1,1.1,2.16,7.86,7.86,0,0,1,.39,2.51,8.29,8.29,0,0,1-.9,3.84A7.52,7.52,0,0,1,699.51,91a11,11,0,0,1-3.73,1.59,19.41,19.41,0,0,1-4.3.47,25.28,25.28,0,0,1-3.71-.28A48.67,48.67,0,0,1,682.32,91.59Z" transform="translate(0.26)"/><path class="cls-2" d="M417.46,145.83l.39-6,.55-12.47.36-12.29q0-1.07,0-2.13l0-2.66,2.69,0,2.52,0q-.47,6.51-.7,13.59-.4,11.36-.6,21.94l-2.44-.05Z" transform="translate(0.26)"/><path class="cls-2" d="M430.69,145.83l.52-7,.59-12.93.26-10.89q.06-3.3.06-4.71c2.08,0,3.81,0,5.18,0,1.18,0,2.48,0,3.92,0s2.6,0,3.52,0a26,26,0,0,1,4.42.34,7.87,7.87,0,0,1,3.56,1.55A7.53,7.53,0,0,1,455,115a8.62,8.62,0,0,1,.74,3.63,10.86,10.86,0,0,1-.58,3.62,9.74,9.74,0,0,1-1.72,3,9.42,9.42,0,0,1-2.69,2.21,12.25,12.25,0,0,1-3,1.07c-.79.17-1.89.34-3.28.49l4.58,7.32,4.74,7.26c.33.5.81,1.26,1.43,2.26l-2.69-.05-2.78.05-1.87-3.56-1.15-2.06c-.38-.68-.8-1.4-1.25-2.19l-5.9-9.6c-.24-.38-.64-1-1.2-2a20.38,20.38,0,0,0,3.54.36,12.52,12.52,0,0,0,4.72-.86,6.74,6.74,0,0,0,3.28-2.67,7.21,7.21,0,0,0,1.16-4,6.63,6.63,0,0,0-.36-2.22,4.17,4.17,0,0,0-1.16-1.74,5.8,5.8,0,0,0-1.56-1,8.24,8.24,0,0,0-2-.47,20.81,20.81,0,0,0-2.56-.16l-3.7.06c-1.6,0-2.61,0-3.05,0q-.79,17.49-1,32.17l-2.55-.05Z" transform="translate(0.26)"/><path class="cls-2" d="M460.86,145.83l.52-7L462,125.9l.26-10.89q.06-3.3.06-4.71c2.08,0,3.8,0,5.18,0,1.18,0,2.48,0,3.91,0s2.61,0,3.53,0a26,26,0,0,1,4.42.34,7.87,7.87,0,0,1,3.56,1.55,7.53,7.53,0,0,1,2.32,2.81,8.62,8.62,0,0,1,.74,3.63,10.86,10.86,0,0,1-.58,3.62,9.94,9.94,0,0,1-1.72,3,9.33,9.33,0,0,1-2.7,2.21,12,12,0,0,1-3,1.07c-.8.17-1.89.34-3.28.49l4.58,7.32,4.74,7.26c.33.5.81,1.26,1.43,2.26l-2.69-.05-2.78.05-1.88-3.56c-.38-.7-.76-1.38-1.14-2.06L475.68,138l-5.89-9.6c-.25-.38-.65-1-1.2-2a20.2,20.2,0,0,0,3.54.36,12.52,12.52,0,0,0,4.72-.86,6.74,6.74,0,0,0,3.28-2.67,7.21,7.21,0,0,0,1.16-4,6.63,6.63,0,0,0-.36-2.22,4.17,4.17,0,0,0-1.16-1.74,5.8,5.8,0,0,0-1.56-1,8.36,8.36,0,0,0-2-.47,20.85,20.85,0,0,0-2.57-.16l-3.69.06c-1.6,0-2.61,0-3.05,0q-.8,17.49-1,32.17l-2.56-.05Z" transform="translate(0.26)"/><path class="cls-2" d="M491.08,145.83l.39-6,.54-12.47.37-12.29c0-.71,0-1.42,0-2.13l0-2.66,2.68,0,2.53,0q-.48,6.51-.7,13.59-.42,11.36-.6,21.94l-2.45-.05Z" transform="translate(0.26)"/><path class="cls-2" d="M524.5,125.92l6.93,0,5.8,0q-.59,7.79-.86,18.79a65.64,65.64,0,0,1-13.47,1.7,29.07,29.07,0,0,1-7.92-1.07,17.07,17.07,0,0,1-6.39-3.25,13.49,13.49,0,0,1-3.91-5.63,20.06,20.06,0,0,1-1.31-7.26A20.52,20.52,0,0,1,505,121a17.7,17.7,0,0,1,4.64-6.44,18.21,18.21,0,0,1,6.75-3.72,28.78,28.78,0,0,1,8.3-1.12,52.92,52.92,0,0,1,11.14,1.33c0,1.3.12,2.7.26,4.21a47.27,47.27,0,0,0-6.3-1.65,29.42,29.42,0,0,0-4.89-.45,21.15,21.15,0,0,0-6.69,1,13.78,13.78,0,0,0-8.88,8.6,19.16,19.16,0,0,0-1.17,6.62,17,17,0,0,0,.95,5.71,10.18,10.18,0,0,0,2.88,4.36,13.11,13.11,0,0,0,4.7,2.59,19.34,19.34,0,0,0,6,.9,32.23,32.23,0,0,0,4.22-.33,28.93,28.93,0,0,0,4.94-1.11l.52-12.31H530c-1.63,0-3.51.05-5.63.13C524.45,128.13,524.5,127,524.5,125.92Z" transform="translate(0.26)"/><path class="cls-2" d="M545.37,110.3l2.58,0,2.53,0-1.17,19.86-.08,2.42v.5a12,12,0,0,0,1.07,5.61,7.11,7.11,0,0,0,3.39,3.08,13.9,13.9,0,0,0,5.9,1.1,14.8,14.8,0,0,0,4.42-.63,9.28,9.28,0,0,0,2.88-1.46,7.68,7.68,0,0,0,2-2.23,9.63,9.63,0,0,0,1-2.89,69.29,69.29,0,0,0,.65-7.08l.46-8.39c.14-3.08.23-6.38.29-9.89l2.68,0,2.43,0-.76,12.26-.47,10.15a30.17,30.17,0,0,1-.76,5.5,10.38,10.38,0,0,1-1.14,2.6,8.63,8.63,0,0,1-1.67,1.95,12.23,12.23,0,0,1-2.84,1.85,17,17,0,0,1-3.74,1.25,31.55,31.55,0,0,1-5.89.55,24.44,24.44,0,0,1-5.54-.6,15.4,15.4,0,0,1-4.11-1.59,10.58,10.58,0,0,1-3-2.42A8.07,8.07,0,0,1,545,139a13.22,13.22,0,0,1-.62-4.14c0-1.61.06-3.46.19-5.54s.3-5.23.49-9.43S545.37,112.52,545.37,110.3Z" transform="translate(0.26)"/><path class="cls-2" d="M582.78,145.83l.66-9.78.73-18.3.08-4c0-1,0-2.16,0-3.46q5.88,0,12,0l8.3,0h2.66c-.12,1.21-.2,2.42-.24,3.65l-2.31-.13c-.58,0-1.56-.06-3-.08l-4.15,0q-6.15,0-8.56.08L588.58,126c2.68,0,5.07.08,7.19.08q3.47,0,9.09-.1c-.12,1.21-.2,2.41-.24,3.59l-9-.08c-1.76,0-4.2,0-7.32.1l-.47,12.86,2.7,0q7.38,0,9.78,0c1.61,0,3.49-.11,5.64-.24-.12,1.29-.2,2.51-.23,3.67q-6.28,0-10.6-.05ZM593.69,107l2.39-6.82c.85,0,1.73,0,2.63,0s1.7,0,2.66,0c-1.15,1.61-2.65,3.89-4.5,6.82-.49,0-1,0-1.62,0S594.16,106.94,593.69,107Z" transform="translate(0.26)"/><path class="cls-2" d="M611.49,144.9c-.07-1.65-.18-3.08-.33-4.3a26.81,26.81,0,0,0,5,1.84,18.27,18.27,0,0,0,4.23.53,9.85,9.85,0,0,0,3.64-.66,5.44,5.44,0,0,0,2.52-1.88,4.73,4.73,0,0,0,.85-2.77,4.93,4.93,0,0,0-.29-1.7,6.1,6.1,0,0,0-.92-1.62,18.93,18.93,0,0,0-2.22-2.21c-1-.93-2.53-2.21-4.46-3.84l-1.93-1.64q-1.1-.95-2-1.86a16.51,16.51,0,0,1-1.48-1.77,10,10,0,0,1-.92-1.54,6.87,6.87,0,0,1-.51-1.53,8.33,8.33,0,0,1-.18-1.73,7.74,7.74,0,0,1,1.22-4.2,8.53,8.53,0,0,1,3.68-3.12,15.27,15.27,0,0,1,6.5-1.17,40.2,40.2,0,0,1,7.1.78c0,1.12.16,2.49.37,4.11a22.16,22.16,0,0,0-7.24-1.4,8.41,8.41,0,0,0-3.75.74,5.72,5.72,0,0,0-2.29,1.89,4.16,4.16,0,0,0-.78,2.37,4.82,4.82,0,0,0,.21,1.41,5,5,0,0,0,.63,1.32,11.88,11.88,0,0,0,1.48,1.83c.59.62,1.41,1.37,2.45,2.26.26.2,1.25,1,3,2.44s3,2.53,3.77,3.31a16.26,16.26,0,0,1,1.89,2.17,8.43,8.43,0,0,1,1.09,2.16,7.86,7.86,0,0,1,.39,2.51,8.29,8.29,0,0,1-.9,3.84,7.41,7.41,0,0,1-2.57,2.88,11,11,0,0,1-3.74,1.59,19.38,19.38,0,0,1-4.29.47,25.08,25.08,0,0,1-3.71-.28A48.25,48.25,0,0,1,611.49,144.9Z" transform="translate(0.26)"/><path class="cls-3" d="M424.71,259.25a2.94,2.94,0,0,1,.68-1.91l33.38-42.5a36,36,0,0,0,4.84-7.84,20.33,20.33,0,0,0,1.7-8.24,14.71,14.71,0,0,0-3.88-10.42q-3.89-4.16-10.7-4.15t-10.35,3.67a18.07,18.07,0,0,0-4.77,9.95c-.18.91-.68,1.27-1.5,1.09l-8.31-1.77a1.42,1.42,0,0,1-1.09-1.64,24.28,24.28,0,0,1,7.49-15.05,25.63,25.63,0,0,1,8-5A28.71,28.71,0,0,1,451,173.56a29.19,29.19,0,0,1,10.9,1.91,24,24,0,0,1,8.18,5.31,22.64,22.64,0,0,1,5.17,8,27.62,27.62,0,0,1,1.78,9.94,27.94,27.94,0,0,1-2.39,11.58A50.12,50.12,0,0,1,468,221l-28.61,36v.13h36.24a1.21,1.21,0,0,1,1.37,1.36v7.91a1.21,1.21,0,0,1-1.37,1.36H426.07a1.2,1.2,0,0,1-1.36-1.36Z" transform="translate(0.26)"/><path class="cls-3" d="M486.7,251.62a26.82,26.82,0,0,1-.75-3.2c-.23-1.23-.46-2.93-.68-5.11s-.39-5-.48-8.51-.14-8-.14-13.42.05-9.92.14-13.42.25-6.34.48-8.52.45-3.88.68-5.11a27.78,27.78,0,0,1,.75-3.2,24.25,24.25,0,0,1,9.19-13.08q6.48-4.49,16.15-4.49t16.14,4.49a24.31,24.31,0,0,1,9.2,13.08,32.7,32.7,0,0,1,.75,3.2c.22,1.23.45,2.93.68,5.11s.38,5,.47,8.52.14,8,.14,13.42,0,9.92-.14,13.42-.25,6.33-.47,8.51-.46,3.88-.68,5.11a31.38,31.38,0,0,1-.75,3.2,24.31,24.31,0,0,1-9.2,13.08q-6.46,4.5-16.14,4.5t-16.15-4.5A24.25,24.25,0,0,1,486.7,251.62Zm11.3-2.31a13.05,13.05,0,0,0,5.25,6.94,17.79,17.79,0,0,0,17.57,0,13.05,13.05,0,0,0,5.25-6.94,15.32,15.32,0,0,0,.68-2.59q.27-1.5.48-4.5t.27-8q.06-5,.07-12.87t-.07-12.88q-.07-5-.27-8c-.14-2-.3-3.49-.48-4.49a15.32,15.32,0,0,0-.68-2.59,13.12,13.12,0,0,0-5.25-6.95,17.86,17.86,0,0,0-17.57,0,13.12,13.12,0,0,0-5.25,6.95,15.32,15.32,0,0,0-.68,2.59,43.32,43.32,0,0,0-.47,4.49q-.21,3-.28,8t-.06,12.88q0,7.91.06,12.87t.28,8a43.26,43.26,0,0,0,.47,4.5A15.32,15.32,0,0,0,498,249.31Z" transform="translate(0.26)"/><path class="cls-3" d="M543.51,250.12v-7.49a3.52,3.52,0,0,1,.41-1.63l30-64.85a1.94,1.94,0,0,1,1.9-1.09h9.13c1,0,1.32.41,1,1.22l-29.57,64.44V241h24.52a.73.73,0,0,0,.82-.82V215.93a1.21,1.21,0,0,1,1.37-1.36h8.71a1.21,1.21,0,0,1,1.37,1.36v24.25a.72.72,0,0,0,.81.82h8.45a1.2,1.2,0,0,1,1.36,1.36v7.76a1.21,1.21,0,0,1-1.36,1.37h-8.45a.72.72,0,0,0-.81.81v14a1.21,1.21,0,0,1-1.37,1.36H583a1.21,1.21,0,0,1-1.37-1.36v-14a.72.72,0,0,0-.82-.81h-36A1.21,1.21,0,0,1,543.51,250.12Z" transform="translate(0.26)"/><path class="cls-4" d="M416.7,308.71l.51-7.95.54-15.65c0-.88,0-1.76,0-2.65l0-1.38,2,0,1.95,0-.39,7.39-.6,16.5-.06,3.74-2,0Zm4.74-14.66,5.11-5.75,4.32-5c.31-.37.89-1.1,1.74-2.18l2.31,0,2.21,0L427.24,292l-1.7,2,1.11,1.43,5.1,6.12,6.09,7.21-2.33,0-2.49,0L431,306Z" transform="translate(0.26)"/><path class="cls-4" d="M442.6,308.71l.36-5.1.39-8.7.16-6.7,1.87,0,1.82,0q-.22,3.15-.41,6.61t-.3,7.54q-.12,4.08-.12,6.35l-1.82,0Zm.94-24.92c0-1.27.06-2.22.06-2.87.74,0,1.39,0,2,0s1.36,0,1.94,0c0,.42-.06,1.37-.12,2.87l-1.88,0Z" transform="translate(0.26)"/><path class="cls-4" d="M453.93,308.71q.4-6.22.79-14.77.25-6.22.38-12.86l1.88,0,1.81,0L458.16,293l-.44,12-.08,3.72-1.79,0Z" transform="translate(0.26)"/><path class="cls-4" d="M475.48,287.74a13.19,13.19,0,0,1,4,.61,8.52,8.52,0,0,1,3.33,1.92,8.27,8.27,0,0,1,2.13,3.32,12.22,12.22,0,0,1,.73,4.23,13.75,13.75,0,0,1-.78,4.62,10.7,10.7,0,0,1-2.18,3.74,8.37,8.37,0,0,1-3.44,2.26,13.05,13.05,0,0,1-4.37.72,12.79,12.79,0,0,1-4.09-.65,8.61,8.61,0,0,1-3.33-2,8.83,8.83,0,0,1-2.13-3.37,12,12,0,0,1-.73-4.18A13,13,0,0,1,466,293a8.67,8.67,0,0,1,3.93-3.94A12.19,12.19,0,0,1,475.48,287.74Zm-.09,2.57a7.31,7.31,0,0,0-3.79,1,6.11,6.11,0,0,0-2.56,3.11,12.13,12.13,0,0,0-.83,4.53,10.2,10.2,0,0,0,.69,3.85,5.93,5.93,0,0,0,2.26,2.77,6.7,6.7,0,0,0,3.8,1,7.86,7.86,0,0,0,2.87-.52,5.64,5.64,0,0,0,2.37-1.71,7.77,7.77,0,0,0,1.5-2.92,13.61,13.61,0,0,0,.48-3.64,11.33,11.33,0,0,0-.48-3.34,5.71,5.71,0,0,0-1.49-2.5,5.56,5.56,0,0,0-2.27-1.32A8.58,8.58,0,0,0,475.39,290.31Z" transform="translate(0.26)"/><path class="cls-4" d="M491.72,308.71l.23-2.93c0-.62.09-1.6.16-2.94l.48-12.33c0-1,0-1.78,0-2.3l1.74,0,1.69,0-.19,3.76a16.32,16.32,0,0,1,1.25-1.8,5.94,5.94,0,0,1,1.47-1.24,7.92,7.92,0,0,1,2.07-.88,9.23,9.23,0,0,1,2.42-.31,7.63,7.63,0,0,1,1.72.2,7.48,7.48,0,0,1,1.57.57,5.71,5.71,0,0,1,1.24.83,4.33,4.33,0,0,1,.83,1,8,8,0,0,1,.63,1.58,7.37,7.37,0,0,1,3.09-3.26,9.13,9.13,0,0,1,4.14-.93,8.75,8.75,0,0,1,2.83.47,5.16,5.16,0,0,1,2.17,1.33,4.69,4.69,0,0,1,1.09,1.81,6.87,6.87,0,0,1,.27,1.9c0,.64,0,1.62-.14,2.91s-.2,3.27-.32,5.92-.19,4.87-.2,6.63l-1.69,0-1.92,0c.15-1.82.27-3.8.38-5.95l.26-5c.07-1.21.11-2.26.11-3.14a5.57,5.57,0,0,0-.25-1.84,3.16,3.16,0,0,0-.78-1.19,3.44,3.44,0,0,0-1.32-.8,5.33,5.33,0,0,0-1.81-.28,5.43,5.43,0,0,0-1.49.19,5.32,5.32,0,0,0-1.26.54,5.23,5.23,0,0,0-1.19,1,5.29,5.29,0,0,0-.89,1.24,6.85,6.85,0,0,0-.63,1.68,18.72,18.72,0,0,0-.43,3c-.09,1.25-.16,2.9-.22,5l-.16,5.66-1.76,0-1.84,0c.13-1.67.24-3.39.32-5.16l.24-4.9c.07-1.51.1-2.8.1-3.86a6.82,6.82,0,0,0-.2-1.76,3.19,3.19,0,0,0-.76-1.31,3.67,3.67,0,0,0-1.34-.91,4.7,4.7,0,0,0-1.75-.32,5.2,5.2,0,0,0-1.92.36,5.29,5.29,0,0,0-1.68,1,6,6,0,0,0-1.29,1.69,8.87,8.87,0,0,0-.82,2.63,46.57,46.57,0,0,0-.47,5.68c-.11,2.7-.17,5-.17,6.82l-1.78,0Z" transform="translate(0.26)"/><path class="cls-4" d="M546.19,305.5c-.16.74-.32,1.68-.48,2.83a30.28,30.28,0,0,1-3.37.66,24.9,24.9,0,0,1-2.85.17,15.49,15.49,0,0,1-4.54-.61,7.79,7.79,0,0,1-3.46-2.11,9.1,9.1,0,0,1-2.06-3.45,13.29,13.29,0,0,1-.63-4.11,13.53,13.53,0,0,1,1.16-5.6,9,9,0,0,1,3.47-4.06,10.69,10.69,0,0,1,5.88-1.48,11.42,11.42,0,0,1,3.52.54,6.89,6.89,0,0,1,2.8,1.63,7.49,7.49,0,0,1,1.72,2.7,10,10,0,0,1,.6,3.51,8.25,8.25,0,0,1-.12,1.42H532.38c0,.74-.08,1.31-.08,1.7a8.75,8.75,0,0,0,.89,3.92,6.07,6.07,0,0,0,2.64,2.71,8.46,8.46,0,0,0,4,.92A20.09,20.09,0,0,0,546.19,305.5Zm-13.64-9.64h12.06a10.74,10.74,0,0,0-.16-2,5.34,5.34,0,0,0-.53-1.47,4,4,0,0,0-1-1.32,4.61,4.61,0,0,0-1.58-.85,6.38,6.38,0,0,0-2-.29,7.6,7.6,0,0,0-2.2.32,6.55,6.55,0,0,0-1.84.89,5.93,5.93,0,0,0-1.36,1.33,6.48,6.48,0,0,0-.83,1.47A13,13,0,0,0,532.55,295.86Zm8.22-10.33c-.41,0-.81,0-1.22,0s-.92,0-1.25,0c-1.35-2.2-2.49-4-3.4-5.3.77,0,1.45,0,2.06,0s1.4,0,2,0Z" transform="translate(0.26)"/><path class="cls-4" d="M563.83,306c-.15.66-.31,1.54-.48,2.63a16.73,16.73,0,0,1-2.19.41c-.54.05-1,.08-1.54.08a7.77,7.77,0,0,1-2.9-.45,3.41,3.41,0,0,1-1.69-1.46,5.32,5.32,0,0,1-.59-2.73c0-.14,0-.41,0-.79s.08-1.69.21-3.94l.49-9.07h-2.7c0-.57.1-1.38.14-2.43h2.76c.06-.76.13-2.05.2-3.87q1.91-.36,3.21-.69c-.09,2-.14,3.52-.16,4.56h5.63q-.11,1.27-.12,2.43h-5.61L558,302.11l0,.88a5.46,5.46,0,0,0,.34,2.21,2,2,0,0,0,1,1.06,3.09,3.09,0,0,0,1.39.33,8.61,8.61,0,0,0,1.09-.08C562.16,306.45,562.85,306.3,563.83,306Z" transform="translate(0.26)"/><path class="cls-4" d="M568.82,308.71q.73-11.67.73-18.64l0-1.86,1.7,0,1.72,0-.16,3.36a12.19,12.19,0,0,1,1.33-1.9,5.45,5.45,0,0,1,1.3-1.05,6.76,6.76,0,0,1,1.65-.65,8.08,8.08,0,0,1,1.92-.23,7.42,7.42,0,0,1,1.68.2c0,.89.06,1.89.14,3a8.65,8.65,0,0,0-2.25-.35,5.55,5.55,0,0,0-2.14.4,5,5,0,0,0-1.72,1.19,6.75,6.75,0,0,0-1.24,1.92,8.67,8.67,0,0,0-.62,2.31q-.21,1.41-.33,5.16c0,1.82-.08,3.75-.08,5.79v1.35l-1.76,0Z" transform="translate(0.26)"/><path class="cls-4" d="M602.24,305.5c-.17.74-.33,1.68-.49,2.83a30.28,30.28,0,0,1-3.37.66,24.77,24.77,0,0,1-2.85.17,15.54,15.54,0,0,1-4.54-.61,7.81,7.81,0,0,1-3.45-2.11,9,9,0,0,1-2.07-3.45,13.29,13.29,0,0,1-.63-4.11,13.53,13.53,0,0,1,1.16-5.6,9.06,9.06,0,0,1,3.47-4.06,10.73,10.73,0,0,1,5.88-1.48,11.53,11.53,0,0,1,3.53.54,6.79,6.79,0,0,1,2.79,1.63,7.49,7.49,0,0,1,1.72,2.7,10,10,0,0,1,.61,3.51,8.25,8.25,0,0,1-.12,1.42H588.43c-.06.74-.08,1.31-.08,1.7a8.61,8.61,0,0,0,.89,3.92,6,6,0,0,0,2.63,2.71,8.5,8.5,0,0,0,4,.92A20.2,20.2,0,0,0,602.24,305.5Zm-13.65-9.64h12.07a11.52,11.52,0,0,0-.17-2,5.64,5.64,0,0,0-.52-1.47,4.32,4.32,0,0,0-1-1.32,4.7,4.7,0,0,0-1.58-.85,6.45,6.45,0,0,0-2-.29,7.48,7.48,0,0,0-2.19.32,6.61,6.61,0,0,0-1.85.89,5.88,5.88,0,0,0-1.35,1.33,5.8,5.8,0,0,0-.83,1.47A12.86,12.86,0,0,0,588.59,295.86Z" transform="translate(0.26)"/><path class="cls-4" d="M608.58,308.33l-.12-1.49c0-.16-.05-.68-.16-1.55a14.42,14.42,0,0,0,5.75,1.36,6.67,6.67,0,0,0,2.33-.36,2.94,2.94,0,0,0,1.42-1.08,2.64,2.64,0,0,0,.48-1.49,3.06,3.06,0,0,0-.13-.84,3,3,0,0,0-.4-.82,4.81,4.81,0,0,0-.78-.87c-.34-.31-1.06-.91-2.14-1.79s-1.91-1.56-2.47-2a11.26,11.26,0,0,1-1.44-1.52,5.77,5.77,0,0,1-.88-1.57,4.7,4.7,0,0,1-.29-1.6,4.49,4.49,0,0,1,.82-2.51,4.91,4.91,0,0,1,2.37-1.81,10.1,10.1,0,0,1,3.64-.6,26.4,26.4,0,0,1,5.12.55c0,1,.12,2,.2,2.89a11.71,11.71,0,0,0-4.47-.93,7.83,7.83,0,0,0-2.22.31,2.89,2.89,0,0,0-1.5.95,2.23,2.23,0,0,0-.47,1.37,2.6,2.6,0,0,0,.16.93,3.54,3.54,0,0,0,.58,1,7.94,7.94,0,0,0,1,1c.39.34,1.17,1,2.34,1.9a30.09,30.09,0,0,1,2.4,2.07,9.26,9.26,0,0,1,1.11,1.37,5.51,5.51,0,0,1,.68,1.41,5,5,0,0,1,.21,1.43,4.54,4.54,0,0,1-.84,2.63,5.31,5.31,0,0,1-2.5,1.88,9.84,9.84,0,0,1-3.73.67c-.58,0-1.26,0-2-.11s-1.45-.16-2-.26S609.39,308.53,608.58,308.33Z" transform="translate(0.26)"/><path class="cls-4" d="M659.66,308.75l-1.66,0h-1.76l.24-4.37a17.87,17.87,0,0,1-1.12,1.75,7.5,7.5,0,0,1-1.1,1.17,8.09,8.09,0,0,1-1.48,1,8.42,8.42,0,0,1-1.87.68,9.67,9.67,0,0,1-2.19.24,9.56,9.56,0,0,1-3.67-.71,8.1,8.1,0,0,1-2.91-2,8,8,0,0,1-1.72-3.07,12.68,12.68,0,0,1-.52-3.65,13.41,13.41,0,0,1,1-5,10.62,10.62,0,0,1,2.8-4.07,10.13,10.13,0,0,1,4.1-2.24,18.28,18.28,0,0,1,4.86-.63,26.47,26.47,0,0,1,4.23.41c.07-1.48.1-2.7.1-3.67,0-1.4,0-2.54,0-3.4l1.85,0,1.84,0-.59,11.43-.4,13.1Zm-2.92-18.05a12.18,12.18,0,0,0-2.07-.47,14,14,0,0,0-1.67-.1,12.36,12.36,0,0,0-3.72.56,8,8,0,0,0-3.12,1.83,8.41,8.41,0,0,0-2.07,3.24,10.91,10.91,0,0,0-.73,3.84,9,9,0,0,0,.69,3.52,5.55,5.55,0,0,0,2.13,2.55,6.19,6.19,0,0,0,3.37.92,7,7,0,0,0,2.11-.31,5.68,5.68,0,0,0,1.73-.93,6.81,6.81,0,0,0,1.47-1.64,8.68,8.68,0,0,0,1.09-2.38,17.11,17.11,0,0,0,.51-3.22c0-.66.11-1.94.18-3.83Z" transform="translate(0.26)"/><path class="cls-4" d="M684,305.5c-.16.74-.32,1.68-.49,2.83a29.85,29.85,0,0,1-3.37.66,24.73,24.73,0,0,1-2.84.17,15.61,15.61,0,0,1-4.55-.61,7.81,7.81,0,0,1-3.45-2.11A9,9,0,0,1,667.2,303a13.29,13.29,0,0,1-.63-4.11,13.52,13.52,0,0,1,1.15-5.6,9.08,9.08,0,0,1,3.48-4.06,10.69,10.69,0,0,1,5.88-1.48,11.46,11.46,0,0,1,3.52.54,6.79,6.79,0,0,1,2.79,1.63,7.23,7.23,0,0,1,1.72,2.7,9.73,9.73,0,0,1,.61,3.51,8.25,8.25,0,0,1-.12,1.42H670.15c0,.74-.08,1.31-.08,1.7a8.75,8.75,0,0,0,.89,3.92,6.05,6.05,0,0,0,2.63,2.71,8.5,8.5,0,0,0,4,.92A20.2,20.2,0,0,0,684,305.5Zm-13.65-9.64h12.07a11.71,11.71,0,0,0-.16-2,5.68,5.68,0,0,0-.53-1.47,4,4,0,0,0-1-1.32,4.7,4.7,0,0,0-1.58-.85,6.38,6.38,0,0,0-2-.29,7.6,7.6,0,0,0-2.2.32,6.42,6.42,0,0,0-1.84.89,5.73,5.73,0,0,0-1.36,1.33,6.12,6.12,0,0,0-.83,1.47A14.22,14.22,0,0,0,670.31,295.86Z" transform="translate(0.26)"/><path class="cls-4" d="M438.1,346.19c-.19,1-.36,2-.5,3.18a37,37,0,0,1-7.31.81,18.24,18.24,0,0,1-5.71-.9,12.77,12.77,0,0,1-4.79-2.79,11.12,11.12,0,0,1-3-4.43,15.83,15.83,0,0,1-.93-5.47,18,18,0,0,1,1-6,12.62,12.62,0,0,1,3.13-4.91,13.5,13.5,0,0,1,5.06-3,19.24,19.24,0,0,1,6.21-1,33.26,33.26,0,0,1,6.94.73c0,.68.09,1.73.23,3.14a26.13,26.13,0,0,0-3.83-.92,19.94,19.94,0,0,0-3-.24,14.5,14.5,0,0,0-4.61.74,10.47,10.47,0,0,0-3.91,2.36,10.71,10.71,0,0,0-2.6,4,13.65,13.65,0,0,0-.9,4.91,13.85,13.85,0,0,0,.72,4.49,8.94,8.94,0,0,0,2.2,3.6,9.85,9.85,0,0,0,3.54,2.24,12.77,12.77,0,0,0,4.59.78A25.8,25.8,0,0,0,438.1,346.19Z" transform="translate(0.26)"/><path class="cls-4" d="M444.64,332.48c.13-.59.25-1.47.39-2.63a36.39,36.39,0,0,1,4.22-.86,26.21,26.21,0,0,1,3.49-.23,16.72,16.72,0,0,1,3.41.33,7,7,0,0,1,2.65,1.08,3.67,3.67,0,0,1,1.39,1.72,6.24,6.24,0,0,1,.35,2.09c0,.93-.07,2.49-.21,4.69s-.25,4.22-.33,6.08-.11,3.52-.11,5c-.73,0-1.32,0-1.78,0s-1.05,0-1.85,0l.44-5.53.3-6.53c-.47.36-.83.62-1.06.76a6,6,0,0,1-.8.42,10.09,10.09,0,0,1-1,.36c-.36.12-1.06.32-2.09.6s-1.77.5-2.2.65a12.85,12.85,0,0,0-2.21.89,6.68,6.68,0,0,0-1.36,1,3.16,3.16,0,0,0-.76,1.05,3.55,3.55,0,0,0-.27,1.36,3,3,0,0,0,.65,1.9,3.34,3.34,0,0,0,1.63,1.13,7.76,7.76,0,0,0,2.36.31,12.59,12.59,0,0,0,4.27-.73,20.72,20.72,0,0,0-.65,2.41,22.91,22.91,0,0,1-2.41.36c-.62,0-1.2.07-1.76.07a11.63,11.63,0,0,1-4.33-.65,4.62,4.62,0,0,1-2.33-2,5.65,5.65,0,0,1-.77-2.88,5,5,0,0,1,.27-1.68,5.67,5.67,0,0,1,.74-1.4,6.23,6.23,0,0,1,1.33-1.25,9.55,9.55,0,0,1,1.8-1c.63-.26,1.36-.53,2.2-.8s2.18-.61,4-1.06a15.24,15.24,0,0,0,1.52-.41q.63-.21,1.11-.42a3.43,3.43,0,0,0,1.52-1.14,2.76,2.76,0,0,0,.44-.8,2.32,2.32,0,0,0,.15-.81,2.44,2.44,0,0,0-.65-1.7,3.49,3.49,0,0,0-1.69-1,9.43,9.43,0,0,0-2.46-.29,17,17,0,0,0-2.71.22,19.76,19.76,0,0,0-2.39.5C446.48,331.8,445.64,332.09,444.64,332.48Z" transform="translate(0.26)"/><path class="cls-4" d="M466.29,349.73q1-12.69,1-20.51l1.82,0c.45,0,1,0,1.77,0l-.27,4c.34-.56.61-1,.81-1.3a6,6,0,0,1,.81-1,7.71,7.71,0,0,1,1.19-.94,7.13,7.13,0,0,1,1.62-.73,12.7,12.7,0,0,1,1.9-.43,12.37,12.37,0,0,1,1.91-.14,13.33,13.33,0,0,1,3.36.42,6.3,6.3,0,0,1,2.67,1.39,4.75,4.75,0,0,1,1.39,2.15,8.94,8.94,0,0,1,.36,2.58c0,.17,0,.51,0,1s0,1.15-.08,2l-.4,8.48c0,.82-.05,1.81-.06,3-.61,0-1.19,0-1.73,0s-1.28,0-1.86,0c.13-1.63.24-3.2.3-4.72l.27-4.71c.08-1.62.12-2.84.12-3.67a5.67,5.67,0,0,0-.61-2.84,3.88,3.88,0,0,0-1.94-1.64,7.4,7.4,0,0,0-3-.58,7.14,7.14,0,0,0-4,1.11,6.77,6.77,0,0,0-2.4,2.94,13.7,13.7,0,0,0-.83,4c-.2,2.12-.35,5.49-.43,10.1-.75,0-1.34,0-1.75,0S467.14,349.7,466.29,349.73Z" transform="translate(0.26)"/><path class="cls-4" d="M493.75,332.48c.12-.59.25-1.47.38-2.63a36.39,36.39,0,0,1,4.22-.86,26.36,26.36,0,0,1,3.5-.23,16.79,16.79,0,0,1,3.41.33,6.91,6.91,0,0,1,2.64,1.08,3.69,3.69,0,0,1,1.4,1.72,6.23,6.23,0,0,1,.34,2.09c0,.93-.07,2.49-.21,4.69s-.25,4.22-.32,6.08-.11,3.52-.11,5c-.73,0-1.33,0-1.79,0s-1,0-1.84,0l.43-5.53.31-6.53c-.48.36-.83.62-1.07.76a5.42,5.42,0,0,1-.8.42,8.46,8.46,0,0,1-1,.36c-.36.12-1.05.32-2.09.6s-1.76.5-2.19.65a12.52,12.52,0,0,0-2.21.89,6.41,6.41,0,0,0-1.36,1,3.2,3.2,0,0,0-.77,1.05,3.54,3.54,0,0,0-.26,1.36,3,3,0,0,0,.64,1.9,3.43,3.43,0,0,0,1.63,1.13,7.81,7.81,0,0,0,2.36.31,13.88,13.88,0,0,0,1.78-.12,13.71,13.71,0,0,0,2.49-.61,21.14,21.14,0,0,0-.64,2.41,23.3,23.3,0,0,1-2.41.36c-.62,0-1.21.07-1.76.07a11.69,11.69,0,0,1-4.34-.65,4.66,4.66,0,0,1-2.33-2,5.64,5.64,0,0,1-.76-2.88,5,5,0,0,1,.27-1.68,5.35,5.35,0,0,1,.74-1.4,6.16,6.16,0,0,1,1.32-1.25,10,10,0,0,1,1.81-1c.62-.26,1.36-.53,2.19-.8s2.18-.61,4-1.06a14.53,14.53,0,0,0,1.52-.41c.42-.14.79-.28,1.12-.42a4.06,4.06,0,0,0,.85-.47,3.81,3.81,0,0,0,.66-.67,2.56,2.56,0,0,0,.59-1.61,2.44,2.44,0,0,0-.65-1.7,3.45,3.45,0,0,0-1.69-1,9.33,9.33,0,0,0-2.46-.29,16.75,16.75,0,0,0-2.7.22,19.36,19.36,0,0,0-2.39.5C495.58,331.8,494.75,332.09,493.75,332.48Z" transform="translate(0.26)"/><path class="cls-4" d="M515.54,349.73q.4-6.24.79-14.78.25-6.21.38-12.85l1.88,0,1.81,0L519.77,334l-.44,12-.08,3.72c-.8,0-1.4,0-1.79,0Z" transform="translate(0.26)"/><path class="cls-4" d="M526,349.73l.35-5.1.39-8.71.17-6.7,1.86,0,1.82,0q-.22,3.16-.41,6.61c-.12,2.3-.22,4.82-.3,7.54s-.11,4.85-.11,6.36c-.85,0-1.46,0-1.83,0S526.91,349.7,526,349.73Zm.93-24.92q.06-1.9.06-2.88c.74,0,1.4,0,2,0,.72,0,1.37,0,2,0q0,.63-.12,2.88l-1.89,0Z" transform="translate(0.26)"/><path class="cls-4" d="M535.26,349.35l-.12-1.49c0-.16,0-.68-.16-1.55a14.63,14.63,0,0,0,5.75,1.36,6.4,6.4,0,0,0,2.33-.37,2.9,2.9,0,0,0,1.43-1.08,2.67,2.67,0,0,0,.47-1.48,2.83,2.83,0,0,0-.13-.85,3.35,3.35,0,0,0-.39-.81,5.28,5.28,0,0,0-.78-.87c-.35-.32-1.06-.91-2.15-1.79s-1.91-1.56-2.47-2.06a10.19,10.19,0,0,1-1.44-1.52,6,6,0,0,1-.88-1.56,4.69,4.69,0,0,1-.28-1.6,4.39,4.39,0,0,1,.82-2.51,4.93,4.93,0,0,1,2.37-1.82,10.23,10.23,0,0,1,3.63-.59,27.14,27.14,0,0,1,5.12.54c.06,1.06.13,2,.21,2.9a11.76,11.76,0,0,0-4.48-.93,7.47,7.47,0,0,0-2.21.31,2.8,2.8,0,0,0-1.5.94,2.23,2.23,0,0,0-.48,1.38,2.93,2.93,0,0,0,.16.93,3.36,3.36,0,0,0,.58,1,7.36,7.36,0,0,0,1,1c.39.34,1.17,1,2.34,1.91a29,29,0,0,1,2.4,2.06,9.87,9.87,0,0,1,1.11,1.38,5.36,5.36,0,0,1,.68,1.41,4.88,4.88,0,0,1,.21,1.42,4.55,4.55,0,0,1-.84,2.64,5.38,5.38,0,0,1-2.5,1.88,9.94,9.94,0,0,1-3.72.67c-.58,0-1.26,0-2.05-.11s-1.44-.17-2-.27S536.08,349.55,535.26,349.35Z" transform="translate(0.26)"/><path class="cls-4" d="M555,332.48c.12-.59.25-1.47.38-2.63a36.39,36.39,0,0,1,4.22-.86,26.36,26.36,0,0,1,3.5-.23,16.79,16.79,0,0,1,3.41.33,6.91,6.91,0,0,1,2.64,1.08,3.69,3.69,0,0,1,1.4,1.72,6.23,6.23,0,0,1,.34,2.09c0,.93-.07,2.49-.21,4.69s-.25,4.22-.32,6.08-.11,3.52-.11,5c-.73,0-1.33,0-1.79,0s-1,0-1.84,0l.43-5.53.31-6.53c-.48.36-.83.62-1.07.76a5.42,5.42,0,0,1-.8.42,8.46,8.46,0,0,1-1,.36c-.36.12-1,.32-2.09.6s-1.76.5-2.19.65a12.52,12.52,0,0,0-2.21.89,6.41,6.41,0,0,0-1.36,1,3.2,3.2,0,0,0-.77,1.05,3.54,3.54,0,0,0-.26,1.36,3,3,0,0,0,.64,1.9,3.43,3.43,0,0,0,1.63,1.13,7.81,7.81,0,0,0,2.36.31,13.88,13.88,0,0,0,1.78-.12,14.11,14.11,0,0,0,2.49-.61,21.14,21.14,0,0,0-.64,2.41,23.3,23.3,0,0,1-2.41.36c-.62,0-1.21.07-1.76.07a11.69,11.69,0,0,1-4.34-.65,4.66,4.66,0,0,1-2.33-2,5.65,5.65,0,0,1-.77-2.88,5,5,0,0,1,.28-1.68,5.35,5.35,0,0,1,.74-1.4,6.16,6.16,0,0,1,1.32-1.25,10,10,0,0,1,1.81-1c.62-.26,1.36-.53,2.19-.8s2.18-.61,4-1.06a14.53,14.53,0,0,0,1.52-.41q.63-.21,1.11-.42a3.9,3.9,0,0,0,.86-.47,3.81,3.81,0,0,0,.66-.67,2.56,2.56,0,0,0,.59-1.61,2.44,2.44,0,0,0-.65-1.7,3.45,3.45,0,0,0-1.69-1,9.33,9.33,0,0,0-2.46-.29,16.75,16.75,0,0,0-2.7.22,19.36,19.36,0,0,0-2.39.5C556.84,331.8,556,332.09,555,332.48Z" transform="translate(0.26)"/><path class="cls-4" d="M587.12,347.06c-.15.66-.31,1.54-.48,2.63a18.61,18.61,0,0,1-2.19.41c-.54,0-1.05.08-1.54.08a7.55,7.55,0,0,1-2.9-.46,3.36,3.36,0,0,1-1.69-1.46,5.25,5.25,0,0,1-.59-2.72c0-.15,0-.41,0-.79s.08-1.69.21-3.95l.49-9.07h-2.71q.09-.84.15-2.43h2.76c.06-.75.13-2,.2-3.86q1.9-.37,3.21-.69c-.09,2-.15,3.51-.16,4.55h5.63q-.1,1.27-.12,2.43H581.8l-.54,11.4,0,.87a5.69,5.69,0,0,0,.33,2.22,2.12,2.12,0,0,0,1,1.06,3.13,3.13,0,0,0,1.4.33,7.16,7.16,0,0,0,1.09-.09A18.51,18.51,0,0,0,587.12,347.06Z" transform="translate(0.26)"/><path class="cls-4" d="M591.24,349.73l.35-5.1.39-8.71.16-6.7,1.87,0,1.82,0q-.23,3.16-.41,6.61c-.13,2.3-.23,4.82-.3,7.54s-.12,4.85-.12,6.36c-.85,0-1.45,0-1.82,0S592.19,349.7,591.24,349.73Zm.93-24.92q.06-1.9.06-2.88c.74,0,1.4,0,2,0,.72,0,1.36,0,1.94,0q0,.63-.12,2.88l-1.88,0Z" transform="translate(0.26)"/><path class="cls-4" d="M611.71,328.76a13.5,13.5,0,0,1,4,.6,8.66,8.66,0,0,1,3.33,1.93,8.27,8.27,0,0,1,2.13,3.32,12.13,12.13,0,0,1,.73,4.23,13.79,13.79,0,0,1-.78,4.62A11,11,0,0,1,619,347.2a8.34,8.34,0,0,1-3.45,2.26,13,13,0,0,1-4.36.72,12.79,12.79,0,0,1-4.09-.65,8.63,8.63,0,0,1-3.33-2,8.75,8.75,0,0,1-2.13-3.37,12,12,0,0,1-.73-4.18,13,13,0,0,1,1.33-5.94,8.69,8.69,0,0,1,3.93-3.95A12.18,12.18,0,0,1,611.71,328.76Zm-.09,2.57a7.22,7.22,0,0,0-3.79,1,6.07,6.07,0,0,0-2.56,3.11,12.11,12.11,0,0,0-.83,4.52,10.25,10.25,0,0,0,.69,3.86,5.91,5.91,0,0,0,2.26,2.76,6.63,6.63,0,0,0,3.8,1.06,8.07,8.07,0,0,0,2.87-.52,5.7,5.7,0,0,0,2.37-1.71,7.66,7.66,0,0,0,1.49-2.93,13.1,13.1,0,0,0,.49-3.63,11,11,0,0,0-.49-3.34,5.6,5.6,0,0,0-1.48-2.5,5.7,5.7,0,0,0-2.27-1.33A8.9,8.9,0,0,0,611.62,331.33Z" transform="translate(0.26)"/><path class="cls-4" d="M626.83,349.73q1-12.69,1-20.51l1.83,0c.44,0,1,0,1.76,0l-.27,4c.34-.56.61-1,.81-1.3a6.63,6.63,0,0,1,2-1.91,7.13,7.13,0,0,1,1.62-.73,12.81,12.81,0,0,1,3.81-.57,13.33,13.33,0,0,1,3.36.42,6.2,6.2,0,0,1,2.66,1.39,4.78,4.78,0,0,1,1.4,2.15,9.3,9.3,0,0,1,.35,2.58c0,.17,0,.51,0,1s0,1.15-.08,2l-.4,8.48c0,.82,0,1.81-.06,3-.61,0-1.18,0-1.72,0s-1.29,0-1.87,0c.14-1.63.24-3.2.31-4.72l.26-4.71c.09-1.62.13-2.84.13-3.67a5.78,5.78,0,0,0-.61-2.84,4,4,0,0,0-2-1.64,7.4,7.4,0,0,0-3-.58,7.16,7.16,0,0,0-4,1.11,6.68,6.68,0,0,0-2.39,2.94,13.7,13.7,0,0,0-.83,4c-.21,2.12-.35,5.49-.44,10.1-.75,0-1.33,0-1.75,0S627.68,349.7,626.83,349.73Z" transform="translate(0.26)"/><path class="cls-4" d="M652,349.35l-.12-1.49c0-.16,0-.68-.16-1.55a14.63,14.63,0,0,0,5.75,1.36,6.36,6.36,0,0,0,2.33-.37,2.9,2.9,0,0,0,1.43-1.08,2.67,2.67,0,0,0,.47-1.48,2.83,2.83,0,0,0-.13-.85,3.35,3.35,0,0,0-.39-.81,5.28,5.28,0,0,0-.78-.87c-.35-.32-1.06-.91-2.15-1.79s-1.91-1.56-2.47-2.06a10.19,10.19,0,0,1-1.44-1.52,6,6,0,0,1-.88-1.56,4.69,4.69,0,0,1-.28-1.6,4.39,4.39,0,0,1,.82-2.51,4.93,4.93,0,0,1,2.37-1.82,10.23,10.23,0,0,1,3.63-.59,27.14,27.14,0,0,1,5.12.54c.06,1.06.13,2,.21,2.9a11.76,11.76,0,0,0-4.48-.93,7.47,7.47,0,0,0-2.21.31,2.8,2.8,0,0,0-1.5.94,2.23,2.23,0,0,0-.48,1.38,2.93,2.93,0,0,0,.16.93,3.36,3.36,0,0,0,.58,1,7.36,7.36,0,0,0,1,1c.39.34,1.17,1,2.34,1.91a29,29,0,0,1,2.4,2.06,9.87,9.87,0,0,1,1.11,1.38,5.36,5.36,0,0,1,.68,1.41,4.88,4.88,0,0,1,.21,1.42,4.55,4.55,0,0,1-.84,2.64,5.38,5.38,0,0,1-2.5,1.88,9.94,9.94,0,0,1-3.72.67c-.58,0-1.26,0-2-.11s-1.44-.17-2-.27S652.86,349.55,652,349.35Z" transform="translate(0.26)"/><path class="cls-4" d="M681.47,358.88q.4-5.22.76-14.21t.4-14.7c2.21-.47,4-.79,5.31-1a31.59,31.59,0,0,1,4-.25,13.76,13.76,0,0,1,5.49,1,7.27,7.27,0,0,1,3.62,3.52,12.33,12.33,0,0,1,1.29,5.7,15.12,15.12,0,0,1-.6,4.26,11.3,11.3,0,0,1-1.86,3.68,8,8,0,0,1-3,2.44,9.27,9.27,0,0,1-3.93.82,9.77,9.77,0,0,1-2.49-.32,8.2,8.2,0,0,1-2.07-.82,6,6,0,0,1-1.48-1.13,14.94,14.94,0,0,1-1.45-1.88l-.25,8c-.05,1.31-.08,2.26-.08,2.84v2c-.69,0-1.29,0-1.79,0S682.24,358.86,681.47,358.88Zm4.64-26.5-.14,1.54-.11,2.11q-.08,1.65-.12,2.7c0,.69,0,1.18,0,1.47A12.33,12.33,0,0,0,686,343a5.75,5.75,0,0,0,1.25,2.44,6.2,6.2,0,0,0,2.22,1.67,6.39,6.39,0,0,0,2.63.57,5.94,5.94,0,0,0,3.45-1.06,6.84,6.84,0,0,0,2.42-3.13,11.72,11.72,0,0,0,.87-4.56,9.36,9.36,0,0,0-.91-4.29,5.69,5.69,0,0,0-2.45-2.6,7.35,7.35,0,0,0-3.48-.8A17.74,17.74,0,0,0,686.11,332.38Z" transform="translate(0.26)"/><path class="cls-4" d="M717.55,328.76a13.5,13.5,0,0,1,4.05.6,8.66,8.66,0,0,1,3.33,1.93,8.4,8.4,0,0,1,2.14,3.32,12.37,12.37,0,0,1,.73,4.23,13.79,13.79,0,0,1-.78,4.62,10.81,10.81,0,0,1-2.19,3.74,8.31,8.31,0,0,1-3.44,2.26,13,13,0,0,1-4.36.72,12.75,12.75,0,0,1-4.09-.65,8.48,8.48,0,0,1-3.33-2,8.89,8.89,0,0,1-2.14-3.37,12.21,12.21,0,0,1-.73-4.18,13,13,0,0,1,1.34-5.94,8.69,8.69,0,0,1,3.93-3.95A12.11,12.11,0,0,1,717.55,328.76Zm-.09,2.57a7.24,7.24,0,0,0-3.79,1,6.17,6.17,0,0,0-2.56,3.11,12.11,12.11,0,0,0-.82,4.52,10.25,10.25,0,0,0,.68,3.86,5.93,5.93,0,0,0,2.27,2.76,6.61,6.61,0,0,0,3.8,1.06,8.11,8.11,0,0,0,2.87-.52,5.67,5.67,0,0,0,2.36-1.71,7.54,7.54,0,0,0,1.5-2.93,13.48,13.48,0,0,0,.48-3.63,11.28,11.28,0,0,0-.48-3.34,5.58,5.58,0,0,0-3.75-3.83A9,9,0,0,0,717.46,331.33Z" transform="translate(0.26)"/><path class="cls-4" d="M731.85,349.35l-.12-1.49c0-.16-.06-.68-.16-1.55a14.56,14.56,0,0,0,5.75,1.36,6.34,6.34,0,0,0,2.32-.37,2.85,2.85,0,0,0,1.43-1.08,2.6,2.6,0,0,0,.48-1.48,3.19,3.19,0,0,0-.13-.85,3.05,3.05,0,0,0-.4-.81,4.49,4.49,0,0,0-.78-.87c-.34-.32-1.06-.91-2.14-1.79s-1.91-1.56-2.47-2.06a10.19,10.19,0,0,1-1.44-1.52,5.72,5.72,0,0,1-.88-1.56,4.7,4.7,0,0,1-.29-1.6,4.46,4.46,0,0,1,.82-2.51,4.93,4.93,0,0,1,2.37-1.82,10.33,10.33,0,0,1,3.64-.59,27.14,27.14,0,0,1,5.12.54c0,1.06.12,2,.2,2.9a11.71,11.71,0,0,0-4.47-.93,7.49,7.49,0,0,0-2.22.31,2.88,2.88,0,0,0-1.5.94,2.28,2.28,0,0,0-.47,1.38,2.68,2.68,0,0,0,.16.93,3.36,3.36,0,0,0,.58,1,6.83,6.83,0,0,0,1,1c.39.34,1.17,1,2.34,1.91s2,1.62,2.4,2.06a9.87,9.87,0,0,1,1.11,1.38,5.69,5.69,0,0,1,.68,1.41A4.88,4.88,0,0,1,745,345a4.55,4.55,0,0,1-.84,2.64,5.43,5.43,0,0,1-2.5,1.88,10,10,0,0,1-3.73.67c-.58,0-1.26,0-2-.11s-1.45-.17-2-.27S732.66,349.55,731.85,349.35Z" transform="translate(0.26)"/><path class="cls-4" d="M767.08,346.51c-.16.74-.32,1.69-.48,2.84a27.89,27.89,0,0,1-3.37.65,22.84,22.84,0,0,1-2.85.18,15.83,15.83,0,0,1-4.54-.61,7.72,7.72,0,0,1-3.46-2.12,9,9,0,0,1-2.06-3.45,13.19,13.19,0,0,1-.63-4.11,13.72,13.72,0,0,1,1.15-5.6,9.13,9.13,0,0,1,3.48-4.06,10.77,10.77,0,0,1,5.88-1.47,11.72,11.72,0,0,1,3.52.53,7,7,0,0,1,2.8,1.63,7.45,7.45,0,0,1,1.72,2.71,10,10,0,0,1,.6,3.51,8.25,8.25,0,0,1-.12,1.42H753.27c0,.74-.08,1.31-.08,1.7a8.7,8.7,0,0,0,.89,3.91,6.09,6.09,0,0,0,2.64,2.72,8.46,8.46,0,0,0,4,.92A19.92,19.92,0,0,0,767.08,346.51Zm-13.64-9.63H765.5a10.86,10.86,0,0,0-.16-2,5.58,5.58,0,0,0-.53-1.47,4.1,4.1,0,0,0-1-1.31,4.44,4.44,0,0,0-1.58-.85,6.38,6.38,0,0,0-2-.3,7.28,7.28,0,0,0-2.2.33,6.29,6.29,0,0,0-1.84.89,6.1,6.1,0,0,0-1.36,1.32A6.94,6.94,0,0,0,754,335,13.59,13.59,0,0,0,753.44,336.88Zm4.65-10.33,1.87-5.3c.66,0,1.34,0,2,0s1.32,0,2.07,0c-.9,1.25-2.06,3-3.51,5.3-.38,0-.79,0-1.25,0S758.46,326.52,758.09,326.55Z" transform="translate(0.26)"/><path class="cls-4" d="M790.13,346.51c-.17.74-.33,1.69-.49,2.84a27.89,27.89,0,0,1-3.37.65,22.72,22.72,0,0,1-2.85.18,15.88,15.88,0,0,1-4.54-.61,7.69,7.69,0,0,1-3.45-2.12,8.86,8.86,0,0,1-2.07-3.45,13.19,13.19,0,0,1-.63-4.11,13.56,13.56,0,0,1,1.16-5.6,9.11,9.11,0,0,1,3.47-4.06,10.82,10.82,0,0,1,5.88-1.47,11.72,11.72,0,0,1,3.52.53,6.94,6.94,0,0,1,2.8,1.63,7.45,7.45,0,0,1,1.72,2.71,10,10,0,0,1,.61,3.51,7.35,7.35,0,0,1-.13,1.42H776.32c-.06.74-.08,1.31-.08,1.7a8.57,8.57,0,0,0,.89,3.91,6,6,0,0,0,2.63,2.72,8.5,8.5,0,0,0,4,.92A20,20,0,0,0,790.13,346.51Zm-13.65-9.63h12.07a11.66,11.66,0,0,0-.17-2,5.91,5.91,0,0,0-.52-1.47,4.4,4.4,0,0,0-1-1.31,4.53,4.53,0,0,0-1.58-.85,6.45,6.45,0,0,0-2-.3,7.28,7.28,0,0,0-2.2.33,6.42,6.42,0,0,0-1.84.89,6,6,0,0,0-1.35,1.32A6.16,6.16,0,0,0,777,335,13.42,13.42,0,0,0,776.48,336.88Z" transform="translate(0.26)"/><path class="cls-4" d="M795.43,349.35l-.12-1.49c0-.16,0-.68-.16-1.55a14.63,14.63,0,0,0,5.75,1.36,6.4,6.4,0,0,0,2.33-.37,2.9,2.9,0,0,0,1.43-1.08,2.67,2.67,0,0,0,.47-1.48,2.83,2.83,0,0,0-.13-.85,3.35,3.35,0,0,0-.39-.81,5.28,5.28,0,0,0-.78-.87c-.35-.32-1.06-.91-2.15-1.79s-1.91-1.56-2.47-2.06a10.19,10.19,0,0,1-1.44-1.52,5.72,5.72,0,0,1-.88-1.56,4.69,4.69,0,0,1-.28-1.6,4.39,4.39,0,0,1,.82-2.51,4.84,4.84,0,0,1,2.37-1.82,10.23,10.23,0,0,1,3.63-.59,27.14,27.14,0,0,1,5.12.54c.06,1.06.12,2,.21,2.9a11.79,11.79,0,0,0-4.48-.93,7.54,7.54,0,0,0-2.22.31,2.81,2.81,0,0,0-1.49.94,2.23,2.23,0,0,0-.48,1.38,2.68,2.68,0,0,0,.16.93,3.36,3.36,0,0,0,.58,1,7.36,7.36,0,0,0,1,1c.39.34,1.17,1,2.34,1.91a29,29,0,0,1,2.4,2.06,9.87,9.87,0,0,1,1.11,1.38,5.36,5.36,0,0,1,.68,1.41,4.88,4.88,0,0,1,.21,1.42,4.55,4.55,0,0,1-.84,2.64,5.38,5.38,0,0,1-2.5,1.88,10,10,0,0,1-3.72.67c-.58,0-1.26,0-2-.11s-1.44-.17-2-.27S796.24,349.55,795.43,349.35Z" transform="translate(0.26)"/><line class="cls-5" x1="393.85" y1="42.24" x2="393.85" y2="367.71"/><path class="cls-2" d="M311,212.53c0,.22,0,.44,0,.67a7.95,7.95,0,0,0,15.89,0c0-.22,0-.51,0-.72C326.8,212.46,311,212.53,311,212.53Z" transform="translate(0.26)"/><rect class="cls-6" x="309.1" y="210.18" width="20.06" height="1.7" rx="0.19" ry="0.19"/><path class="cls-2" d="M322.77,202.85v1.72a.66.66,0,1,1-1.32,0v-2.22a8.62,8.62,0,0,0-1.86-.35v2.57a.66.66,0,0,1-.66.66.65.65,0,0,1-.65-.66V202a9.49,9.49,0,0,0-1.87.32v2.26a.66.66,0,0,1-.66.66.65.65,0,0,1-.65-.66v-1.78a9.12,9.12,0,0,0-5.28,7.39h18.11A9.14,9.14,0,0,0,322.77,202.85Z" transform="translate(0.26)"/><path class="cls-2" d="M333.81,223.37H303.7c-4.79,0-7.27,2.54-7.27,7.33v31.9c0,2.26,2.41,4.11,4.68,4.11s4.67-1.85,4.67-4.11v-27c0-.54.68-1,.94-1a1.12,1.12,0,0,1,.93,1v70a4.68,4.68,0,1,0,9.35,0V266.29a1.72,1.72,0,0,1,1.44-1.78h.87a1.71,1.71,0,0,1,1.43,1.78v39.37a4.68,4.68,0,1,0,9.35,0v-70c0-.59.71-1,.94-1a1.15,1.15,0,0,1,.93,1v27c0,2.26,2.41,4.11,4.68,4.11s4.67-1.85,4.67-4.11V230.7C341.31,225.91,338.6,223.37,333.81,223.37Z" transform="translate(0.26)"/><rect class="cls-7" x="311.18" y="237.61" width="15.9" height="9.85"/><rect class="cls-7" x="308.65" y="223.3" width="3.16" height="8.91"/><rect class="cls-7" x="308.31" y="232.53" width="3.83" height="3.05"/><rect class="cls-7" x="326.84" y="223.3" width="3.16" height="8.91"/><rect class="cls-7" x="326.5" y="232.53" width="3.83" height="3.05"/><path class="cls-2" d="M243.74,212.53c0,.22,0,.44,0,.67a8,8,0,0,0,15.9,0c0-.22,0-.51,0-.72C259.58,212.46,243.74,212.53,243.74,212.53Z" transform="translate(0.26)"/><rect class="cls-6" x="241.89" y="210.18" width="20.06" height="1.7" rx="0.19" ry="0.19"/><path class="cls-2" d="M255.56,202.85v1.72a.66.66,0,0,1-1.32,0v-2.22a8.86,8.86,0,0,0-1.86-.35v2.57a.66.66,0,0,1-1.32,0V202a9.52,9.52,0,0,0-1.86.32v2.26a.66.66,0,0,1-1.32,0v-1.78a9.13,9.13,0,0,0-5.27,7.39h18.11A9.14,9.14,0,0,0,255.56,202.85Z" transform="translate(0.26)"/><path class="cls-2" d="M266.6,223.37H236.49c-4.79,0-7.27,2.54-7.27,7.33v31.9c0,2.26,2.41,4.11,4.68,4.11s4.67-1.85,4.67-4.11v-27c0-.54.68-1,.94-1a1.12,1.12,0,0,1,.93,1v70a4.68,4.68,0,1,0,9.35,0V266.29a1.72,1.72,0,0,1,1.44-1.78h.87a1.71,1.71,0,0,1,1.43,1.78v39.37a4.68,4.68,0,1,0,9.35,0v-70c0-.59.71-1,.94-1a1.15,1.15,0,0,1,.93,1v27c0,2.26,2.41,4.11,4.68,4.11s4.67-1.85,4.67-4.11V230.7C274.1,225.91,271.39,223.37,266.6,223.37Z" transform="translate(0.26)"/><rect class="cls-7" x="243.97" y="237.61" width="15.9" height="9.85"/><rect class="cls-7" x="241.43" y="223.3" width="3.16" height="8.91"/><rect class="cls-7" x="241.1" y="232.53" width="3.83" height="3.05"/><rect class="cls-7" x="259.63" y="223.3" width="3.16" height="8.91"/><rect class="cls-7" x="259.29" y="232.53" width="3.83" height="3.05"/><path class="cls-8" d="M338.23,268.5H230.42a6.64,6.64,0,0,1-6.62-6.62h0a6.49,6.49,0,0,1,6.47-6.47h108a6.49,6.49,0,0,1,6.47,6.47V262A6.49,6.49,0,0,1,338.23,268.5Z" transform="translate(0.26)"/><circle class="cls-9" cx="230.59" cy="261.96" r="6.55"/><path class="cls-10" d="M24.49,227.94H190A14.36,14.36,0,0,1,202.13,236c4,8.09,25.08,67,25.08,67s4,8.09,12.13,8.09h96.51" transform="translate(0.26)"/><path class="cls-11" d="M53.61,228.24V75.89s0-22.4,26.89-17.92c0,0,4.48,22.4-17.93,22.4" transform="translate(0.26)"/><line class="cls-12" x1="58.35" y1="75.89" x2="76.27" y2="62.45"/><path class="cls-11" d="M53.61,111.74v-9s0-22.41-26.88-17.93c0,0-4.48,22.41,17.92,22.41" transform="translate(0.26)"/><line class="cls-12" x1="49.39" y1="102.78" x2="31.46" y2="89.33"/><path class="cls-11" d="M53.61,156.55v-9s0-22.4-26.88-17.92c0,0-4.48,22.41,17.92,22.41" transform="translate(0.26)"/><line class="cls-12" x1="49.39" y1="147.58" x2="31.46" y2="134.14"/><path class="cls-11" d="M53.61,125.18v-9s0-22.41,26.89-17.92c0,0,4.48,22.4-17.93,22.4" transform="translate(0.26)"/><line class="cls-12" x1="58.35" y1="116.22" x2="76.27" y2="102.78"/><path class="cls-11" d="M120.82,228.24V75.89s0-22.4,26.89-17.92c0,0,4.48,22.4-17.92,22.4" transform="translate(0.26)"/><line class="cls-12" x1="125.56" y1="75.89" x2="143.49" y2="62.45"/><path class="cls-11" d="M120.82,111.74v-9s0-22.41-26.88-17.93c0,0-4.48,22.41,17.92,22.41" transform="translate(0.26)"/><line class="cls-12" x1="116.6" y1="102.78" x2="98.68" y2="89.33"/><path class="cls-11" d="M120.82,156.55v-9s0-22.4-26.88-17.92c0,0-4.48,22.41,17.92,22.41" transform="translate(0.26)"/><line class="cls-12" x1="116.6" y1="147.58" x2="98.68" y2="134.14"/><path class="cls-11" d="M120.82,125.18v-9s0-22.41,26.89-17.92c0,0,4.48,22.4-17.92,22.4" transform="translate(0.26)"/><line class="cls-12" x1="125.56" y1="116.22" x2="143.49" y2="102.78"/><path class="cls-11" d="M188,228.24V75.89s0-22.4,26.88-17.92c0,0,4.48,22.4-17.92,22.4" transform="translate(0.26)"/><line class="cls-12" x1="192.77" y1="75.89" x2="210.7" y2="62.45"/><path class="cls-11" d="M188,111.74v-9s0-22.41-26.89-17.93c0,0-4.48,22.41,17.92,22.41" transform="translate(0.26)"/><line class="cls-12" x1="183.81" y1="102.78" x2="165.89" y2="89.33"/><path class="cls-11" d="M188,156.55v-9s0-22.4-26.89-17.92c0,0-4.48,22.41,17.92,22.41" transform="translate(0.26)"/><line class="cls-12" x1="183.81" y1="147.58" x2="165.89" y2="134.14"/><path class="cls-11" d="M188,125.18v-9s0-22.41,26.88-17.92c0,0,4.48,22.4-17.92,22.4" transform="translate(0.26)"/><line class="cls-12" x1="192.77" y1="116.22" x2="210.7" y2="102.78"/></svg>