<svg id="Layer_1" data-name="Layer 1" xmlns="http://www.w3.org/2000/svg" viewBox="0 0 865 402"><defs><style>.cls-1,.cls-5{fill:none;}.cls-2{fill:#eb1c24;}.cls-3{fill:#808083;}.cls-4{fill:#0060ad;}.cls-5{stroke:#eb1c24;stroke-miterlimit:10;stroke-width:2.95px;}.cls-6{fill:#0060ae;}.cls-7{fill:#fff;}.cls-8{fill:#0060aa;}</style></defs><title>Chiffre 06</title><rect class="cls-1" width="865" height="402"/><path class="cls-2" d="M524.49,189.19h-.28l-15.34,10.73c-1,.63-1.49.36-1.49-.82v-10a2.44,2.44,0,0,1,.95-1.9l15.88-11.54a3.24,3.24,0,0,1,2.18-.82h8.14a1.21,1.21,0,0,1,1.36,1.36v89.6a1.2,1.2,0,0,1-1.36,1.35h-8.69a1.19,1.19,0,0,1-1.35-1.35Z" transform="translate(-1.21)"/><path class="cls-2" d="M561.41,249.06a1.41,1.41,0,0,1,1.09-1.63l8.28-2c.81-.27,1.35.05,1.63,1a18.83,18.83,0,0,0,2,4.28,15,15,0,0,0,3.26,3.73,16,16,0,0,0,4.75,2.65,18.74,18.74,0,0,0,6.45,1q7.47,0,11.68-4.62a16.65,16.65,0,0,0,4.2-11.67q0-7.74-4.61-12.42t-12.35-4.69h-4.08a1.2,1.2,0,0,1-1.36-1.35v-7.88a1.2,1.2,0,0,1,1.36-1.35h3.94q6.92,0,11.13-4.21T603,198.56A14.58,14.58,0,0,0,599,188q-3.93-4.07-10.86-4.07-6.51,0-10,3.26a16.43,16.43,0,0,0-4.68,8,1.41,1.41,0,0,1-1.63,1.08l-8.14-2a1.22,1.22,0,0,1-1.09-1.62,21.61,21.61,0,0,1,2.78-7.33,23.1,23.1,0,0,1,5.37-6.18,25.28,25.28,0,0,1,7.73-4.21,33.36,33.36,0,0,1,21,.27,23.42,23.42,0,0,1,8.21,5.16,22.09,22.09,0,0,1,5.16,7.94,28.08,28.08,0,0,1,1.76,10,20.9,20.9,0,0,1-3.32,11.88,27,27,0,0,1-8.08,7.94v.27a19.14,19.14,0,0,1,4.48,2.85,21.07,21.07,0,0,1,4.21,4.82,29.87,29.87,0,0,1,3.19,6.72,26.48,26.48,0,0,1,1.29,8.55,29.29,29.29,0,0,1-2,11.13,25,25,0,0,1-5.7,8.62,25.3,25.3,0,0,1-8.76,5.57,30.44,30.44,0,0,1-11.06,2q-11.26,0-18.39-5.5A23.81,23.81,0,0,1,561.41,249.06Z" transform="translate(-1.21)"/><path class="cls-2" d="M646.39,189.19h-.27l-15.34,10.73c-1,.63-1.5.36-1.5-.82v-10a2.44,2.44,0,0,1,1-1.9l15.89-11.54a3.21,3.21,0,0,1,2.17-.82h8.15a1.2,1.2,0,0,1,1.35,1.36v89.6a1.19,1.19,0,0,1-1.35,1.35h-8.69a1.2,1.2,0,0,1-1.36-1.35Z" transform="translate(-1.21)"/><path class="cls-2" d="M683.31,249.06a1.41,1.41,0,0,1,1.09-1.63l8.28-2c.82-.27,1.36.05,1.63,1a18.88,18.88,0,0,0,2,4.28,14.79,14.79,0,0,0,3.26,3.73,15.85,15.85,0,0,0,4.75,2.65,18.66,18.66,0,0,0,6.45,1q7.46,0,11.67-4.62a16.66,16.66,0,0,0,4.21-11.67q0-7.74-4.62-12.42t-12.35-4.69h-4.07a1.2,1.2,0,0,1-1.36-1.35v-7.88a1.2,1.2,0,0,1,1.36-1.35h3.93q6.93,0,11.14-4.21t4.2-11.27A14.61,14.61,0,0,0,720.92,188q-3.95-4.07-10.86-4.07-6.52,0-10,3.26a16.28,16.28,0,0,0-4.68,8,1.42,1.42,0,0,1-1.63,1.08l-8.15-2a1.21,1.21,0,0,1-1.08-1.62,21.4,21.4,0,0,1,2.78-7.33,23.07,23.07,0,0,1,5.36-6.18,25.22,25.22,0,0,1,7.74-4.21,33.33,33.33,0,0,1,21,.27,23.42,23.42,0,0,1,8.21,5.16,21.83,21.83,0,0,1,5.16,7.94,27.86,27.86,0,0,1,1.77,10,20.83,20.83,0,0,1-3.33,11.88,27,27,0,0,1-8.08,7.94v.27a18.94,18.94,0,0,1,4.48,2.85,21.07,21.07,0,0,1,4.21,4.82,29.87,29.87,0,0,1,3.19,6.72,26.48,26.48,0,0,1,1.29,8.55,29.49,29.49,0,0,1-2,11.13,25.15,25.15,0,0,1-5.7,8.62,25.48,25.48,0,0,1-8.76,5.57,30.44,30.44,0,0,1-11.06,2q-11.28,0-18.4-5.5A23.85,23.85,0,0,1,683.31,249.06Z" transform="translate(-1.21)"/><path class="cls-3" d="M515.43,302.51c-.19,1-.36,2-.51,3.17a36.64,36.64,0,0,1-7.28.81,18.16,18.16,0,0,1-5.69-.9,12.78,12.78,0,0,1-4.77-2.77,11.11,11.11,0,0,1-2.95-4.42,15.76,15.76,0,0,1-.93-5.45,17.59,17.59,0,0,1,1-6,12.47,12.47,0,0,1,3.11-4.89,13.44,13.44,0,0,1,5.05-3,19.33,19.33,0,0,1,6.18-1,33.83,33.83,0,0,1,6.92.73c0,.68.09,1.72.22,3.13A25.66,25.66,0,0,0,512,281a19.75,19.75,0,0,0-3-.23,14.43,14.43,0,0,0-4.6.73,10.45,10.45,0,0,0-3.89,2.35,10.65,10.65,0,0,0-2.59,4,13.54,13.54,0,0,0-.9,4.89,13.84,13.84,0,0,0,.72,4.48,8.93,8.93,0,0,0,2.2,3.58,9.91,9.91,0,0,0,3.52,2.24,12.66,12.66,0,0,0,4.57.78A25.78,25.78,0,0,0,515.43,302.51Z" transform="translate(-1.21)"/><path class="cls-3" d="M529.79,285.14a13.44,13.44,0,0,1,4,.61,8.48,8.48,0,0,1,3.32,1.92,8.29,8.29,0,0,1,2.12,3.3,12.16,12.16,0,0,1,.73,4.22,13.63,13.63,0,0,1-.78,4.6,10.63,10.63,0,0,1-2.17,3.73,8.32,8.32,0,0,1-3.43,2.25,13,13,0,0,1-4.35.72,12.73,12.73,0,0,1-4.08-.65,8.67,8.67,0,0,1-3.32-2,9,9,0,0,1-2.12-3.36,12,12,0,0,1-.73-4.17,12.89,12.89,0,0,1,1.33-5.92,8.63,8.63,0,0,1,3.92-3.93A12.06,12.06,0,0,1,529.79,285.14Zm-.09,2.57a7.21,7.21,0,0,0-3.78,1,6.09,6.09,0,0,0-2.54,3.09,12.06,12.06,0,0,0-.83,4.51,10.11,10.11,0,0,0,.69,3.84,5.83,5.83,0,0,0,2.25,2.76,6.67,6.67,0,0,0,3.79,1.05,7.8,7.8,0,0,0,2.86-.52,5.74,5.74,0,0,0,2.36-1.7,7.83,7.83,0,0,0,1.49-2.92,13.41,13.41,0,0,0,.48-3.62,11.26,11.26,0,0,0-.48-3.33,5.51,5.51,0,0,0-3.74-3.81A8.57,8.57,0,0,0,529.7,287.71Z" transform="translate(-1.21)"/><path class="cls-3" d="M544,306c.26-4.14.53-9.05.78-14.72q.25-6.19.38-12.81l1.88,0,1.8,0-.63,11.84-.44,12-.08,3.71-1.78,0Z" transform="translate(-1.21)"/><path class="cls-3" d="M553.24,306c.26-4.14.53-9.05.78-14.72q.26-6.19.38-12.81l1.88,0,1.8,0-.63,11.84-.44,12-.08,3.71-1.78,0Z" transform="translate(-1.21)"/><path class="cls-3" d="M563.77,288.86c.12-.6.24-1.47.38-2.63a35.21,35.21,0,0,1,4.21-.85,26.11,26.11,0,0,1,3.48-.24,16.67,16.67,0,0,1,3.4.34,6.93,6.93,0,0,1,2.63,1.08,3.6,3.6,0,0,1,1.39,1.71,6.17,6.17,0,0,1,.34,2.08c0,.93-.07,2.48-.21,4.67s-.25,4.21-.32,6.06-.11,3.51-.11,5c-.73,0-1.32,0-1.78,0l-1.83,0,.42-5.5.31-6.52c-.47.36-.82.62-1.06.77a5.42,5.42,0,0,1-.8.41,8.46,8.46,0,0,1-1,.36c-.35.12-1,.32-2.08.6s-1.75.5-2.19.65a13.12,13.12,0,0,0-2.2.88,6.6,6.6,0,0,0-1.35,1,3.35,3.35,0,0,0-.77,1,3.64,3.64,0,0,0-.26,1.35A3,3,0,0,0,565,303a3.33,3.33,0,0,0,1.62,1.12,7.74,7.74,0,0,0,2.35.31,13.88,13.88,0,0,0,1.78-.12,15,15,0,0,0,2.48-.61,20.16,20.16,0,0,0-.65,2.41c-1,.18-1.78.3-2.4.35s-1.2.07-1.75.07a11.54,11.54,0,0,1-4.32-.65,4.61,4.61,0,0,1-2.32-2,5.65,5.65,0,0,1-.77-2.88,5,5,0,0,1,.27-1.67,5.67,5.67,0,0,1,.74-1.4,6.41,6.41,0,0,1,1.32-1.25,8.94,8.94,0,0,1,1.8-1,21.27,21.27,0,0,1,2.19-.8c.83-.26,2.17-.62,4-1.06a14.53,14.53,0,0,0,1.52-.41c.41-.15.78-.28,1.11-.42a3.75,3.75,0,0,0,.84-.47,3.27,3.27,0,0,0,.67-.67A2.85,2.85,0,0,0,576,291a2.3,2.3,0,0,0,.14-.81,2.43,2.43,0,0,0-.64-1.7,3.36,3.36,0,0,0-1.69-1,9.3,9.3,0,0,0-2.45-.29,17.91,17.91,0,0,0-2.69.21,19,19,0,0,0-2.38.51C565.59,288.17,564.76,288.47,563.77,288.86Z" transform="translate(-1.21)"/><path class="cls-3" d="M584.53,306l.18-2.25q0-.62.12-2.28l.56-13.68.24-9.32,1.92,0,1.8,0q-.29,2.58-.51,7.42c1.42-.31,2.57-.52,3.47-.62a22,22,0,0,1,2.67-.17,14.13,14.13,0,0,1,4.47.65,6.91,6.91,0,0,1,3.2,2.14,8.91,8.91,0,0,1,1.79,3.29A13.49,13.49,0,0,1,605,295a15.74,15.74,0,0,1-.63,4.45,11.78,11.78,0,0,1-1.92,3.81,7.51,7.51,0,0,1-3.12,2.43,10.31,10.31,0,0,1-4,.77,9.69,9.69,0,0,1-2.2-.25,7.89,7.89,0,0,1-1.86-.7,6,6,0,0,1-1.4-1,6.87,6.87,0,0,1-1-1.13,13.51,13.51,0,0,1-.83-1.55L588,306l-1.66,0Zm4.11-17.41c-.09,2.24-.16,3.72-.2,4.43s-.06,1.57-.06,2.56a12.68,12.68,0,0,0,.73,4.87,5.31,5.31,0,0,0,2.17,2.57,6.69,6.69,0,0,0,6.93-.2,6.84,6.84,0,0,0,2.37-3.26,12.41,12.41,0,0,0,.85-4.55,8,8,0,0,0-1.76-5.37,6.68,6.68,0,0,0-5.31-2,17.48,17.48,0,0,0-2.55.2A24,24,0,0,0,588.64,288.63Z" transform="translate(-1.21)"/><path class="cls-3" d="M619.08,285.14a13.44,13.44,0,0,1,4,.61,8.48,8.48,0,0,1,3.32,1.92,8.29,8.29,0,0,1,2.12,3.3,12.16,12.16,0,0,1,.73,4.22,13.63,13.63,0,0,1-.78,4.6,10.63,10.63,0,0,1-2.17,3.73,8.32,8.32,0,0,1-3.43,2.25,13,13,0,0,1-4.35.72,12.73,12.73,0,0,1-4.08-.65,8.74,8.74,0,0,1-3.32-2,9,9,0,0,1-2.12-3.36,12,12,0,0,1-.73-4.17,12.89,12.89,0,0,1,1.33-5.92,8.63,8.63,0,0,1,3.92-3.93A12.06,12.06,0,0,1,619.08,285.14Zm-.09,2.57a7.21,7.21,0,0,0-3.78,1,6.09,6.09,0,0,0-2.54,3.09,12.06,12.06,0,0,0-.83,4.51,10.11,10.11,0,0,0,.69,3.84,5.83,5.83,0,0,0,2.25,2.76,6.67,6.67,0,0,0,3.79,1.05,7.8,7.8,0,0,0,2.86-.52,5.74,5.74,0,0,0,2.36-1.7,7.83,7.83,0,0,0,1.49-2.92,13.41,13.41,0,0,0,.48-3.62,11.26,11.26,0,0,0-.48-3.33,5.51,5.51,0,0,0-3.74-3.81A8.57,8.57,0,0,0,619,287.71Z" transform="translate(-1.21)"/><path class="cls-3" d="M633.18,306q.74-11.62.73-18.58l0-1.85,1.69,0,1.72,0-.16,3.35a12.79,12.79,0,0,1,1.32-1.89,5.45,5.45,0,0,1,1.3-1.05,6.59,6.59,0,0,1,1.65-.64,7.44,7.44,0,0,1,1.9-.24,6.84,6.84,0,0,1,1.68.21c0,.88.06,1.88.14,3a8.53,8.53,0,0,0-2.24-.34,5.59,5.59,0,0,0-2.14.39,4.91,4.91,0,0,0-1.7,1.19,6.36,6.36,0,0,0-1.24,1.91,8.69,8.69,0,0,0-.62,2.3c-.14.94-.25,2.66-.33,5.14-.06,1.82-.08,3.74-.08,5.77V306c-.73,0-1.31,0-1.76,0Z" transform="translate(-1.21)"/><path class="cls-3" d="M649,288.86c.12-.6.25-1.47.38-2.63a36,36,0,0,1,4.21-.85,26.11,26.11,0,0,1,3.48-.24,16.67,16.67,0,0,1,3.4.34,6.86,6.86,0,0,1,2.63,1.08,3.54,3.54,0,0,1,1.39,1.71,6.18,6.18,0,0,1,.35,2.08c0,.93-.07,2.48-.21,4.67s-.25,4.21-.32,6.06-.11,3.51-.11,5c-.73,0-1.32,0-1.78,0l-1.84,0,.43-5.5.31-6.52c-.48.36-.83.62-1.06.77a6.64,6.64,0,0,1-.8.41,9.2,9.2,0,0,1-1,.36c-.36.12-1.05.32-2.08.6s-1.76.5-2.19.65a12.78,12.78,0,0,0-2.2.88,6.33,6.33,0,0,0-1.35,1,3.2,3.2,0,0,0-.77,1,3.45,3.45,0,0,0-.26,1.35,3,3,0,0,0,.64,1.9,3.32,3.32,0,0,0,1.63,1.12,7.69,7.69,0,0,0,2.35.31,13.85,13.85,0,0,0,1.77-.12,14.77,14.77,0,0,0,2.48-.61,20.57,20.57,0,0,0-.64,2.41c-1,.18-1.79.3-2.4.35s-1.21.07-1.76.07a11.61,11.61,0,0,1-4.32-.65,4.69,4.69,0,0,1-2.32-2,5.64,5.64,0,0,1-.76-2.88,5,5,0,0,1,.27-1.67,5.35,5.35,0,0,1,.74-1.4,6.41,6.41,0,0,1,1.32-1.25,9.15,9.15,0,0,1,1.79-1,23.16,23.16,0,0,1,2.19-.8c.84-.26,2.18-.62,4-1.06a15,15,0,0,0,1.51-.41c.42-.15.79-.28,1.11-.42a3.82,3.82,0,0,0,.85-.47,3.5,3.5,0,0,0,.66-.67,2.89,2.89,0,0,0,.45-.79,2.56,2.56,0,0,0,.14-.81,2.44,2.44,0,0,0-.65-1.7,3.37,3.37,0,0,0-1.68-1,9.3,9.3,0,0,0-2.45-.29,18,18,0,0,0-2.7.21,19.42,19.42,0,0,0-2.38.51C650.81,288.17,650,288.47,649,288.86Z" transform="translate(-1.21)"/><path class="cls-3" d="M680,303.38c-.15.66-.31,1.54-.49,2.62a18.42,18.42,0,0,1-2.17.41c-.54,0-1,.08-1.54.08a7.71,7.71,0,0,1-2.89-.45,3.41,3.41,0,0,1-1.69-1.46,5.35,5.35,0,0,1-.58-2.71c0-.15,0-.41,0-.79s.08-1.69.2-3.93l.5-9h-2.7c0-.56.1-1.37.14-2.42h2.75c.07-.75.14-2,.21-3.85,1.26-.25,2.32-.47,3.19-.69-.09,2-.14,3.5-.15,4.54h5.6c-.07.85-.11,1.65-.12,2.42h-5.58l-.54,11.36,0,.87a5.61,5.61,0,0,0,.33,2.2,2,2,0,0,0,1,1.06,3.06,3.06,0,0,0,1.39.33,8.6,8.6,0,0,0,1.08-.08C678.28,303.79,679,303.64,680,303.38Z" transform="translate(-1.21)"/><path class="cls-3" d="M699.64,302.84c-.16.74-.33,1.68-.49,2.82a29.73,29.73,0,0,1-3.36.66,24.42,24.42,0,0,1-2.83.17,15.47,15.47,0,0,1-4.53-.61,7.76,7.76,0,0,1-3.44-2.1,9.07,9.07,0,0,1-2.06-3.44,14,14,0,0,1,.53-9.68,9,9,0,0,1,3.46-4,10.72,10.72,0,0,1,5.86-1.48,11.4,11.4,0,0,1,3.51.54,7,7,0,0,1,2.78,1.62,7.49,7.49,0,0,1,1.72,2.7,9.89,9.89,0,0,1,.6,3.5,8.21,8.21,0,0,1-.12,1.41H685.88c0,.74-.08,1.3-.08,1.69a8.54,8.54,0,0,0,.89,3.91,6,6,0,0,0,2.62,2.7,8.42,8.42,0,0,0,4,.92A20,20,0,0,0,699.64,302.84ZM686,293.23h12a10.7,10.7,0,0,0-.16-2,5.91,5.91,0,0,0-.52-1.47,4.25,4.25,0,0,0-1-1.31,4.47,4.47,0,0,0-1.57-.84,6.43,6.43,0,0,0-2-.3,7.17,7.17,0,0,0-2.19.33,6.67,6.67,0,0,0-1.84.88,5.88,5.88,0,0,0-1.35,1.33,6.2,6.2,0,0,0-.82,1.46A11.88,11.88,0,0,0,686,293.23Z" transform="translate(-1.21)"/><path class="cls-3" d="M724,306c-.66,0-1.23,0-1.7,0s-1.09,0-1.67,0l.1-3.89a11.59,11.59,0,0,1-.84,1.4,5.6,5.6,0,0,1-.88,1,6.54,6.54,0,0,1-1.08.8,6.85,6.85,0,0,1-1.3.57,12,12,0,0,1-1.74.43,13.13,13.13,0,0,1-2.13.17,10.67,10.67,0,0,1-4.21-.75,5.69,5.69,0,0,1-2.64-2.12,6.75,6.75,0,0,1-.9-3.75c0-.24,0-.65,0-1.23s.07-1.33.12-2.26l.34-6.72.06-2.16c0-.49,0-1.12,0-1.89l1.86,0,1.74,0c-.19,2.35-.37,4.93-.54,7.72s-.26,4.59-.26,5.37a6,6,0,0,0,.58,2.84,3.74,3.74,0,0,0,1.92,1.63,7.65,7.65,0,0,0,3,.58,7.94,7.94,0,0,0,2.87-.53,6,6,0,0,0,2-1.25,6.94,6.94,0,0,0,1.45-2.24,10.79,10.79,0,0,0,.65-2.6c.09-.77.19-2.15.28-4.14q.17-3.63.22-7.38l1.88,0,1.7,0q-.29,3.63-.67,11Q724.09,300.72,724,306Z" transform="translate(-1.21)"/><path class="cls-3" d="M729.39,306q.74-11.62.73-18.58l0-1.85,1.69,0,1.72,0-.16,3.35a12.79,12.79,0,0,1,1.32-1.89A5.45,5.45,0,0,1,736,286a6.59,6.59,0,0,1,1.65-.64,7.44,7.44,0,0,1,1.9-.24,6.84,6.84,0,0,1,1.68.21c0,.88.06,1.88.14,3a8.53,8.53,0,0,0-2.24-.34,5.55,5.55,0,0,0-2.14.39,4.91,4.91,0,0,0-1.7,1.19,6.36,6.36,0,0,0-1.24,1.91,8.69,8.69,0,0,0-.62,2.3c-.14.94-.25,2.66-.33,5.14-.06,1.82-.08,3.74-.08,5.77V306l-1.76,0Z" transform="translate(-1.21)"/><path class="cls-3" d="M743,305.66l-.12-1.48c0-.16-.05-.68-.16-1.54A14.48,14.48,0,0,0,748.4,304a6.61,6.61,0,0,0,2.32-.36,2.93,2.93,0,0,0,1.42-1.08,2.62,2.62,0,0,0,.47-1.48,2.72,2.72,0,0,0-.13-.84,3.07,3.07,0,0,0-.39-.82,4.84,4.84,0,0,0-.78-.86c-.34-.32-1-.91-2.14-1.79s-1.9-1.55-2.46-2a11.2,11.2,0,0,1-1.43-1.52,5.58,5.58,0,0,1-.88-1.56,4.64,4.64,0,0,1-.28-1.59,4.36,4.36,0,0,1,.82-2.5,4.84,4.84,0,0,1,2.36-1.81,10,10,0,0,1,3.62-.6,26.92,26.92,0,0,1,5.1.55c.06,1.05.12,2,.2,2.88a11.78,11.78,0,0,0-4.45-.92,7.43,7.43,0,0,0-2.21.31,2.88,2.88,0,0,0-1.5.94,2.23,2.23,0,0,0-.47,1.37,2.68,2.68,0,0,0,.16.93,3.65,3.65,0,0,0,.58,1,7.3,7.3,0,0,0,1,1c.39.34,1.16,1,2.33,1.9a28.14,28.14,0,0,1,2.39,2.06,9.26,9.26,0,0,1,1.11,1.37,5.75,5.75,0,0,1,.67,1.4,4.93,4.93,0,0,1,.21,1.42,4.58,4.58,0,0,1-.83,2.63,5.36,5.36,0,0,1-2.5,1.87,9.73,9.73,0,0,1-3.71.67c-.58,0-1.25,0-2-.11s-1.44-.16-2-.26S743.76,305.86,743,305.66Z" transform="translate(-1.21)"/><path class="cls-4" d="M494.84,92.56l.65-9.75.73-18.24.08-4q0-1.5,0-3.45,5.85,0,12,0l8.27,0h2.64c-.12,1.21-.19,2.42-.23,3.63l-2.31-.12c-.57,0-1.55-.07-2.94-.08l-4.14,0q-6.12,0-8.53.08l-.47,12.14q4,.08,7.16.08,3.45,0,9.05-.11c-.12,1.21-.2,2.41-.23,3.58l-8.93-.08q-2.61,0-7.29.11l-.47,12.81,2.7,0c4.9,0,8.14,0,9.75-.06s3.47-.11,5.61-.23c-.12,1.28-.2,2.5-.23,3.66-4.17,0-7.69,0-10.56,0Z" transform="translate(-1.21)"/><path class="cls-4" d="M524.9,92.56l.33-4.75c.07-1.07.13-2.24.18-3.5L526,68.88l.15-6.23q.06-2,.06-3.45V57.15l11.62,0,6.41,0h3.84q-.21,2.41-.21,3.63c-2.19-.13-5.29-.2-9.28-.2l-7.63.05-.39,12.22,5,.1q7.05,0,10.24-.1c-.11,1.28-.16,2.46-.16,3.55-3.2-.07-5.89-.1-8.09-.1s-4.55,0-7.18.1q-.29,9.54-.29,16.16l-2.51,0Z" transform="translate(-1.21)"/><path class="cls-4" d="M553.2,92.56l.33-4.75c.07-1.07.13-2.24.18-3.5l.57-15.43.15-6.23c0-1.31.05-2.46.05-3.45V57.15l11.63,0,6.41,0h3.84q-.21,2.41-.21,3.63c-2.19-.13-5.29-.2-9.28-.2l-7.63.05-.39,12.22,5,.1c4.71,0,8.12,0,10.25-.1-.11,1.28-.16,2.46-.16,3.55-3.2-.07-5.89-.1-8.09-.1s-4.56,0-7.18.1q-.28,9.54-.29,16.16l-2.52,0Z" transform="translate(-1.21)"/><path class="cls-4" d="M581.47,92.56l.65-9.75.73-18.24.08-4q0-1.5,0-3.45,5.85,0,12,0l8.27,0h2.65c-.13,1.21-.2,2.42-.24,3.63l-2.31-.12c-.57,0-1.55-.07-2.94-.08l-4.14,0q-6.12,0-8.53.08l-.47,12.14q4,.08,7.16.08,3.45,0,9.05-.11c-.12,1.21-.19,2.41-.23,3.58l-8.93-.08q-2.61,0-7.29.11l-.47,12.81,2.7,0q7.35,0,9.75-.06c1.6,0,3.47-.11,5.62-.23-.13,1.28-.2,2.5-.24,3.66-4.17,0-7.68,0-10.55,0Z" transform="translate(-1.21)"/><path class="cls-4" d="M639,88c-.24,1.25-.46,2.61-.64,4.07a47.55,47.55,0,0,1-9.37,1A23.63,23.63,0,0,1,621.65,92a16.39,16.39,0,0,1-6.14-3.57,14.38,14.38,0,0,1-3.8-5.68,20.42,20.42,0,0,1-1.19-7A22.8,22.8,0,0,1,611.84,68a16.06,16.06,0,0,1,4-6.29,17,17,0,0,1,6.48-3.86,24.62,24.62,0,0,1,7.95-1.29,42.59,42.59,0,0,1,8.9.94c0,.87.11,2.21.29,4a34.28,34.28,0,0,0-4.91-1.18,26.14,26.14,0,0,0-3.84-.3,18.29,18.29,0,0,0-5.91.95,13.31,13.31,0,0,0-5,3,13.66,13.66,0,0,0-3.33,5.09,18.11,18.11,0,0,0-.23,12,11.45,11.45,0,0,0,2.83,4.61,12.88,12.88,0,0,0,4.52,2.87,16.35,16.35,0,0,0,5.89,1A33.07,33.07,0,0,0,639,88Z" transform="translate(-1.21)"/><path class="cls-4" d="M652.15,92.56l.52-7.94.7-16.44.23-7.6q-6.35,0-11.12.23.15-2.07.18-3.66,6.58,0,14.21,0l8.3,0h4.41q-.18,2.31-.18,3.66-4-.23-8.9-.23h-2.13l-.54,11.48-.54,16.17v4.33l-2.49,0C654.57,92.51,653.69,92.52,652.15,92.56Z" transform="translate(-1.21)"/><path class="cls-4" d="M672.64,92.56l.39-6,.54-12.42.36-12.24q0-1.07,0-2.13l0-2.65,2.68,0,2.51,0q-.47,6.49-.69,13.54Q678,82,677.83,92.56l-2.44,0C675.08,92.51,674.16,92.52,672.64,92.56Z" transform="translate(-1.21)"/><path class="cls-4" d="M685.87,92.56l.33-4.75c.07-1.07.13-2.24.18-3.5L687,68.88l.15-6.23q.06-2,.06-3.45V57.15l11.62,0,6.41,0H709q-.21,2.41-.21,3.63c-2.19-.13-5.29-.2-9.28-.2l-7.63.05-.39,12.22,5,.1c4.71,0,8.12,0,10.25-.1-.11,1.28-.16,2.46-.16,3.55-3.2-.07-5.89-.1-8.09-.1s-4.55,0-7.18.1Q691,85.94,691,92.56l-2.51,0Z" transform="translate(-1.21)"/><path class="cls-4" d="M494.84,145.68l.73-10.69.78-21c0-.85,0-2.09,0-3.74q3.27.06,5.58.06c1,0,2.46,0,4.49-.06l4.3,0a32.91,32.91,0,0,1,7.26.68,11.89,11.89,0,0,1,4.09,1.73,13.24,13.24,0,0,1,3.3,3.26,14.07,14.07,0,0,1,2.15,4.42,21.76,21.76,0,0,1,.83,6.07,22.94,22.94,0,0,1-1.53,8.31,16.51,16.51,0,0,1-4.55,6.64,15.16,15.16,0,0,1-6.77,3.51,38.28,38.28,0,0,1-8.36.84l-7.24-.05C499.45,145.63,497.76,145.64,494.84,145.68Zm5-3.48c2.11.06,4.07.08,5.88.08,1.52,0,3.07-.07,4.65-.22a20.16,20.16,0,0,0,4.25-.82,10.6,10.6,0,0,0,3.7-2.14,13.48,13.48,0,0,0,3-3.5,15.47,15.47,0,0,0,1.73-4.38,21.47,21.47,0,0,0,.57-4.92,17.86,17.86,0,0,0-.73-5.18,11.09,11.09,0,0,0-2.48-4.31,8.39,8.39,0,0,0-4.15-2.55,25.24,25.24,0,0,0-6.34-.64q-4.85,0-8.87.08Z" transform="translate(-1.21)"/><path class="cls-4" d="M534,145.68l.39-6,.54-12.42.36-12.24q0-1.06,0-2.13l0-2.65,2.68,0,2.51,0q-.46,6.49-.69,13.54-.42,11.31-.6,21.87l-2.44-.05C536.47,145.63,535.55,145.64,534,145.68Z" transform="translate(-1.21)"/><path class="cls-4" d="M547.21,145.68l.51-7,.6-12.89.26-10.84c0-2.2,0-3.76,0-4.7q3.11.06,5.16.06c1.18,0,2.48,0,3.91-.06s2.59,0,3.51,0a25.87,25.87,0,0,1,4.4.34,7.88,7.88,0,0,1,3.55,1.54,7.53,7.53,0,0,1,2.31,2.8,8.58,8.58,0,0,1,.74,3.62,10.8,10.8,0,0,1-.58,3.61,9.61,9.61,0,0,1-1.72,3,9.21,9.21,0,0,1-2.68,2.2,11.69,11.69,0,0,1-3,1.06,32.92,32.92,0,0,1-3.27.5l4.57,7.29,4.71,7.23c.33.5.81,1.26,1.43,2.26-1.34,0-2.24-.05-2.68-.05s-1.41,0-2.77.05l-1.87-3.55c-.38-.7-.76-1.38-1.14-2s-.8-1.4-1.25-2.18l-5.87-9.57c-.25-.38-.65-1.05-1.2-2a20.18,20.18,0,0,0,3.53.36,12.41,12.41,0,0,0,4.7-.85,6.8,6.8,0,0,0,3.27-2.66,7.28,7.28,0,0,0,1.16-4,6.47,6.47,0,0,0-.37-2.22,4,4,0,0,0-1.15-1.72,5.35,5.35,0,0,0-1.56-1,7.7,7.7,0,0,0-2-.47,20.52,20.52,0,0,0-2.55-.16l-3.69.06q-2.38,0-3,0-.81,17.43-1,32.06l-2.55-.05C549.34,145.63,548.5,145.64,547.21,145.68Z" transform="translate(-1.21)"/><path class="cls-4" d="M577.29,145.68l.66-9.75.73-18.24.07-4q0-1.5,0-3.45,5.87,0,12,0l8.27,0h2.64c-.12,1.21-.2,2.42-.23,3.64l-2.31-.13c-.57,0-1.55-.06-2.95-.08l-4.13,0q-6.12,0-8.54.08l-.47,12.14c2.67,0,5,.08,7.16.08q3.45,0,9.06-.11c-.12,1.21-.2,2.41-.24,3.58l-8.92-.08q-2.62,0-7.29.11l-.47,12.81,2.7,0q7.33,0,9.74-.05c1.6,0,3.47-.12,5.62-.24-.12,1.28-.2,2.5-.23,3.66-4.17,0-7.69-.05-10.56-.05Z" transform="translate(-1.21)"/><path class="cls-4" d="M634.8,141.14c-.25,1.25-.46,2.61-.65,4.07a47.54,47.54,0,0,1-9.36,1,23.65,23.65,0,0,1-7.32-1.15,16.35,16.35,0,0,1-6.13-3.57,14.28,14.28,0,0,1-3.8-5.68,20.15,20.15,0,0,1-1.2-7,22.61,22.61,0,0,1,1.33-7.71,16,16,0,0,1,4-6.29,17,17,0,0,1,6.49-3.86,24.53,24.53,0,0,1,8-1.29,42.49,42.49,0,0,1,8.89.94c0,.87.12,2.21.29,4a34.19,34.19,0,0,0-4.9-1.18,26.25,26.25,0,0,0-3.84-.3,18.21,18.21,0,0,0-5.91.95,13.16,13.16,0,0,0-5,3,13.66,13.66,0,0,0-3.33,5.09,17.53,17.53,0,0,0-1.16,6.29,17.92,17.92,0,0,0,.92,5.76,11.67,11.67,0,0,0,2.83,4.61,13,13,0,0,0,4.53,2.88,16.48,16.48,0,0,0,5.88,1A33.13,33.13,0,0,0,634.8,141.14Z" transform="translate(-1.21)"/><path class="cls-4" d="M648,145.68l.52-7.94.7-16.44.23-7.6c-4.23,0-7.94.09-11.12.23.11-1.38.17-2.6.19-3.66q6.59,0,14.21,0l8.3,0h4.4q-.18,2.31-.18,3.66-4-.23-8.89-.23H654.2l-.54,11.48-.54,16.17v4.33l-2.5-.05C650.4,145.63,649.51,145.64,648,145.68Z" transform="translate(-1.21)"/><line class="cls-5" x1="469.86" y1="42.45" x2="469.86" y2="366.77"/><path class="cls-6" d="M388.39,59.11a10.28,10.28,0,1,1-10.28,10.28A10.28,10.28,0,0,1,388.39,59.11Z" transform="translate(-1.21)"/><path class="cls-6" d="M406.48,82.37H370c-5.8,0-8.8,3.08-8.8,8.87V124.8c0,2.74,2.91,5,5.66,5s5.66-2.23,5.66-5V97.21a1.38,1.38,0,0,1,1.13-1.16c.28,0,1.13.45,1.13,1.16v74.66a5.67,5.67,0,1,0,11.32,0v-42.6a2.09,2.09,0,0,1,1.74-2.16h1.05a2.09,2.09,0,0,1,1.74,2.16v42.6a5.67,5.67,0,1,0,11.32,0V97.21c0-.71.85-1.16,1.13-1.16a1.39,1.39,0,0,1,1.13,1.16V124.8c0,2.74,2.92,5,5.66,5s5.66-2.23,5.66-5V91.24C415.56,85.45,412.28,82.37,406.48,82.37Z" transform="translate(-1.21)"/><path class="cls-7" d="M392.69,88.23,390.47,92h-4.15l-2.22-3.8Zm-4.23,30.38h-.13l-4.23-5.51L386.32,92h4.15l2.22,21.07Z" transform="translate(-1.21)"/><path class="cls-6" d="M378.8,199.05c0,.26,0,.53,0,.8a9.63,9.63,0,0,0,19.25,0c0-.26,0-.61,0-.87C398,199,378.8,199.05,378.8,199.05Z" transform="translate(-1.21)"/><rect class="cls-8" x="375.04" y="196.2" width="24.29" height="2.05" rx="0.23" ry="0.23"/><path class="cls-6" d="M393.11,187.33v2.08a.8.8,0,1,1-1.59,0v-2.69a10.61,10.61,0,0,0-2.26-.42v3.11a.8.8,0,1,1-1.59,0v-3.12a10.58,10.58,0,0,0-2.26.39v2.73a.8.8,0,1,1-1.59,0v-2.16a11.09,11.09,0,0,0-6.39,8.95h21.93A11,11,0,0,0,393.11,187.33Z" transform="translate(-1.21)"/><path class="cls-6" d="M406.48,212.17H370c-5.8,0-8.8,3.08-8.8,8.87V254.6c0,2.74,2.91,5,5.66,5s5.66-2.23,5.66-5V227a1.4,1.4,0,0,1,1.13-1.16c.28,0,1.13.46,1.13,1.16v74.67a5.67,5.67,0,1,0,11.32,0v-42.6a2.09,2.09,0,0,1,1.74-2.16h1.05a2.09,2.09,0,0,1,1.74,2.16v42.6a5.67,5.67,0,1,0,11.32,0V227c0-.7.85-1.16,1.13-1.16a1.41,1.41,0,0,1,1.13,1.16v27.6c0,2.74,2.92,5,5.66,5s5.66-2.23,5.66-5V221C415.56,215.25,412.28,212.17,406.48,212.17Z" transform="translate(-1.21)"/><rect class="cls-7" x="377.56" y="229.41" width="19.25" height="11.92"/><rect class="cls-7" x="374.49" y="212.09" width="3.82" height="10.79"/><rect class="cls-7" x="374.09" y="223.26" width="4.64" height="3.7"/><rect class="cls-7" x="396.52" y="212.09" width="3.82" height="10.79"/><rect class="cls-7" x="396.11" y="223.26" width="4.64" height="3.7"/><path class="cls-6" d="M325.88,59.11A10.28,10.28,0,1,1,315.6,69.39,10.28,10.28,0,0,1,325.88,59.11Z" transform="translate(-1.21)"/><path class="cls-6" d="M344,82.37H307.52c-5.8,0-8.8,3.08-8.8,8.87V124.8c0,2.74,2.91,5,5.66,5s5.66-2.23,5.66-5V97.21a1.39,1.39,0,0,1,1.13-1.16c.28,0,1.13.45,1.13,1.16v74.66a5.67,5.67,0,1,0,11.32,0v-42.6a2.09,2.09,0,0,1,1.74-2.16h1.05a2.09,2.09,0,0,1,1.74,2.16v42.6a5.67,5.67,0,1,0,11.32,0V97.21c0-.71.85-1.16,1.13-1.16a1.39,1.39,0,0,1,1.13,1.16V124.8c0,2.74,2.92,5,5.66,5s5.66-2.23,5.66-5V91.24C353.05,85.45,349.77,82.37,344,82.37Z" transform="translate(-1.21)"/><path class="cls-7" d="M330.18,88.23,328,92h-4.15l-2.22-3.8ZM326,118.61h-.13l-4.23-5.51L323.81,92H328l2.22,21.07Z" transform="translate(-1.21)"/><path class="cls-6" d="M316.3,199.05a7,7,0,0,0,0,.8,9.63,9.63,0,0,0,19.25,0c0-.26,0-.61,0-.87C335.48,199,316.3,199.05,316.3,199.05Z" transform="translate(-1.21)"/><rect class="cls-8" x="312.53" y="196.2" width="24.29" height="2.05" rx="0.23" ry="0.23"/><path class="cls-6" d="M330.6,187.33v2.08a.8.8,0,1,1-1.59,0v-2.69a10.61,10.61,0,0,0-2.26-.42v3.11a.8.8,0,1,1-1.59,0v-3.12a10.58,10.58,0,0,0-2.26.39v2.73a.8.8,0,1,1-1.59,0v-2.16a11.09,11.09,0,0,0-6.39,8.95h21.93A11,11,0,0,0,330.6,187.33Z" transform="translate(-1.21)"/><path class="cls-6" d="M344,212.17H307.52c-5.8,0-8.8,3.08-8.8,8.87V254.6c0,2.74,2.91,5,5.66,5s5.66-2.23,5.66-5V227a1.41,1.41,0,0,1,1.13-1.16c.28,0,1.13.46,1.13,1.16v74.67a5.67,5.67,0,1,0,11.32,0v-42.6a2.09,2.09,0,0,1,1.74-2.16h1.05a2.09,2.09,0,0,1,1.74,2.16v42.6a5.67,5.67,0,1,0,11.32,0V227c0-.7.85-1.16,1.13-1.16a1.41,1.41,0,0,1,1.13,1.16v27.6c0,2.74,2.92,5,5.66,5s5.66-2.23,5.66-5V221C353.05,215.25,349.77,212.17,344,212.17Z" transform="translate(-1.21)"/><rect class="cls-7" x="315.06" y="229.41" width="19.25" height="11.92"/><rect class="cls-7" x="311.98" y="212.09" width="3.82" height="10.79"/><rect class="cls-7" x="311.58" y="223.26" width="4.64" height="3.7"/><rect class="cls-7" x="334.01" y="212.09" width="3.82" height="10.79"/><rect class="cls-7" x="333.6" y="223.26" width="4.64" height="3.7"/><path class="cls-6" d="M263.38,59.11a10.28,10.28,0,1,1-10.29,10.28A10.28,10.28,0,0,1,263.38,59.11Z" transform="translate(-1.21)"/><path class="cls-6" d="M281.46,82.37H245c-5.8,0-8.8,3.08-8.8,8.87V124.8c0,2.74,2.92,5,5.66,5s5.66-2.23,5.66-5V97.21a1.39,1.39,0,0,1,1.13-1.16c.28,0,1.13.45,1.13,1.16v74.66a5.67,5.67,0,1,0,11.32,0v-42.6a2.09,2.09,0,0,1,1.74-2.16h1a2.09,2.09,0,0,1,1.74,2.16v42.6a5.67,5.67,0,1,0,11.32,0V97.21c0-.71.85-1.16,1.13-1.16a1.38,1.38,0,0,1,1.13,1.16V124.8c0,2.74,2.92,5,5.66,5s5.66-2.23,5.66-5V91.24C290.54,85.45,287.26,82.37,281.46,82.37Z" transform="translate(-1.21)"/><path class="cls-7" d="M267.67,88.23,265.45,92H261.3l-2.22-3.8Zm-4.23,30.38h-.13l-4.23-5.51L261.3,92h4.15l2.22,21.07Z" transform="translate(-1.21)"/><path class="cls-6" d="M253.79,199.05a7,7,0,0,0,0,.8,9.63,9.63,0,0,0,19.25,0c0-.26,0-.61,0-.87C273,199,253.79,199.05,253.79,199.05Z" transform="translate(-1.21)"/><rect class="cls-8" x="250.03" y="196.2" width="24.29" height="2.05" rx="0.23" ry="0.23"/><path class="cls-6" d="M268.09,187.33v2.08a.8.8,0,1,1-1.59,0v-2.69a10.61,10.61,0,0,0-2.26-.42v3.11a.8.8,0,1,1-1.59,0v-3.12a10.58,10.58,0,0,0-2.26.39v2.73a.8.8,0,1,1-1.59,0v-2.16a11.09,11.09,0,0,0-6.39,8.95h21.93A11,11,0,0,0,268.09,187.33Z" transform="translate(-1.21)"/><path class="cls-6" d="M281.46,212.17H245c-5.8,0-8.8,3.08-8.8,8.87V254.6c0,2.74,2.92,5,5.66,5s5.66-2.23,5.66-5V227a1.41,1.41,0,0,1,1.13-1.16c.28,0,1.13.46,1.13,1.16v74.67a5.67,5.67,0,1,0,11.32,0v-42.6a2.09,2.09,0,0,1,1.74-2.16h1a2.09,2.09,0,0,1,1.74,2.16v42.6a5.67,5.67,0,1,0,11.32,0V227c0-.7.85-1.16,1.13-1.16a1.4,1.4,0,0,1,1.13,1.16v27.6c0,2.74,2.92,5,5.66,5s5.66-2.23,5.66-5V221C290.54,215.25,287.26,212.17,281.46,212.17Z" transform="translate(-1.21)"/><rect class="cls-7" x="252.55" y="229.41" width="19.25" height="11.92"/><rect class="cls-7" x="249.47" y="212.09" width="3.82" height="10.79"/><rect class="cls-7" x="249.07" y="223.26" width="4.64" height="3.7"/><rect class="cls-7" x="271.5" y="212.09" width="3.82" height="10.79"/><rect class="cls-7" x="271.09" y="223.26" width="4.64" height="3.7"/><path class="cls-6" d="M200.87,59.11a10.28,10.28,0,1,1-10.28,10.28A10.28,10.28,0,0,1,200.87,59.11Z" transform="translate(-1.21)"/><path class="cls-6" d="M219,82.37H182.5c-5.8,0-8.8,3.08-8.8,8.87V124.8c0,2.74,2.92,5,5.66,5s5.66-2.23,5.66-5V97.21a1.39,1.39,0,0,1,1.13-1.16c.28,0,1.13.45,1.13,1.16v74.66a5.67,5.67,0,1,0,11.32,0v-42.6a2.09,2.09,0,0,1,1.74-2.16h1a2.09,2.09,0,0,1,1.74,2.16v42.6a5.67,5.67,0,1,0,11.32,0V97.21c0-.71.85-1.16,1.13-1.16a1.38,1.38,0,0,1,1.13,1.16V124.8c0,2.74,2.92,5,5.66,5s5.66-2.23,5.66-5V91.24C228,85.45,224.75,82.37,219,82.37Z" transform="translate(-1.21)"/><path class="cls-7" d="M205.16,88.23,202.94,92h-4.15l-2.22-3.8Zm-4.23,30.38h-.13l-4.23-5.51L198.79,92h4.15l2.22,21.07Z" transform="translate(-1.21)"/><path class="cls-6" d="M191.28,199.05a7,7,0,0,0,0,.8,9.63,9.63,0,0,0,19.25,0c0-.26,0-.61,0-.87C210.46,199,191.28,199.05,191.28,199.05Z" transform="translate(-1.21)"/><rect class="cls-8" x="187.52" y="196.2" width="24.29" height="2.05" rx="0.23" ry="0.23"/><path class="cls-6" d="M205.58,187.33v2.08a.8.8,0,1,1-1.59,0v-2.69a10.5,10.5,0,0,0-2.26-.42v3.11a.79.79,0,0,1-.79.8.8.8,0,0,1-.8-.8v-3.12a10.58,10.58,0,0,0-2.26.39v2.73a.79.79,0,0,1-.79.8.8.8,0,0,1-.8-.8v-2.16a11.09,11.09,0,0,0-6.39,8.95h21.93A11,11,0,0,0,205.58,187.33Z" transform="translate(-1.21)"/><path class="cls-6" d="M219,212.17H182.5c-5.8,0-8.8,3.08-8.8,8.87V254.6c0,2.74,2.92,5,5.66,5s5.66-2.23,5.66-5V227a1.41,1.41,0,0,1,1.13-1.16c.28,0,1.13.46,1.13,1.16v74.67a5.67,5.67,0,1,0,11.32,0v-42.6a2.09,2.09,0,0,1,1.74-2.16h1a2.09,2.09,0,0,1,1.74,2.16v42.6a5.67,5.67,0,1,0,11.32,0V227c0-.7.85-1.16,1.13-1.16a1.4,1.4,0,0,1,1.13,1.16v27.6c0,2.74,2.92,5,5.66,5s5.66-2.23,5.66-5V221C228,215.25,224.75,212.17,219,212.17Z" transform="translate(-1.21)"/><rect class="cls-7" x="190.04" y="229.41" width="19.25" height="11.92"/><rect class="cls-7" x="186.97" y="212.09" width="3.82" height="10.79"/><rect class="cls-7" x="186.56" y="223.26" width="4.64" height="3.7"/><rect class="cls-7" x="208.99" y="212.09" width="3.82" height="10.79"/><rect class="cls-7" x="208.58" y="223.26" width="4.64" height="3.7"/><path class="cls-6" d="M138.36,59.11a10.28,10.28,0,1,1-10.28,10.28A10.28,10.28,0,0,1,138.36,59.11Z" transform="translate(-1.21)"/><path class="cls-6" d="M156.44,82.37H120c-5.8,0-8.8,3.08-8.8,8.87V124.8c0,2.74,2.92,5,5.66,5s5.66-2.23,5.66-5V97.21a1.39,1.39,0,0,1,1.13-1.16c.28,0,1.13.45,1.13,1.16v74.66a5.67,5.67,0,1,0,11.32,0v-42.6a2.09,2.09,0,0,1,1.74-2.16h1a2.08,2.08,0,0,1,1.74,2.16v42.6a5.67,5.67,0,1,0,11.32,0V97.21c0-.71.86-1.16,1.13-1.16a1.39,1.39,0,0,1,1.14,1.16V124.8c0,2.74,2.91,5,5.65,5s5.67-2.23,5.67-5V91.24C165.53,85.45,162.24,82.37,156.44,82.37Z" transform="translate(-1.21)"/><path class="cls-7" d="M142.65,88.23,140.43,92h-4.15l-2.22-3.8Zm-4.23,30.38h-.13l-4.23-5.51L136.28,92h4.15l2.22,21.07Z" transform="translate(-1.21)"/><path class="cls-6" d="M128.77,199.05c0,.26,0,.53,0,.8a9.63,9.63,0,0,0,19.25,0c0-.26,0-.61,0-.87C148,199,128.77,199.05,128.77,199.05Z" transform="translate(-1.21)"/><rect class="cls-8" x="125.01" y="196.2" width="24.29" height="2.05" rx="0.23" ry="0.23"/><path class="cls-6" d="M143.07,187.33v2.08a.79.79,0,0,1-.79.8.8.8,0,0,1-.8-.8v-2.69a10.5,10.5,0,0,0-2.26-.42v3.11a.79.79,0,0,1-.79.8.8.8,0,0,1-.8-.8v-3.12a10.58,10.58,0,0,0-2.26.39v2.73a.79.79,0,0,1-.79.8.8.8,0,0,1-.8-.8v-2.16a11.09,11.09,0,0,0-6.39,8.95h21.93A11,11,0,0,0,143.07,187.33Z" transform="translate(-1.21)"/><path class="cls-6" d="M156.44,212.17H120c-5.8,0-8.8,3.08-8.8,8.87V254.6c0,2.74,2.92,5,5.66,5s5.66-2.23,5.66-5V227a1.41,1.41,0,0,1,1.13-1.16c.28,0,1.13.46,1.13,1.16v74.67a5.67,5.67,0,1,0,11.32,0v-42.6a2.09,2.09,0,0,1,1.74-2.16h1a2.08,2.08,0,0,1,1.74,2.16v42.6a5.67,5.67,0,1,0,11.32,0V227c0-.7.86-1.16,1.13-1.16s1.14.51,1.14,1.16v27.6c0,2.74,2.91,5,5.65,5s5.67-2.23,5.67-5V221C165.53,215.25,162.24,212.17,156.44,212.17Z" transform="translate(-1.21)"/><rect class="cls-7" x="127.53" y="229.41" width="19.25" height="11.92"/><rect class="cls-7" x="124.46" y="212.09" width="3.82" height="10.79"/><rect class="cls-7" x="124.05" y="223.26" width="4.64" height="3.7"/><rect class="cls-7" x="146.48" y="212.09" width="3.82" height="10.79"/><rect class="cls-7" x="146.07" y="223.26" width="4.64" height="3.7"/></svg>