<?xml version="1.0" encoding="utf-8"?>
<!-- Generator: Adobe Illustrator 21.0.0, SVG Export Plug-In . SVG Version: 6.00 Build 0)  -->
<svg version="1.1" id="Layer_1" xmlns="http://www.w3.org/2000/svg" xmlns:xlink="http://www.w3.org/1999/xlink" x="0px" y="0px"
	 viewBox="0 0 865 402" style="enable-background:new 0 0 865 402;" xml:space="preserve">
<style type="text/css">
	.st0{fill:#0060AD;}
	.st1{fill:#EB1C24;}
	.st2{fill:#808285;}
	.st3{fill:none;stroke:#E61D28;stroke-width:2.95;stroke-miterlimit:10;}
	.st4{fill:#FFFFFF;stroke:#0060AD;stroke-width:5.91;stroke-linecap:round;stroke-linejoin:round;}
	.st5{fill:#FFFFFF;stroke:#0060AD;stroke-width:5.91;stroke-miterlimit:10;}
	.st6{fill:#FFFFFF;stroke:#0060AD;stroke-width:5.33;stroke-miterlimit:10;}
	.st7{fill:#FFFFFF;}
	.st8{fill:none;stroke:#0060AD;stroke-width:5.33;stroke-linecap:round;stroke-linejoin:round;}
	.st9{fill:none;stroke:#0060AD;stroke-width:5.33;stroke-linecap:round;stroke-linejoin:round;stroke-dasharray:8.2,6.56;}
	.st10{fill:none;stroke:#0060AD;stroke-width:4.82;stroke-miterlimit:10;}
	.st11{fill:#FFFFFF;stroke:#0060AD;stroke-width:3.47;stroke-miterlimit:10;}
	.st12{fill:#FFFFFF;stroke:#0060AD;stroke-width:3.47;stroke-linecap:round;stroke-linejoin:round;stroke-dasharray:5.23,4.18;}
	.st13{fill:#FFFFFF;stroke:#0060AD;stroke-width:5.33;stroke-linecap:round;stroke-linejoin:round;}
	.st14{fill:none;}
</style>
<title>Chiffre 01</title>
<path class="st0" d="M268,169.1c0,0-53.4-53.6-77.2-49.2c0,0-43.2,8.1-67.9,22.3c-0.1,7.1-0.1,20.6-0.1,25
	C160.4,167.6,268,169.1,268,169.1z"/>
<path class="st1" d="M515.7,249.3v-7.5c0-0.6,0.1-1.1,0.4-1.6l29.9-64.7c0.4-0.7,1.1-1.1,1.9-1.1h9.1c1,0,1.3,0.4,1,1.2L528.4,240
	v0.3h24.5c0.4,0.1,0.8-0.2,0.8-0.6c0-0.1,0-0.1,0-0.2v-24.2c-0.1-0.7,0.4-1.3,1-1.4c0.1,0,0.2,0,0.3,0h8.7c0.7-0.1,1.3,0.4,1.4,1
	c0,0.1,0,0.2,0,0.3v24.2c-0.1,0.4,0.2,0.8,0.6,0.8c0.1,0,0.1,0,0.2,0h8.4c0.7-0.1,1.3,0.4,1.4,1c0,0.1,0,0.2,0,0.3v7.8
	c0.1,0.7-0.4,1.3-1,1.4c-0.1,0-0.2,0-0.3,0h-8.4c-0.4-0.1-0.8,0.2-0.8,0.6c0,0.1,0,0.1,0,0.2v14c0.1,0.7-0.4,1.3-1,1.4
	c-0.1,0-0.2,0-0.3,0h-8.7c-0.7,0.1-1.3-0.4-1.4-1c0-0.1,0-0.2,0-0.3v-14c0.1-0.4-0.2-0.8-0.6-0.8c-0.1,0-0.1,0-0.2,0H517
	c-0.7,0.1-1.3-0.4-1.4-1C515.6,249.6,515.6,249.5,515.7,249.3z"/>
<path class="st1" d="M620.9,185.5v-0.4h-28.1c-0.4-0.1-0.8,0.2-0.8,0.6c0,0.1,0,0.1,0,0.2v11.6c0.1,0.7-0.4,1.3-1,1.4
	c-0.1,0-0.2,0-0.3,0h-8.1c-0.7,0.1-1.3-0.4-1.4-1c0-0.1,0-0.2,0-0.3v-21.6c-0.1-0.7,0.4-1.3,1-1.4c0.1,0,0.2,0,0.3,0h49.3
	c0.7-0.1,1.3,0.4,1.4,1c0,0.1,0,0.2,0,0.3v8.4c0,0.5-0.1,0.9-0.3,1.4l-31.8,80c-0.1,0.4-0.3,0.7-0.6,1c-0.3,0.2-0.7,0.3-1.2,0.3
	h-9.1c-1,0-1.3-0.5-0.8-1.5L620.9,185.5z"/>
<path class="st2" d="M511.1,307.8l0.6-8.3l0.6-16.3c0-0.7,0-1.6,0-2.9c1.7,0,3.1,0,4.3,0c0.8,0,1.9,0,3.5,0s2.7,0,3.3,0
	c1.9,0,3.8,0.1,5.7,0.5c1.1,0.2,2.2,0.7,3.2,1.4c1,0.7,1.9,1.5,2.6,2.5c0.8,1,1.3,2.2,1.7,3.4c0.4,1.5,0.7,3.1,0.7,4.7
	c0,2.2-0.4,4.4-1.2,6.5c-0.7,2-2,3.8-3.5,5.2c-1.5,1.3-3.3,2.3-5.3,2.7c-2.1,0.5-4.3,0.7-6.5,0.7h-5.6L511.1,307.8z M515.1,305.1
	c1.6,0,3.2,0.1,4.6,0.1c1.2,0,2.4-0.1,3.6-0.2c1.1-0.1,2.2-0.3,3.3-0.6c1.1-0.4,2-0.9,2.9-1.7c0.9-0.8,1.7-1.7,2.3-2.7
	c0.6-1.1,1.1-2.2,1.3-3.4c0.3-1.3,0.4-2.5,0.4-3.8c0-1.4-0.2-2.7-0.6-4c-0.4-1.2-1-2.4-1.9-3.4c-0.9-1-2-1.7-3.2-2
	c-1.6-0.4-3.3-0.5-4.9-0.5c-2.5,0-4.8,0-6.9,0.1L515.1,305.1z"/>
<path class="st2" d="M558.4,304.6c-0.2,0.7-0.3,1.7-0.5,2.8c-1.1,0.3-2.2,0.5-3.4,0.6c-0.9,0.1-1.9,0.2-2.8,0.2
	c-1.5,0-3.1-0.2-4.5-0.6c-1.3-0.4-2.5-1.1-3.4-2.1c-0.9-1-1.6-2.1-2.1-3.4c-0.4-1.3-0.6-2.7-0.6-4.1c0-1.9,0.4-3.8,1.2-5.6
	c0.7-1.6,1.9-3,3.5-4c1.8-1,3.8-1.6,5.9-1.5c1.2,0,2.4,0.2,3.5,0.5c1,0.3,2,0.9,2.8,1.6c0.8,0.8,1.3,1.7,1.7,2.7
	c0.4,1.1,0.6,2.3,0.6,3.5c0,0.5,0,0.9-0.1,1.4h-15.4c-0.1,0.7-0.1,1.3-0.1,1.7c0,1.4,0.3,2.7,0.9,3.9c0.6,1.2,1.5,2.1,2.6,2.7
	c1.2,0.6,2.6,0.9,4,0.9C554.2,305.8,556.3,305.3,558.4,304.6z M544.8,295h12c0-0.7,0-1.3-0.2-2c-0.1-0.5-0.3-1-0.5-1.5
	c-0.2-0.5-0.6-1-1-1.3c-0.5-0.4-1-0.7-1.6-0.8c-0.6-0.2-1.3-0.3-2-0.3c-0.7,0-1.5,0.1-2.2,0.3c-0.7,0.2-1.3,0.5-1.8,0.9
	c-0.5,0.4-1,0.8-1.3,1.3c-0.3,0.4-0.6,0.9-0.8,1.5C545.1,293.7,544.9,294.3,544.8,295z"/>
<path class="st2" d="M563.5,316.9c0.3-3.5,0.5-8.2,0.8-14.2c0.2-6,0.4-10.9,0.4-14.7c2.2-0.5,4-0.8,5.3-1c1.3-0.2,2.7-0.2,4-0.3
	c1.9,0,3.7,0.3,5.5,1c1.6,0.7,2.9,1.9,3.6,3.5c0.9,1.8,1.3,3.7,1.3,5.7c0,1.4-0.2,2.9-0.6,4.3c-0.4,1.4-1,2.6-1.8,3.7
	c-0.8,1-1.8,1.9-3,2.4c-1.2,0.6-2.6,0.8-3.9,0.8c-0.8,0-1.7-0.1-2.5-0.3c-0.7-0.2-1.4-0.5-2.1-0.8c-0.5-0.3-1-0.7-1.5-1.1
	c-0.5-0.6-1-1.2-1.5-1.9l-0.3,8c0,1.3-0.1,2.3-0.1,2.8v2c-0.7,0-1.3,0-1.8,0S564.3,316.9,563.5,316.9z M568.2,290.5L568,292
	l-0.1,2.1c-0.1,1.1-0.1,2-0.1,2.7c0,0.7,0,1.2,0,1.5c0,1,0.1,1.9,0.3,2.8c0.2,0.9,0.6,1.7,1.3,2.4c0.6,0.7,1.4,1.3,2.2,1.7
	c0.8,0.4,1.7,0.6,2.6,0.6c1.2,0,2.4-0.4,3.5-1c1.1-0.8,1.9-1.9,2.4-3.1c0.6-1.4,0.9-3,0.9-4.5c0-1.5-0.3-2.9-0.9-4.3
	c-0.5-1.1-1.4-2-2.4-2.6c-1.1-0.5-2.3-0.8-3.5-0.8C572.1,289.4,570.1,289.8,568.2,290.5L568.2,290.5z"/>
<path class="st2" d="M608,307.8c-0.7,0-1.2,0-1.7,0s-1.1,0-1.7,0l0.1-3.9c-0.2,0.5-0.5,1-0.8,1.4c-0.5,0.7-1.2,1.3-2,1.8
	c-0.4,0.2-0.9,0.4-1.3,0.6c-0.6,0.2-1.1,0.3-1.7,0.4c-0.7,0.1-1.4,0.2-2.1,0.2c-1.4,0-2.9-0.2-4.2-0.7c-1.1-0.4-2-1.2-2.7-2.1
	c-0.7-1.1-1-2.4-0.9-3.8c0-0.2,0-0.6,0-1.2s0.1-1.3,0.1-2.3l0.3-6.7l0.1-2.2c0-0.5,0-1.1,0-1.9h1.9h1.7c-0.2,2.4-0.4,4.9-0.5,7.7
	c-0.2,2.8-0.3,4.6-0.3,5.4c0,1,0.2,2,0.6,2.8c0.4,0.7,1.1,1.3,1.9,1.6c1,0.4,2,0.6,3,0.6c1,0,2-0.2,2.9-0.5c0.7-0.3,1.4-0.7,2-1.3
	c0.6-0.6,1.1-1.4,1.5-2.2c0.3-0.8,0.5-1.7,0.6-2.6c0.1-0.8,0.2-2.1,0.3-4.1c0.1-2.4,0.2-4.9,0.2-7.4h1.9h1.7
	c-0.2,2.4-0.4,6.1-0.7,11C608,301.1,608,304.2,608,307.8z"/>
<path class="st2" d="M613.9,307.8l0.3-5.1l0.4-8.7l0.2-6.7h1.9h1.8c-0.2,2.1-0.3,4.3-0.4,6.6s-0.2,4.8-0.3,7.5s-0.1,4.8-0.1,6.3
	c-0.8,0-1.5,0-1.8,0S614.9,307.7,613.9,307.8z M614.8,282.9c0-1.3,0.1-2.2,0.1-2.9c0.7,0,1.4,0,2,0s1.4,0,1.9,0
	c0,0.4-0.1,1.4-0.1,2.9h-1.9H614.8z"/>
<path class="st2" d="M622.5,307.4l-0.1-1.5c0-0.2,0-0.7-0.2-1.5c1.8,0.8,3.7,1.3,5.7,1.4c0.8,0,1.6-0.1,2.3-0.4
	c0.6-0.2,1.1-0.6,1.4-1.1c0.3-0.4,0.5-1,0.5-1.5c0-0.3,0-0.6-0.1-0.8c-0.1-0.3-0.2-0.6-0.4-0.8c-0.2-0.3-0.5-0.6-0.8-0.9
	c-0.3-0.3-1.1-0.9-2.1-1.8s-1.9-1.6-2.5-2c-0.5-0.5-1-1-1.4-1.5c-0.4-0.5-0.7-1-0.9-1.6c-0.2-0.5-0.3-1-0.3-1.6
	c0-0.9,0.3-1.8,0.8-2.5c0.6-0.8,1.4-1.5,2.4-1.8c1.2-0.4,2.4-0.6,3.6-0.6c1.7,0,3.4,0.2,5.1,0.5c0.1,1.1,0.1,2,0.2,2.9
	c-1.4-0.6-2.9-0.9-4.5-0.9c-0.7,0-1.5,0.1-2.2,0.3c-0.6,0.1-1.1,0.5-1.5,0.9c-0.3,0.4-0.5,0.9-0.5,1.4c0,0.3,0.1,0.6,0.2,0.9
	c0.1,0.4,0.3,0.7,0.6,1c0.3,0.4,0.6,0.7,1,1c0.4,0.3,1.2,1,2.3,1.9c0.8,0.6,1.6,1.3,2.4,2c0.4,0.4,0.8,0.9,1.1,1.4
	c0.3,0.4,0.5,0.9,0.7,1.4c0.1,0.5,0.2,0.9,0.2,1.4c0,0.9-0.3,1.9-0.8,2.6c-0.6,0.9-1.5,1.5-2.5,1.9c-1.2,0.5-2.4,0.7-3.7,0.7
	c-0.7,0-1.3,0-2-0.1c-0.8-0.1-1.4-0.2-2-0.3S623.4,307.6,622.5,307.4z"/>
<path class="st2" d="M651.1,307.8c0-0.5,0.1-1.4,0.1-2.8c2.2-2.2,4.3-4.2,6.2-6.2s3.6-3.9,5.1-5.8c1-1.2,1.9-2.4,2.7-3.8
	c0.3-0.5,0.5-1,0.7-1.5c0.1-0.4,0.2-0.8,0.2-1.3c0-0.8-0.3-1.7-0.8-2.3c-0.6-0.6-1.3-1.1-2.1-1.3c-1-0.3-2-0.5-3.1-0.4
	c-2.5,0.1-5,0.5-7.4,1.1c0.2-1,0.3-1.9,0.5-2.9c2.6-0.5,5.3-0.8,8-0.8c1.2,0,2.4,0.1,3.5,0.4c1.1,0.2,2.1,0.6,3,1.2
	c0.8,0.5,1.4,1.2,1.9,2c0.4,0.8,0.6,1.6,0.6,2.5c0,0.5,0,1-0.2,1.5c-0.1,0.5-0.2,0.9-0.4,1.4c-0.4,0.9-0.9,1.8-1.4,2.6
	c-0.9,1.3-1.9,2.6-2.9,3.8c-1.3,1.6-2.8,3.3-4.3,4.9c-1.5,1.6-3.3,3.4-5.2,5.3c0.9,0,2.5,0,4.8,0c1.3,0,2.7,0,4.3,0s3-0.1,4.3-0.2
	c-0.1,1.2-0.2,2.1-0.2,2.8c-2.4,0-5.3,0-8.6,0h-3.7L651.1,307.8z"/>
<path class="st2" d="M685.5,279.8c1,0,1.9,0.1,2.8,0.4c1,0.3,1.8,0.8,2.6,1.4c0.9,0.7,1.6,1.7,2.1,2.7c0.6,1.2,1,2.5,1.3,3.8
	c0.3,1.4,0.4,2.9,0.4,4.4c0,2.1-0.2,4.1-0.7,6.1c-0.4,1.8-1,3.6-1.9,5.2c-0.8,1.4-1.9,2.5-3.4,3.3c-1.4,0.7-3,1.1-4.6,1.1
	c-1.8,0-3.5-0.5-5-1.4c-1.5-1.1-2.6-2.5-3.2-4.3c-0.8-2.1-1.1-4.3-1.1-6.6c0-2.1,0.2-4.2,0.6-6.3c0.3-1.9,1-3.7,1.9-5.4
	c0.8-1.5,2-2.6,3.4-3.4C682.3,280.1,683.9,279.8,685.5,279.8z M685.3,282.4c-0.6,0-1.2,0.1-1.8,0.3c-0.6,0.3-1.2,0.6-1.7,1.1
	c-0.5,0.5-1,1.1-1.4,1.7c-0.4,0.8-0.7,1.6-1,2.5c-0.4,1.2-0.6,2.5-0.8,3.7c-0.2,1.5-0.3,2.9-0.3,4.4c0,1.2,0.1,2.5,0.3,3.7
	c0.2,0.9,0.5,1.8,0.9,2.7c0.3,0.6,0.7,1.2,1.2,1.7c0.5,0.5,1,0.8,1.6,1.1c1.2,0.5,2.5,0.5,3.7,0c0.7-0.3,1.3-0.8,1.8-1.3
	c0.7-0.8,1.3-1.8,1.6-2.8c0.5-1.3,0.9-2.7,1.1-4.2c0.2-1.6,0.3-3.1,0.3-4.7c0-1.2-0.1-2.3-0.2-3.5c-0.1-1-0.4-1.9-0.8-2.8
	c-0.3-0.8-0.8-1.5-1.4-2.1c-0.5-0.5-1-0.9-1.7-1.2C686.6,282.5,686,282.3,685.3,282.4z"/>
<path class="st2" d="M709.5,279.8c1,0,1.9,0.1,2.8,0.4c1,0.3,1.8,0.8,2.6,1.4c0.9,0.7,1.6,1.7,2.1,2.7c0.6,1.2,1,2.5,1.3,3.8
	c0.3,1.4,0.4,2.9,0.4,4.4c0,2.1-0.2,4.1-0.7,6.1c-0.4,1.8-1,3.6-1.9,5.2c-0.8,1.4-1.9,2.6-3.4,3.3c-1.4,0.7-3,1.1-4.6,1.1
	c-1.8,0-3.5-0.5-5-1.4c-1.5-1.1-2.6-2.5-3.2-4.3c-0.8-2.1-1.2-4.3-1.1-6.5c0-2.1,0.2-4.2,0.6-6.3c0.3-1.9,1-3.7,1.9-5.4
	c0.8-1.5,2-2.6,3.4-3.4C706.3,280.2,707.9,279.8,709.5,279.8z M709.4,282.4c-0.6,0-1.2,0.1-1.8,0.3c-0.6,0.3-1.2,0.6-1.7,1.1
	c-0.5,0.5-1,1.1-1.3,1.7c-0.4,0.8-0.8,1.6-1,2.5c-0.4,1.2-0.6,2.5-0.8,3.7c-0.2,1.5-0.3,2.9-0.3,4.4c0,1.2,0.1,2.5,0.3,3.7
	c0.2,0.9,0.5,1.8,0.9,2.7c0.3,0.6,0.7,1.2,1.2,1.7c0.5,0.5,1,0.8,1.6,1.1c0.6,0.2,1.2,0.3,1.8,0.3c0.7,0,1.3-0.1,1.9-0.4
	c0.7-0.3,1.3-0.8,1.8-1.3c0.7-0.8,1.3-1.8,1.6-2.8c0.5-1.3,0.9-2.7,1.1-4.2c0.2-1.6,0.3-3.1,0.3-4.7c0-1.2-0.1-2.3-0.2-3.5
	c-0.1-1-0.4-1.9-0.8-2.8c-0.3-0.8-0.8-1.5-1.3-2.1C712,282.9,710.8,282.3,709.4,282.4L709.4,282.4z"/>
<path class="st2" d="M724.2,307.4c-0.1-1.1-0.2-2.1-0.3-3c1.1,0.3,2.3,0.6,3.4,0.8c0.8,0.1,1.7,0.2,2.6,0.2c1.1,0,2.2-0.1,3.2-0.4
	c1-0.3,1.9-0.7,2.7-1.4c0.7-0.6,1.3-1.4,1.7-2.2c0.4-0.8,0.6-1.8,0.6-2.7c0-1-0.3-1.9-0.8-2.7c-0.6-0.8-1.4-1.4-2.4-1.8
	c-1.3-0.4-2.6-0.6-4-0.6c-2,0-4.1,0.2-6.1,0.6l1.3-14.1h8.1h3h4.7c-0.1,0.8-0.1,1.7-0.2,2.8l-2.5-0.1h-1.5l-2.7-0.1h-3.6h-1.8
	l-0.8,9.1c1.3-0.2,2.5-0.3,3.8-0.3c1.2,0,2.3,0.1,3.5,0.3c0.9,0.2,1.8,0.4,2.6,0.8c0.7,0.4,1.4,0.8,1.9,1.4c0.6,0.6,1,1.3,1.3,2.1
	c0.3,0.8,0.4,1.6,0.4,2.5c0,2.8-1.4,5.4-3.6,7.1c-1.2,0.8-2.5,1.5-3.9,1.8c-1.5,0.4-3,0.6-4.5,0.6c-0.5,0-1.2,0-2-0.1
	s-1.5-0.1-2-0.2S725,307.6,724.2,307.4z"/>
<line class="st3" x1="488.1" y1="42" x2="488.1" y2="366.6"/>
<path class="st0" d="M511.9,92.2l0.4-5.9l0.8-20.3l0.1-4.4c0-0.7,0-1.4,0-2v-2.9c2.2,0,3.9,0,5.3,0c0.8,0,2.1,0,3.7,0s2.9,0,3.8,0
	c1.6-0.1,3.3,0.1,4.9,0.5c1,0.3,2,0.9,2.8,1.6c0.8,0.8,1.5,1.7,1.9,2.8c0.5,1.2,0.7,2.4,0.7,3.7c0,2.1-0.5,4.1-1.7,5.9
	c-1.1,1.7-2.7,3-4.5,3.8c-2,0.9-4.2,1.3-6.4,1.3c-1.4,0-2.8-0.2-4.2-0.4c-0.2-1.1-0.5-2.2-0.9-3.2c1.3,0.3,2.7,0.4,4,0.4
	c1.2,0,2.4-0.1,3.6-0.4c1.1-0.3,2.1-0.7,2.9-1.4c0.8-0.7,1.5-1.5,1.9-2.5c0.5-1,0.7-2.1,0.7-3.2c0-0.8-0.2-1.7-0.5-2.5
	c-0.3-0.7-0.8-1.3-1.4-1.8c-0.6-0.4-1.3-0.8-2-0.9c-1.1-0.2-2.1-0.3-3.2-0.2h-2.2l-2.7,0h-2c-0.2,3.8-0.3,7.2-0.4,10.3l-0.4,10.7
	c-0.1,4-0.2,6.7-0.2,8.1v2.9h-2.4L511.9,92.2z"/>
<path class="st0" d="M540,92.2l0.5-7l0.6-12.9l0.3-10.8c0-2.2,0.1-3.8,0.1-4.7c2.1,0,3.8,0,5.2,0c1.2,0,2.5,0,3.9,0s2.6,0,3.5,0
	c1.5,0,2.9,0.1,4.4,0.3c1.3,0.2,2.5,0.7,3.6,1.5c1,0.7,1.8,1.7,2.3,2.8c0.5,1.1,0.8,2.4,0.7,3.6c0,1.2-0.2,2.4-0.6,3.6
	c-0.4,1.1-1,2.1-1.7,3c-0.7,0.9-1.7,1.6-2.7,2.2c-0.9,0.5-2,0.8-3,1.1c-0.8,0.2-1.9,0.3-3.3,0.5l4.6,7.3l4.7,7.3
	c0.3,0.5,0.8,1.3,1.4,2.3h-2.7H559l-1.9-3.6c-0.4-0.7-0.8-1.4-1.1-2s-0.8-1.4-1.3-2.2l-5.9-9.6c-0.2-0.4-0.6-1-1.2-2
	c1.2,0.2,2.3,0.3,3.5,0.4c1.6,0,3.2-0.3,4.7-0.9c1.3-0.5,2.5-1.4,3.3-2.7c0.8-1.2,1.2-2.6,1.2-4c0-0.8-0.1-1.5-0.4-2.2
	c-0.2-0.7-0.6-1.3-1.2-1.7c-0.5-0.4-1-0.8-1.5-1c-0.6-0.2-1.3-0.4-2-0.5c-0.8-0.1-1.7-0.2-2.6-0.2l-3.7,0c-1.6,0-2.6,0-3,0
	c-0.5,11.6-0.9,22.3-1,32.1h-2.5L540,92.2z"/>
<path class="st0" d="M590.7,56.2c2.5,0,4.9,0.4,7.3,1.1c2.3,0.8,4.4,2,6.1,3.7c1.7,1.6,3,3.6,3.8,5.8c0.8,2.2,1.1,4.6,1.1,6.9
	c0,2.6-0.4,5.2-1.2,7.7c-0.8,2.4-2.1,4.5-3.8,6.3c-1.8,1.7-4,3-6.4,3.8c-5.1,1.7-10.5,1.7-15.6,0.1c-2.3-0.7-4.4-1.9-6.2-3.6
	c-1.7-1.6-3-3.5-3.7-5.7c-0.8-2.3-1.2-4.6-1.1-7c0-2.7,0.5-5.3,1.4-7.8c0.8-2.4,2.2-4.5,4.1-6.3c1.8-1.7,4.1-3.1,6.5-3.8
	C585.4,56.5,588,56.1,590.7,56.2z M590.5,59.6c-2,0-4,0.3-5.9,1c-1.8,0.7-3.5,1.8-4.8,3.2c-1.4,1.5-2.4,3.2-3.1,5.2
	c-0.7,2-1,4.1-1,6.2c0,2,0.3,3.9,1,5.8c0.6,1.7,1.6,3.3,2.9,4.6c1.3,1.2,2.9,2.2,4.6,2.7c1.8,0.6,3.7,0.9,5.6,0.9c2,0,3.9-0.3,5.8-1
	c1.8-0.6,3.4-1.6,4.7-3c1.4-1.4,2.4-3.1,3-5c0.7-2,1-4.1,1-6.2c0-2-0.3-4-0.9-5.8c-0.6-1.8-1.5-3.4-2.9-4.8
	c-1.3-1.3-2.8-2.3-4.5-2.9C594.2,59.9,592.3,59.6,590.5,59.6z"/>
<path class="st0" d="M610.9,91.8c-0.1-1.4-0.2-2.7-0.3-4c1.4,0.4,2.8,0.8,4.2,1.1c1,0.2,1.9,0.3,2.9,0.3c0.9,0,1.8-0.1,2.6-0.3
	c0.7-0.2,1.3-0.5,1.9-0.8c0.4-0.3,0.8-0.6,1.1-0.9c0.4-0.5,0.8-1.1,1-1.7c0.3-0.7,0.5-1.5,0.6-2.3c0.2-1.2,0.3-3.8,0.5-7.5l0.3-9.2
	l0.2-9.7h2.5h2.6c-0.4,5.4-0.6,10.2-0.8,14.3l-0.4,9.8c0,1.9-0.2,3.8-0.6,5.6c-0.3,1.2-0.9,2.4-1.8,3.3c-1,1-2.2,1.7-3.5,2.2
	c-1.6,0.6-3.3,0.8-5,0.8C616.1,92.7,613.5,92.4,610.9,91.8z"/>
<path class="st0" d="M637.3,92.2l0.7-9.8l0.7-18.3l0.1-4c0-1,0-2.2,0-3.5c3.9,0,7.9,0,12,0h8.3h2.6c-0.1,1.2-0.2,2.4-0.2,3.6
	l-2.3-0.1c-0.6,0-1.6-0.1-3-0.1h-4.1c-4.1,0-6.9,0-8.5,0.1l-0.5,12.1c2.7,0.1,5.1,0.1,7.2,0.1c2.3,0,5.3,0,9.1-0.1
	c-0.1,1.2-0.2,2.4-0.2,3.6l-8.9-0.1c-1.7,0-4.2,0-7.3,0.1l-0.5,12.8h2.7c4.9,0,8.2,0,9.8-0.1s3.5-0.1,5.6-0.2
	c-0.1,1.3-0.2,2.5-0.2,3.7c-4.2,0-7.7,0-10.6,0L637.3,92.2z"/>
<path class="st0" d="M675.5,92.2l0.5-7.9l0.7-16.5l0.2-7.6c-4.2,0-8,0.1-11.1,0.2c0.1-1.4,0.2-2.6,0.2-3.7c4.4,0,9.1,0,14.2,0h8.3
	h4.4c-0.1,1.5-0.2,2.8-0.2,3.7c-2.7-0.2-5.7-0.2-8.9-0.2h-2.1l-0.5,11.5l-0.5,16.2v4.3h-2.5H675.5z"/>
<path class="st0" d="M694.3,91.2c-0.1-1.6-0.2-3.1-0.3-4.3c1.6,0.8,3.2,1.4,4.9,1.8c1.4,0.3,2.8,0.5,4.2,0.5c1.2,0,2.5-0.2,3.6-0.7
	c1-0.4,1.9-1,2.5-1.9c0.6-0.8,0.9-1.8,0.8-2.8c0-0.6-0.1-1.2-0.3-1.7c-0.2-0.6-0.5-1.1-0.9-1.6c-0.7-0.8-1.4-1.5-2.2-2.2
	c-1-0.9-2.5-2.2-4.5-3.8l-1.9-1.7c-0.7-0.6-1.4-1.2-2-1.8c-0.5-0.6-1-1.1-1.5-1.8c-0.4-0.5-0.7-1-0.9-1.5c-0.2-0.5-0.4-1-0.5-1.5
	c-0.1-0.6-0.2-1.1-0.2-1.7c0-1.5,0.4-2.9,1.2-4.2c0.9-1.4,2.2-2.5,3.7-3.1c2-0.9,4.3-1.3,6.5-1.2c2.4,0,4.8,0.3,7.1,0.8
	c0,1.1,0.2,2.5,0.4,4.1c-2.3-0.9-4.8-1.3-7.2-1.4c-1.3,0-2.6,0.2-3.7,0.7c-0.9,0.4-1.7,1.1-2.3,1.9c-0.5,0.7-0.8,1.5-0.8,2.4
	c0,0.5,0.1,1,0.2,1.4c0.1,0.5,0.4,0.9,0.6,1.3c0.4,0.7,0.9,1.3,1.5,1.8c0.6,0.6,1.4,1.4,2.4,2.2l3,2.4c1.7,1.4,3,2.5,3.8,3.3
	c0.7,0.7,1.3,1.4,1.9,2.2c0.5,0.7,0.9,1.4,1.1,2.2c0.3,0.8,0.4,1.7,0.4,2.5c0,1.3-0.3,2.6-0.9,3.8c-0.6,1.2-1.5,2.1-2.6,2.9
	c-1.1,0.8-2.4,1.3-3.7,1.6c-1.4,0.3-2.8,0.5-4.3,0.5c-1.2,0-2.5-0.1-3.7-0.3C697.9,92.2,696.1,91.7,694.3,91.2z"/>
<path class="st0" d="M511.9,145.3l0.5-7l0.6-12.9l0.3-10.8c0-2.2,0-3.8,0-4.7c2.1,0,3.8,0.1,5.2,0.1c1.2,0,2.5,0,3.9-0.1
	s2.6,0,3.5,0c1.5,0,2.9,0.1,4.4,0.3c1.3,0.2,2.5,0.7,3.6,1.5c1,0.7,1.8,1.7,2.3,2.8c0.5,1.1,0.8,2.4,0.7,3.6c0,1.2-0.2,2.4-0.6,3.6
	c-0.8,2.2-2.3,4.1-4.4,5.2c-0.9,0.5-2,0.8-3,1.1c-0.8,0.2-1.9,0.3-3.3,0.5l4.6,7.3l4.7,7.2c0.3,0.5,0.8,1.3,1.4,2.3
	c-1.3,0-2.2-0.1-2.7-0.1s-1.4,0-2.8,0.1l-1.9-3.6c-0.4-0.7-0.8-1.4-1.2-2.1s-0.8-1.4-1.3-2.2l-5.8-9.6c-0.2-0.4-0.6-1-1.2-2
	c1.2,0.2,2.3,0.4,3.5,0.4c1.6,0,3.2-0.3,4.7-0.9c1.3-0.5,2.5-1.4,3.3-2.7c0.8-1.2,1.2-2.6,1.2-4c0-0.8-0.1-1.5-0.4-2.2
	c-0.2-0.7-0.6-1.3-1.2-1.7c-0.5-0.4-1-0.8-1.6-1c-0.6-0.2-1.3-0.4-2-0.5c-0.8-0.1-1.7-0.2-2.6-0.2H521c-1.6,0-2.6,0-3,0
	c-0.5,11.6-0.9,22.3-1,32.1l-2.5-0.1C514,145.3,513.2,145.3,511.9,145.3z"/>
<path class="st0" d="M542,145.3l0.7-9.8l0.7-18.3l0.1-4c0-1,0-2.2,0-3.5c3.9,0,7.9,0,12,0h8.3h2.7c-0.1,1.2-0.2,2.4-0.2,3.6
	l-2.3-0.1c-0.6,0-1.5-0.1-2.9-0.1s-2.8,0-4.1,0c-4.1,0-6.9,0-8.5,0.1l-0.5,12.2c2.7,0.1,5.1,0.1,7.2,0.1c2.3,0,5.3,0,9.1-0.1
	c-0.1,1.2-0.2,2.4-0.2,3.6l-8.9-0.1c-1.8,0-4.2,0-7.3,0.1l-0.5,12.8h2.7c4.9,0,8.2,0,9.8,0s3.5-0.1,5.6-0.2
	c-0.1,1.3-0.2,2.5-0.2,3.7c-4.2,0-7.7-0.1-10.6-0.1L542,145.3z M552.9,106.6l2.4-6.8c0.8,0,1.7,0,2.6,0s1.7,0,2.7,0
	c-1.2,1.6-2.6,3.9-4.5,6.8c-0.5,0-1,0-1.6,0S553.4,106.5,552.9,106.6z"/>
<path class="st0" d="M567.4,145.3l4.7-8.9l12-23.6l1.4-3h3h3l4.5,12.7l8.3,22.7l-2.5-0.1c-0.5,0-1.4,0-2.8,0.1
	c-0.5-1.7-1.2-4.1-2.3-7.2c-1.1-3.1-2-5.7-2.7-7.7h-14.1l-3.8,7.8l-3.3,7.1l-2.7-0.1C569.7,145.3,568.8,145.3,567.4,145.3z
	 M581.4,127h11.7l-4.8-13.7L581.4,127z"/>
<path class="st0" d="M609,145.3c0.4-4.5,0.7-9.9,1-16.4c0.3-6.4,0.4-12.8,0.5-19.1h2.7h2.4l-0.8,16.5l-0.6,15.5h4.9
	c3.7,0,6.3,0,7.8,0s2.9-0.1,4.3-0.2c-0.1,1.1-0.2,2.3-0.3,3.7c-3.9,0-7.4-0.1-10.4-0.1L609,145.3z"/>
<path class="st0" d="M635.3,145.3l0.4-6l0.5-12.4l0.4-12.3c0-0.7,0-1.4,0-2.1v-2.7h2.7h2.5c-0.3,4.3-0.5,8.8-0.7,13.6
	c-0.3,7.5-0.5,14.8-0.6,21.9l-2.4-0.1C637.7,145.3,636.8,145.3,635.3,145.3z"/>
<path class="st0" d="M647,144.4c-0.1-1.6-0.2-3.1-0.3-4.3c1.6,0.8,3.3,1.4,5,1.8c1.4,0.3,2.8,0.5,4.2,0.5c1.2,0,2.5-0.2,3.6-0.7
	c1-0.4,1.9-1,2.5-1.9c0.6-0.8,0.9-1.8,0.8-2.8c0-0.6-0.1-1.2-0.3-1.7c-0.2-0.6-0.5-1.1-0.9-1.6c-0.7-0.8-1.4-1.5-2.2-2.2
	c-1-0.9-2.5-2.2-4.5-3.8l-1.9-1.6c-0.7-0.6-1.4-1.2-2-1.9c-0.5-0.5-1-1.1-1.5-1.8c-0.3-0.5-0.7-1-0.9-1.5c-0.2-0.5-0.4-1-0.5-1.5
	c-0.1-0.6-0.2-1.1-0.2-1.7c0-1.5,0.4-2.9,1.2-4.2c0.9-1.4,2.2-2.5,3.7-3.1c2-0.9,4.3-1.3,6.5-1.2c2.4,0,4.8,0.3,7.1,0.8
	c0,1.1,0.2,2.5,0.4,4.1c-2.3-0.9-4.7-1.3-7.2-1.4c-1.3,0-2.6,0.2-3.7,0.7c-0.9,0.4-1.7,1.1-2.3,1.9c-0.5,0.7-0.8,1.5-0.8,2.4
	c0,1,0.3,1.9,0.8,2.7c0.4,0.7,0.9,1.3,1.5,1.8c0.8,0.8,1.6,1.5,2.4,2.3l3,2.4c1.7,1.4,3,2.5,3.8,3.3c0.7,0.7,1.3,1.4,1.9,2.2
	c0.5,0.7,0.8,1.4,1.1,2.2c0.3,0.8,0.4,1.7,0.4,2.5c0,1.3-0.3,2.6-0.9,3.8c-0.6,1.2-1.5,2.2-2.6,2.9c-1.1,0.7-2.4,1.3-3.7,1.6
	c-1.4,0.3-2.8,0.5-4.3,0.5c-1.2,0-2.5-0.1-3.7-0.3C650.7,145.3,648.8,144.9,647,144.4z"/>
<path class="st0" d="M673.8,145.3l0.7-9.8l0.7-18.3l0.1-4c0-1,0-2.2,0-3.5c3.9,0,7.9,0,12,0h8.3h2.6c-0.1,1.2-0.2,2.4-0.2,3.6
	l-2.3-0.1c-0.6,0-1.5-0.1-3-0.1s-2.8,0-4.1,0c-4.1,0-6.9,0-8.5,0.1l-0.4,12.2c2.7,0.1,5.1,0.1,7.2,0.1c2.3,0,5.3,0,9.1-0.1
	c-0.1,1.2-0.2,2.4-0.2,3.6l-8.9-0.1c-1.8,0-4.2,0-7.3,0.1l-0.5,12.8h2.7c4.9,0,8.2,0,9.8,0s3.5-0.1,5.6-0.2
	c-0.1,1.3-0.2,2.5-0.2,3.7c-4.2,0-7.7-0.1-10.6-0.1L673.8,145.3z M684.6,106.6l2.4-6.8c0.8,0,1.7,0,2.6,0s1.7,0,2.7,0
	c-1.1,1.6-2.6,3.9-4.5,6.8c-0.5,0-1,0-1.6,0S685.1,106.5,684.6,106.6z"/>
<path class="st0" d="M702.4,144.4c-0.1-1.6-0.2-3.1-0.3-4.3c1.6,0.8,3.3,1.4,5,1.8c1.4,0.3,2.8,0.5,4.2,0.5c1.2,0,2.5-0.2,3.6-0.7
	c1-0.4,1.9-1,2.5-1.9c0.6-0.8,0.9-1.8,0.8-2.8c0-0.6-0.1-1.2-0.3-1.7c-0.2-0.6-0.5-1.1-0.9-1.6c-0.7-0.8-1.4-1.5-2.2-2.2
	c-1-0.9-2.5-2.2-4.5-3.8l-1.9-1.6c-0.7-0.6-1.4-1.2-2-1.9c-0.5-0.5-1-1.1-1.5-1.8c-0.4-0.5-0.7-1-0.9-1.5c-0.2-0.5-0.4-1-0.5-1.5
	c-0.1-0.6-0.2-1.1-0.2-1.7c0-1.5,0.4-2.9,1.2-4.2c0.9-1.4,2.2-2.5,3.7-3.1c2-0.9,4.3-1.3,6.5-1.2c2.4,0,4.8,0.3,7.1,0.8
	c0,1.1,0.2,2.5,0.4,4.1c-2.3-0.9-4.8-1.3-7.2-1.4c-1.3,0-2.6,0.2-3.7,0.7c-0.9,0.4-1.7,1.1-2.3,1.9c-0.5,0.7-0.8,1.5-0.8,2.4
	c0,0.5,0.1,1,0.2,1.4c0.1,0.5,0.4,0.9,0.6,1.3c0.4,0.7,0.9,1.3,1.5,1.8c0.8,0.8,1.6,1.5,2.4,2.3l3,2.4c1.7,1.4,3,2.5,3.8,3.3
	c0.7,0.7,1.3,1.4,1.9,2.2c0.5,0.7,0.8,1.4,1.1,2.2c0.3,0.8,0.4,1.7,0.4,2.5c0,1.3-0.3,2.6-0.9,3.8c-0.6,1.2-1.5,2.2-2.6,2.9
	c-1.1,0.7-2.4,1.3-3.7,1.6c-1.4,0.3-2.8,0.5-4.3,0.5c-1.2,0-2.5-0.1-3.7-0.3C706,145.3,704.2,144.9,702.4,144.4z"/>
<polygon class="st0" points="309,66.4 360.8,106.9 363.7,105.3 311.8,64.8 "/>
<path class="st0" d="M299.8,68.6l1.4-1.5c1.9-2,5-2.1,7-0.2l52.6,41.8l-8.1,8.7l-52.6-41.8C298.1,73.7,298,70.6,299.8,68.6z"/>
<path class="st4" d="M301.9,59.4l-86.4,18l2.1,10l88.2-9.2l0,0l16.6-6.2c0.6-0.2,1-0.9,0.8-1.5l-0.6-2.8c-0.2-1.1-1-1.9-2.1-2.3
	L301.9,59.4z"/>
<path class="st0" d="M299.6,67.4c0.9-1.7,3.1-2.4,4.8-1.4c1.7,0.9,2.4,3.1,1.4,4.8c-0.9,1.7-3.1,2.3-4.8,1.4
	C299.3,71.2,298.7,69.1,299.6,67.4C299.6,67.4,299.6,67.4,299.6,67.4z"/>
<path class="st5" d="M218.9,67.8l-0.1,16.8c0,1.4-1.2,2.5-2.6,2.5c-0.1,0-0.2,0-0.4,0L173.9,81l-2.5,2c-0.2,0.2-0.5,0.3-0.8,0.3
	l-1.6,0.2c-0.4,0.1-0.8-0.2-0.8-0.6c0-0.2,0-0.4,0.2-0.6c3.2-3.9,12.4-15,19-23.1c2.4-2.9,6.3-4.2,10-3.4l14.7,3.5
	C216.1,60.3,218.9,63.8,218.9,67.8z"/>
<path class="st6" d="M360.4,101.7L360.4,101.7c3.9,2.3,6.3,6.6,6.1,11.2l-1.6,48.9l-19.6-11.5l8.2-45.5c0.4-2.5,2.8-4.2,5.3-3.7
	C359.4,101.3,359.9,101.5,360.4,101.7z"/>
<path class="st0" d="M209.6,79.9c-1.1,3.5,0.8,7.2,4.2,8.3c3.5,1.1,7.2-0.8,8.3-4.2c1.1-3.5-0.8-7.2-4.2-8.3c0,0,0,0,0,0
	C214.4,74.5,210.7,76.4,209.6,79.9z"/>
<path class="st7" d="M439.2,199.8L320.4,186c-7.2-0.8-13.7,4.4-14.6,11.6l0,0c-0.8,7.2,4.4,13.7,11.6,14.6l118.8,13.8"/>
<line class="st8" x1="439.2" y1="199.8" x2="435.2" y2="199.3"/>
<path class="st9" d="M428.7,198.6L320.4,186c-7.2-0.8-13.7,4.4-14.6,11.6l0,0c-0.8,7.2,4.4,13.7,11.6,14.6l111.5,12.9"/>
<line class="st8" x1="432.2" y1="225.4" x2="436.2" y2="225.9"/>
<path class="st10" d="M438.5,208.8c-2.3-0.2-4.3,1.5-4.5,3.8c-0.2,2.2,1.4,4.1,3.5,4.4"/>
<circle class="st10" cx="378.6" cy="206" r="4.1"/>
<circle class="st10" cx="319.2" cy="199.1" r="4.1"/>
<path class="st0" d="M354.7,189.3l70.1,8.1c1.5,0.2,2.8-0.6,2.9-1.7l0.9-8c0.1-1.1-1-2.1-2.5-2.3l-70.1-8.1
	c-1.5-0.2-2.8,0.6-2.9,1.7l-0.9,8C352.1,188.1,353.2,189.1,354.7,189.3z"/>
<path class="st5" d="M413.4,157.8l6.6-57.5c0.3-2.7-1.7-5.2-4.4-5.5L383,91.1c-3.9-0.4-7.4,2.3-7.9,6.2l-16.3,54.2"/>
<path class="st5" d="M437.8,160.5l-98.8-11.6c-3.5-0.4-6.6,2.1-7,5.6l-1.8,15.4c-0.4,3.5,2.1,6.6,5.6,7l104.2,12.1"/>
<path class="st0" d="M358.1,109.2c0.6-1.2,2.1-1.6,3.3-1c1.2,0.6,1.6,2.1,1,3.3c-0.6,1.2-2.1,1.6-3.3,1
	C357.9,111.8,357.5,110.4,358.1,109.2z"/>
<path class="st8" d="M437.8,227.5l-113.4-12.7c-5.2-0.3-10.1,2.2-12.9,6.6c-4.9,7.6-32.5,76.9-32.5,76.9s-4.9,9.6-13,9.6H125"/>
<path class="st0" d="M122.8,284.9h126.4c3.5,0,6.3-2.8,6.3-6.3v-44.7c0-3.5-2.8-6.3-6.3-6.3H122.8"/>
<path class="st11" d="M122.8,271h134.8c3.5,0,6.3-2.8,6.3-6.3v-2.8c0-3.5-2.8-6.3-6.3-6.3H122.8"/>
<circle class="st12" cx="172.9" cy="281.1" r="23.3"/>
<circle class="st0" cx="172.9" cy="281.1" r="14.5"/>
<circle class="st12" cx="230.9" cy="281.1" r="23.3"/>
<circle class="st0" cx="230.9" cy="281.1" r="14.5"/>
<path class="st11" d="M122.8,293.8h14.8c3.5,0,6.3-2.8,6.3-6.3v-17.9c0-3.5-2.8-6.3-6.3-6.3h-14.8"/>
<polyline class="st13" points="122.8,167.2 263.5,167.2 265.8,167.2 272.5,167.2 265.8,173.9 265.8,243.1 122.8,243.1 "/>
<line class="st8" x1="236.7" y1="178.4" x2="236.7" y2="232"/>
<line class="st8" x1="209.9" y1="178.4" x2="209.9" y2="232"/>
<line class="st8" x1="183.1" y1="178.4" x2="183.1" y2="232"/>
<line class="st8" x1="156.3" y1="178.4" x2="156.3" y2="232"/>
<line class="st8" x1="129.5" y1="178.4" x2="129.5" y2="232"/>
<rect class="st14" width="865" height="402"/>
</svg>
