<?xml version="1.0" encoding="utf-8"?>
<!-- Generator: Adobe Illustrator 21.0.0, SVG Export Plug-In . SVG Version: 6.00 Build 0)  -->
<svg version="1.1" id="Layer_1" xmlns="http://www.w3.org/2000/svg" xmlns:xlink="http://www.w3.org/1999/xlink" x="0px" y="0px"
	 viewBox="0 0 866.3 402" style="enable-background:new 0 0 866.3 402;" xml:space="preserve">
<style type="text/css">
	.st0{fill:none;}
	.st1{fill:#EB1C24;}
	.st2{fill:#808083;}
	.st3{fill:#0060AD;}
	.st4{fill:none;stroke:#E61D28;stroke-width:2.95;stroke-miterlimit:10;}
	.st5{fill:#0060A9;}
	.st6{fill:#FFFFFF;}
	.st7{fill:none;stroke:#0060AD;stroke-width:4.54;stroke-miterlimit:10;}
	.st8{fill:none;stroke:#0060AD;stroke-width:2.23;stroke-miterlimit:10;}
	.st9{fill:#FFFFFF;stroke:#0060AD;stroke-width:5.03;stroke-miterlimit:10;}
	.st10{fill:#FFFFFF;stroke:#0060AD;stroke-width:5.03;stroke-linecap:round;stroke-linejoin:round;}
	.st11{fill:#FFFFFF;stroke:#0060AD;stroke-width:4.54;stroke-miterlimit:10;}
	.st12{fill:#FFFFFF;stroke:#0060AD;stroke-width:4.54;stroke-linecap:round;stroke-linejoin:round;stroke-dasharray:6.83,5.47;}
</style>
<title>Chiffre 02</title>
<rect x="1.3" class="st0" width="865" height="402"/>
<path class="st1" d="M426,188.5h-0.3l-15.3,10.7c-1,0.6-1.5,0.4-1.5-0.8v-10c0-0.8,0.4-1.5,1-1.9l15.9-11.6c0.6-0.5,1.4-0.8,2.2-0.8
	h8.1c0.7-0.1,1.3,0.4,1.4,1c0,0.1,0,0.2,0,0.3v89.6c0.1,0.7-0.4,1.3-1,1.4c-0.1,0-0.2,0-0.3,0h-8.7c-0.7,0.1-1.3-0.4-1.4-1
	c0-0.1,0-0.2,0-0.3L426,188.5z"/>
<path class="st1" d="M505.3,185.1v-0.4h-28.1c-0.4-0.1-0.8,0.2-0.8,0.6c0,0.1,0,0.1,0,0.2v11.5c0.1,0.7-0.4,1.3-1,1.4
	c-0.1,0-0.2,0-0.3,0h-8.1c-0.7,0.1-1.3-0.4-1.4-1c0-0.1,0-0.2,0-0.3v-21.6c-0.1-0.7,0.4-1.3,1-1.4c0.1,0,0.2,0,0.3,0h49.3
	c0.7-0.1,1.3,0.4,1.4,1c0,0.1,0,0.2,0,0.3v8.4c0,0.5-0.1,0.9-0.3,1.4l-31.8,80c-0.1,0.4-0.3,0.7-0.6,1c-0.3,0.2-0.7,0.3-1.1,0.3
	h-9.1c-1,0-1.3-0.5-0.8-1.5L505.3,185.1z"/>
<path class="st1" d="M559.1,226.8l-0.3-0.3c-1.2,0.8-2.5,1.3-3.9,1.6c-1.8,0.4-3.6,0.6-5.5,0.6c-3.5,0-6.9-0.6-10.2-1.9
	c-3.1-1.2-6-3.1-8.3-5.5c-2.4-2.5-4.4-5.4-5.6-8.6c-1.4-3.6-2.1-7.5-2-11.4c-0.1-4.1,0.7-8.2,2.2-12.1c2.7-6.8,8.1-12.1,15-14.6
	c3.6-1.3,7.4-2,11.2-2c3.8,0,7.7,0.6,11.3,1.9c3.3,1.2,6.4,3.1,8.9,5.6c2.5,2.5,4.6,5.6,5.9,8.9c1.5,3.8,2.2,7.8,2.2,11.9
	c0,3.7-0.6,7.4-1.7,10.9c-1.1,3.5-2.6,6.9-4.4,10.2l-23.5,43.6c-0.4,0.6-1,1-1.8,1h-9.2c-1,0-1.3-0.5-0.8-1.4L559.1,226.8z
	 M551.6,218.1c5.1,0,9.1-1.6,12.1-4.8s4.5-7.4,4.5-12.6c0-5.2-1.5-9.4-4.5-12.6c-3-3.3-7-4.9-12.1-4.9c-5.1,0-9.1,1.6-12.2,4.9
	s-4.5,7.5-4.5,12.6c0,5.2,1.5,9.3,4.5,12.6S546.5,218.1,551.6,218.1L551.6,218.1z"/>
<path class="st2" d="M395.6,307.3l0.5-7.9l0.5-15.6c0-0.9,0-1.8,0-2.6v-1.4h4l-0.4,7.4l-0.6,16.5l-0.1,3.7h-2H395.6z M400.3,292.7
	l5.1-5.7l4.3-5c0.3-0.4,0.9-1.1,1.7-2.2h4.5l-9.9,10.9l-1.7,2l1.1,1.3c0.2,0.3,1.9,2.3,5.1,6.1l6.1,7.2h-2.3c-0.6,0-1.4,0-2.5,0
	l-2-2.7L400.3,292.7z"/>
<path class="st2" d="M421.4,307.3l0.4-5.1l0.4-8.7l0.2-6.7h1.9h1.8c-0.2,2.1-0.3,4.3-0.4,6.6s-0.2,4.8-0.3,7.5s-0.1,4.8-0.1,6.3
	c-0.9,0-1.5,0-1.8,0S422.4,307.3,421.4,307.3z M422.3,282.5c0-1.3,0.1-2.2,0.1-2.9c0.7,0,1.4,0,2,0s1.4,0,1.9,0
	c0,0.4-0.1,1.4-0.1,2.9h-1.9H422.3z"/>
<path class="st2" d="M432.7,307.3c0.3-4.1,0.5-9,0.8-14.7c0.2-4.1,0.3-8.4,0.4-12.8h3.7l-0.6,11.8l-0.4,12l-0.1,3.7
	c-0.8,0-1.4,0-1.8,0L432.7,307.3z"/>
<path class="st2" d="M454.2,286.4c1.4,0,2.7,0.2,4,0.6c1.3,0.4,2.4,1.1,3.4,2c1,0.9,1.7,2.1,2.1,3.3c0.5,1.4,0.7,2.8,0.7,4.2
	c0,1.6-0.3,3.1-0.8,4.6c-0.5,1.4-1.2,2.7-2.2,3.7c-0.9,1-2.1,1.8-3.4,2.3c-1.4,0.5-2.9,0.7-4.4,0.7c-1.4,0-2.8-0.2-4.1-0.6
	c-1.2-0.4-2.4-1.1-3.3-2c-1-0.9-1.7-2.1-2.1-3.4c-0.5-1.3-0.7-2.7-0.7-4.2c0-2.1,0.4-4.1,1.3-5.9c0.8-1.7,2.2-3.1,3.9-3.9
	C450.4,286.9,452.3,286.4,454.2,286.4z M454.1,289c-1.3,0-2.6,0.3-3.8,1c-1.2,0.7-2.1,1.8-2.5,3.1c-0.6,1.4-0.8,3-0.8,4.5
	c0,1.3,0.2,2.6,0.7,3.9c0.5,1.1,1.2,2.1,2.3,2.8c1.1,0.7,2.5,1.1,3.8,1c1,0,1.9-0.2,2.9-0.5c0.9-0.4,1.7-0.9,2.4-1.7
	c0.7-0.8,1.2-1.8,1.5-2.9c0.3-1.2,0.5-2.4,0.5-3.6c0-1.1-0.2-2.3-0.5-3.3c-0.3-0.9-0.8-1.8-1.5-2.5c-0.6-0.6-1.4-1.1-2.3-1.3
	C455.8,289.1,455,289,454.1,289L454.1,289z"/>
<path class="st2" d="M470.4,307.3l0.2-2.9c0-0.6,0.1-1.6,0.2-2.9l0.5-12.3c0-1,0-1.8,0-2.3h1.7h1.7l-0.2,3.8
	c0.4-0.6,0.8-1.2,1.2-1.8c0.4-0.5,0.9-0.9,1.5-1.2c0.6-0.4,1.3-0.7,2.1-0.9c0.8-0.2,1.6-0.3,2.4-0.3c0.6,0,1.2,0.1,1.7,0.2
	c0.5,0.1,1.1,0.3,1.6,0.6c0.4,0.2,0.9,0.5,1.2,0.8c0.3,0.3,0.6,0.6,0.8,1c0.3,0.5,0.5,1,0.6,1.6c0.7-1.4,1.7-2.5,3.1-3.3
	c1.3-0.6,2.7-1,4.1-0.9c1,0,1.9,0.2,2.8,0.5c0.8,0.3,1.6,0.7,2.2,1.3c0.5,0.5,0.9,1.1,1.1,1.8c0.2,0.6,0.3,1.2,0.3,1.9
	c0,0.6,0,1.6-0.1,2.9s-0.2,3.3-0.3,5.9s-0.2,4.9-0.2,6.6c-0.7,0-1.3,0-1.7,0s-1.1,0-1.9,0c0.1-1.8,0.3-3.8,0.4-5.9l0.3-5
	c0.1-1.2,0.1-2.3,0.1-3.1c0-0.6-0.1-1.2-0.2-1.8c-0.2-0.4-0.4-0.9-0.8-1.2c-0.4-0.4-0.8-0.6-1.3-0.8c-0.6-0.2-1.2-0.3-1.8-0.3
	c-0.5,0-1,0.1-1.5,0.2c-0.9,0.3-1.8,0.8-2.4,1.5c-0.4,0.4-0.7,0.8-0.9,1.2c-0.3,0.5-0.5,1.1-0.6,1.7c-0.2,1-0.4,2-0.4,3
	c-0.1,1.3-0.2,2.9-0.2,4.9l-0.2,5.6c-0.8,0-1.4,0-1.8,0s-1,0-1.8,0c0.1-1.7,0.2-3.4,0.3-5.1l0.2-4.9c0.1-1.5,0.1-2.8,0.1-3.9
	c0-0.6-0.1-1.2-0.2-1.8c-0.1-0.5-0.4-0.9-0.8-1.3c-0.4-0.4-0.8-0.7-1.3-0.9c-0.6-0.2-1.1-0.3-1.7-0.3c-0.7,0-1.3,0.1-1.9,0.4
	c-0.6,0.2-1.2,0.6-1.7,1c-0.5,0.5-1,1.1-1.3,1.7c-0.4,0.8-0.7,1.7-0.8,2.6c-0.3,1.9-0.4,3.8-0.5,5.7c-0.1,2.7-0.2,4.9-0.2,6.8
	c-0.9,0-1.5,0-1.8,0S471.3,307.3,470.4,307.3z"/>
<path class="st2" d="M524.7,304.1c-0.2,0.7-0.3,1.7-0.5,2.8c-1.1,0.3-2.2,0.5-3.4,0.6c-0.9,0.1-1.9,0.2-2.8,0.2
	c-1.5,0-3.1-0.2-4.5-0.6c-1.3-0.4-2.5-1.1-3.4-2.1c-0.9-1-1.6-2.2-2.1-3.4c-0.4-1.3-0.6-2.7-0.6-4.1c0-1.9,0.4-3.8,1.1-5.6
	c0.7-1.6,1.9-3,3.5-4c1.8-1,3.8-1.6,5.9-1.5c1.2,0,2.4,0.2,3.5,0.5c1,0.3,2,0.9,2.8,1.6c0.8,0.8,1.3,1.7,1.7,2.7
	c0.4,1.1,0.6,2.3,0.6,3.5c0,0.5,0,0.9-0.1,1.4h-15.4c0,0.7-0.1,1.3-0.1,1.7c0,1.4,0.3,2.7,0.9,3.9c0.6,1.2,1.5,2.1,2.6,2.7
	c1.2,0.6,2.6,0.9,4,0.9C520.5,305.4,522.7,304.9,524.7,304.1z M511.1,294.5h12c0-0.7,0-1.3-0.2-2c-0.1-0.5-0.3-1-0.5-1.5
	c-0.2-0.5-0.6-0.9-1-1.3c-0.5-0.4-1-0.7-1.6-0.8c-0.6-0.2-1.3-0.3-2-0.3c-0.7,0-1.5,0.1-2.2,0.3c-0.7,0.2-1.3,0.5-1.8,0.9
	c-0.5,0.4-1,0.8-1.3,1.3c-0.3,0.4-0.6,0.9-0.8,1.5C511.4,293.2,511.2,293.9,511.1,294.5z M519.3,284.2c-0.4,0-0.8,0-1.2,0
	s-0.9,0-1.3,0c-1.3-2.2-2.5-4-3.4-5.3c0.8,0,1.5,0,2,0s1.4,0,2,0L519.3,284.2z"/>
<path class="st2" d="M542.3,304.7c-0.2,0.7-0.3,1.5-0.5,2.6c-0.7,0.2-1.4,0.3-2.2,0.4c-0.5,0.1-1,0.1-1.5,0.1c-1,0-2-0.1-2.9-0.5
	c-0.7-0.3-1.3-0.8-1.7-1.5c-0.4-0.8-0.6-1.8-0.6-2.7c0-0.1,0-0.4,0-0.8s0.1-1.7,0.2-3.9l0.5-9h-2.7c0-0.6,0.1-1.4,0.1-2.4h2.8
	c0.1-0.8,0.1-2,0.2-3.9c1.3-0.2,2.3-0.5,3.2-0.7c-0.1,2-0.2,3.5-0.2,4.5h5.6c-0.1,0.9-0.1,1.6-0.1,2.4h-5.6l-0.5,11.4v0.9
	c0,0.8,0.1,1.5,0.3,2.2c0.2,0.5,0.5,0.8,1,1.1c0.4,0.2,0.9,0.3,1.4,0.3c0.4,0,0.7,0,1.1-0.1C540.6,305.1,541.3,304.9,542.3,304.7z"
	/>
<path class="st2" d="M547.2,307.3c0.5-7.8,0.7-14,0.7-18.6v-1.9h1.7h1.7l-0.2,3.4c0.4-0.7,0.8-1.3,1.3-1.9c0.4-0.4,0.8-0.8,1.3-1
	c0.5-0.3,1.1-0.5,1.7-0.6c0.6-0.2,1.3-0.2,1.9-0.2c0.6,0,1.1,0.1,1.7,0.2c0,0.9,0.1,1.9,0.1,3c-0.7-0.2-1.5-0.3-2.2-0.3
	c-0.7,0-1.5,0.1-2.1,0.4c-0.6,0.3-1.2,0.7-1.7,1.2c-0.5,0.6-0.9,1.2-1.2,1.9c-0.3,0.7-0.5,1.5-0.6,2.3c-0.1,0.9-0.3,2.7-0.3,5.1
	c-0.1,1.8-0.1,3.7-0.1,5.8v1.4c-0.7,0-1.3,0-1.8,0S548,307.3,547.2,307.3z"/>
<path class="st2" d="M580.5,304.1c-0.2,0.7-0.3,1.7-0.5,2.8c-1.1,0.3-2.2,0.5-3.4,0.6c-0.9,0.1-1.9,0.2-2.8,0.2
	c-1.5,0-3.1-0.2-4.5-0.6c-1.3-0.4-2.5-1.1-3.4-2.1c-0.9-1-1.6-2.2-2.1-3.4c-0.4-1.3-0.6-2.7-0.6-4.1c0-1.9,0.4-3.8,1.2-5.6
	c0.7-1.6,1.9-3,3.5-4c1.8-1,3.8-1.6,5.9-1.5c1.2,0,2.4,0.2,3.5,0.5c1,0.3,2,0.9,2.8,1.6c0.8,0.8,1.3,1.7,1.7,2.7
	c0.4,1.1,0.6,2.3,0.6,3.5c0,0.5,0,0.9-0.1,1.4h-15.4c-0.1,0.7-0.1,1.3-0.1,1.7c0,1.4,0.3,2.7,0.9,3.9c0.6,1.2,1.5,2.1,2.6,2.7
	c1.2,0.6,2.6,0.9,4,0.9C576.4,305.4,578.5,304.9,580.5,304.1z M567,294.5h12c0-0.7,0-1.3-0.2-2c-0.1-0.5-0.3-1-0.5-1.5
	c-0.2-0.5-0.6-1-1-1.3c-0.5-0.4-1-0.7-1.6-0.8c-0.6-0.2-1.3-0.3-2-0.3c-0.7,0-1.5,0.1-2.2,0.3c-0.7,0.2-1.3,0.5-1.8,0.9
	c-0.5,0.4-1,0.8-1.3,1.3c-0.3,0.4-0.6,0.9-0.8,1.5C567.3,293.2,567.1,293.9,567,294.5L567,294.5z"/>
<path class="st2" d="M586.9,307l-0.1-1.5c0-0.2,0-0.7-0.2-1.5c1.8,0.8,3.7,1.3,5.7,1.4c0.8,0,1.6-0.1,2.3-0.4
	c0.6-0.2,1.1-0.6,1.4-1.1c0.3-0.4,0.5-0.9,0.5-1.5c0-0.6-0.2-1.2-0.5-1.7c-0.2-0.3-0.5-0.6-0.8-0.9c-0.3-0.3-1.1-0.9-2.1-1.8
	s-1.9-1.6-2.5-2c-0.5-0.5-1-1-1.4-1.5c-0.4-0.5-0.7-1-0.9-1.6c-0.2-0.5-0.3-1-0.3-1.6c0-0.9,0.3-1.8,0.8-2.5
	c0.6-0.8,1.4-1.5,2.4-1.8c1.2-0.4,2.4-0.6,3.6-0.6c1.7,0,3.4,0.2,5.1,0.5c0,1,0.1,2,0.2,2.9c-1.4-0.6-2.9-0.9-4.5-0.9
	c-0.7,0-1.5,0.1-2.2,0.3c-0.6,0.1-1.1,0.5-1.5,0.9c-0.3,0.4-0.5,0.9-0.5,1.4c0,0.3,0.1,0.6,0.2,0.9c0.1,0.4,0.3,0.7,0.6,1
	c0.3,0.4,0.6,0.7,1,1c0.4,0.3,1.2,1,2.3,1.9c0.8,0.6,1.6,1.3,2.4,2.1c0.4,0.4,0.8,0.9,1.1,1.4c0.3,0.4,0.5,0.9,0.7,1.4
	c0.1,0.5,0.2,0.9,0.2,1.4c0,0.9-0.3,1.9-0.8,2.6c-0.6,0.9-1.5,1.5-2.5,1.9c-1.2,0.5-2.4,0.7-3.7,0.7c-0.7,0-1.3,0-2-0.1
	c-0.8-0.1-1.5-0.2-2-0.3S587.7,307.1,586.9,307z"/>
<path class="st2" d="M637.8,307.4c-0.8,0-1.3,0-1.7,0h-1.8l0.2-4.4c-0.3,0.6-0.7,1.2-1.1,1.8c-0.3,0.4-0.7,0.8-1.1,1.2
	c-0.4,0.4-0.9,0.7-1.5,1c-0.6,0.3-1.2,0.5-1.9,0.7c-1.9,0.4-4,0.3-5.8-0.5c-1.1-0.4-2.1-1.1-2.9-2c-0.8-0.9-1.4-1.9-1.7-3.1
	c-0.4-1.2-0.5-2.4-0.5-3.6c0-1.7,0.4-3.4,1-5c0.6-1.6,1.6-3,2.8-4.1c1.2-1.1,2.6-1.8,4.1-2.2c1.6-0.4,3.2-0.6,4.8-0.6
	c1.4,0,2.8,0.2,4.2,0.4c0.1-1.5,0.1-2.7,0.1-3.7c0-1.4,0-2.5,0-3.4h3.7l-0.6,11.4l-0.4,13.1L637.8,307.4z M634.9,289.4
	c-0.7-0.2-1.4-0.4-2.1-0.5c-0.6-0.1-1.1-0.1-1.7-0.1c-1.3,0-2.5,0.2-3.7,0.6c-1.2,0.4-2.2,1-3.1,1.8c-0.9,0.9-1.6,2-2.1,3.2
	c-0.5,1.2-0.7,2.5-0.7,3.8c0,1.2,0.2,2.4,0.7,3.5c0.4,1,1.2,1.9,2.1,2.5c1,0.6,2.2,1,3.4,0.9c0.7,0,1.4-0.1,2.1-0.3
	c0.6-0.2,1.2-0.5,1.8-0.9c0.6-0.5,1.1-1,1.5-1.6c0.5-0.7,0.8-1.5,1.1-2.4c0.3-1,0.4-2.1,0.5-3.2c0.1-0.7,0.1-1.9,0.2-3.8
	L634.9,289.4z"/>
<path class="st2" d="M662,304.1c-0.2,0.7-0.3,1.7-0.5,2.8c-1.1,0.3-2.2,0.5-3.4,0.6c-0.9,0.1-1.9,0.2-2.8,0.2
	c-1.5,0-3.1-0.2-4.5-0.6c-1.3-0.4-2.5-1.1-3.4-2.1c-0.9-1-1.6-2.1-2.1-3.4c-0.4-1.3-0.6-2.7-0.6-4.1c0-1.9,0.4-3.8,1.2-5.6
	c0.7-1.6,1.9-3,3.5-4c1.8-1,3.8-1.6,5.9-1.5c1.2,0,2.4,0.2,3.5,0.5c1,0.3,2,0.9,2.8,1.6c0.8,0.8,1.3,1.7,1.7,2.7
	c0.4,1.1,0.6,2.3,0.6,3.5c0,0.5,0,0.9-0.1,1.4h-15.4c0,0.7-0.1,1.3-0.1,1.7c0,1.4,0.3,2.7,0.9,3.9c0.6,1.2,1.5,2.1,2.6,2.7
	c1.2,0.6,2.6,0.9,4,0.9C657.8,305.4,660,304.9,662,304.1z M648.4,294.5h12c0-0.7,0-1.3-0.2-2c-0.1-0.5-0.3-1-0.5-1.5
	c-0.2-0.5-0.6-0.9-1-1.3c-0.5-0.4-1-0.7-1.6-0.8c-0.6-0.2-1.3-0.3-2-0.3c-0.7,0-1.5,0.1-2.2,0.3c-0.7,0.2-1.3,0.5-1.8,0.9
	c-0.5,0.4-1,0.8-1.3,1.3c-0.3,0.4-0.6,0.9-0.8,1.5C648.7,293.2,648.5,293.9,648.4,294.5z"/>
<path class="st2" d="M416.9,344.7c-0.2,1-0.4,2-0.5,3.2c-2.4,0.5-4.8,0.8-7.3,0.8c-1.9,0-3.9-0.3-5.7-0.9c-1.8-0.6-3.4-1.5-4.8-2.8
	c-1.3-1.2-2.3-2.7-3-4.4c-0.6-1.7-0.9-3.6-0.9-5.4c0-2,0.3-4.1,1-6c0.6-1.9,1.7-3.5,3.1-4.9c1.4-1.4,3.1-2.4,5-3c2-0.7,4.1-1,6.2-1
	c2.3,0,4.6,0.2,6.9,0.7c0,0.7,0.1,1.7,0.2,3.1c-1.2-0.4-2.5-0.7-3.8-0.9c-1-0.2-2-0.2-3-0.2c-1.6,0-3.1,0.2-4.6,0.7
	c-1.5,0.5-2.8,1.3-3.9,2.4c-1.2,1.1-2,2.5-2.6,4c-0.6,1.6-0.9,3.2-0.9,4.9c0,1.5,0.2,3,0.7,4.5c0.4,1.4,1.2,2.6,2.2,3.6
	c1,1,2.2,1.7,3.5,2.2c1.5,0.5,3.1,0.8,4.7,0.8C412.1,345.9,414.6,345.5,416.9,344.7z"/>
<path class="st2" d="M423.5,331c0.1-0.6,0.3-1.5,0.4-2.6c1.4-0.4,2.8-0.7,4.2-0.9c1.2-0.2,2.3-0.2,3.5-0.2c1.1,0,2.3,0.1,3.4,0.3
	c0.9,0.2,1.8,0.5,2.6,1.1c0.6,0.4,1.1,1,1.4,1.7c0.2,0.7,0.3,1.4,0.3,2.1c0,0.9-0.1,2.5-0.2,4.7s-0.3,4.2-0.3,6.1s-0.1,3.5-0.1,5
	c-0.7,0-1.3,0-1.8,0H435l0.4-5.5l0.3-6.5c-0.5,0.4-0.8,0.6-1.1,0.8c-0.3,0.2-0.5,0.3-0.8,0.4c-0.3,0.1-0.6,0.3-1,0.4l-2.1,0.6
	c-1,0.3-1.8,0.5-2.2,0.6c-0.8,0.2-1.5,0.5-2.2,0.9c-0.5,0.3-1,0.6-1.4,1c-0.3,0.3-0.6,0.7-0.8,1c-0.2,0.4-0.3,0.9-0.3,1.4
	c0,0.7,0.2,1.4,0.6,1.9c0.4,0.5,1,0.9,1.6,1.1c0.8,0.2,1.6,0.3,2.4,0.3c0.6,0,1.2,0,1.8-0.1c0.8-0.1,1.7-0.3,2.5-0.6
	c-0.3,0.8-0.5,1.6-0.6,2.4c-0.8,0.2-1.6,0.3-2.4,0.4c-0.6,0-1.2,0.1-1.8,0.1c-1.5,0.1-2.9-0.2-4.3-0.6c-1-0.4-1.8-1.1-2.3-2
	c-0.5-0.9-0.8-1.9-0.8-2.9c0-0.6,0.1-1.1,0.3-1.7c0.2-0.5,0.4-1,0.7-1.4c0.4-0.5,0.8-0.9,1.3-1.3c0.6-0.4,1.2-0.7,1.8-1
	c0.6-0.3,1.4-0.5,2.2-0.8s2.2-0.6,4-1.1c0.5-0.1,1-0.2,1.5-0.4c0.4-0.1,0.8-0.3,1.1-0.4c0.3-0.1,0.6-0.3,0.9-0.5
	c0.2-0.2,0.5-0.4,0.7-0.7c0.2-0.2,0.3-0.5,0.5-0.8c0.1-0.3,0.1-0.5,0.1-0.8c0-0.6-0.2-1.2-0.6-1.7c-0.5-0.5-1-0.8-1.7-1
	c-0.8-0.2-1.6-0.3-2.5-0.3c-0.9,0-1.8,0.1-2.7,0.2c-0.8,0.1-1.6,0.3-2.4,0.5C425.3,330.3,424.4,330.6,423.5,331z"/>
<path class="st2" d="M445,348.2c0.7-8.4,1-15.2,1-20.4h1.8h1.8l-0.3,4c0.3-0.6,0.6-1,0.8-1.3c0.5-0.8,1.2-1.4,2-1.9
	c0.5-0.3,1.1-0.6,1.6-0.7c0.6-0.2,1.2-0.3,1.9-0.4c0.6-0.1,1.3-0.1,1.9-0.1c1.1,0,2.3,0.1,3.4,0.4c1,0.2,1.9,0.7,2.7,1.4
	c0.6,0.6,1.1,1.3,1.4,2.1c0.2,0.8,0.4,1.7,0.4,2.6c0,0.2,0,0.5,0,1s0,1.1-0.1,2l-0.4,8.5c0,0.8,0,1.8-0.1,3c-0.6,0-1.2,0-1.7,0
	s-1.3,0-1.9,0c0.1-1.6,0.2-3.2,0.3-4.7l0.3-4.7c0.1-1.6,0.1-2.8,0.1-3.6c0-1-0.2-2-0.6-2.8c-0.4-0.7-1.1-1.3-1.9-1.6
	c-0.9-0.4-2-0.6-3-0.6c-1.4,0-2.8,0.4-4,1.1c-1.1,0.7-1.9,1.7-2.4,2.9c-0.5,1.3-0.8,2.6-0.8,4c-0.2,2.1-0.4,5.5-0.4,10.1h-1.8
	L445,348.2z"/>
<path class="st2" d="M472.4,331c0.1-0.6,0.3-1.5,0.4-2.6c1.4-0.4,2.8-0.7,4.2-0.9c1.2-0.2,2.3-0.2,3.5-0.2c1.1,0,2.3,0.1,3.4,0.3
	c0.9,0.2,1.8,0.5,2.6,1.1c0.6,0.4,1.1,1,1.4,1.7c0.2,0.7,0.3,1.4,0.3,2.1c0,0.9-0.1,2.5-0.2,4.7s-0.3,4.2-0.3,6.1s-0.1,3.5-0.1,5
	c-0.7,0-1.3,0-1.8,0H484l0.4-5.5l0.3-6.5c-0.5,0.4-0.8,0.6-1.1,0.8c-0.3,0.2-0.5,0.3-0.8,0.4c-0.3,0.1-0.6,0.3-1,0.4l-2.1,0.6
	c-1,0.3-1.8,0.5-2.2,0.6c-0.8,0.2-1.5,0.5-2.2,0.9c-0.5,0.3-0.9,0.6-1.4,1c-0.3,0.3-0.6,0.7-0.8,1c-0.2,0.4-0.3,0.9-0.3,1.4
	c0,0.7,0.2,1.4,0.6,1.9c0.4,0.5,1,0.9,1.6,1.1c0.8,0.2,1.6,0.3,2.4,0.3c0.6,0,1.2,0,1.8-0.1c0.8-0.1,1.7-0.3,2.5-0.6
	c-0.3,0.8-0.5,1.6-0.6,2.4c-0.8,0.2-1.6,0.3-2.4,0.4c-0.6,0-1.2,0.1-1.8,0.1c-1.5,0.1-2.9-0.2-4.3-0.6c-1-0.4-1.8-1.1-2.3-2
	c-0.5-0.9-0.8-1.9-0.8-2.9c0-0.6,0.1-1.1,0.3-1.7c0.2-0.5,0.4-1,0.7-1.4c0.4-0.5,0.8-0.9,1.3-1.3c0.6-0.4,1.2-0.7,1.8-1
	c0.6-0.3,1.4-0.5,2.2-0.8s2.2-0.6,4-1.1c0.5-0.1,1-0.2,1.5-0.4c0.4-0.1,0.8-0.3,1.1-0.4c0.3-0.1,0.6-0.3,0.9-0.5
	c0.3-0.2,0.5-0.4,0.7-0.7c0.2-0.2,0.3-0.5,0.4-0.8c0.1-0.3,0.1-0.5,0.1-0.8c0-0.6-0.2-1.2-0.6-1.7c-0.5-0.5-1-0.8-1.7-1
	c-0.8-0.2-1.6-0.3-2.5-0.3c-0.9,0-1.8,0.1-2.7,0.2c-0.8,0.1-1.6,0.3-2.4,0.5C474.2,330.3,473.4,330.6,472.4,331z"/>
<path class="st2" d="M494.1,348.2c0.3-4.1,0.5-9,0.8-14.7c0.2-4.1,0.3-8.4,0.4-12.8h1.9h1.8l-0.6,11.8l-0.5,12l-0.1,3.7H496
	L494.1,348.2z"/>
<path class="st2" d="M504.5,348.2l0.4-5.1l0.4-8.7l0.2-6.7h1.9h1.8c-0.2,2.1-0.3,4.3-0.4,6.6s-0.2,4.8-0.3,7.5s-0.1,4.8-0.1,6.3
	h-1.8H504.5z M505.4,323.4c0-1.3,0.1-2.2,0.1-2.9c0.7,0,1.4,0,2,0c0.7,0,1.4,0,1.9,0c0,0.4-0.1,1.4-0.1,2.9h-1.9H505.4z"/>
<path class="st2" d="M513.8,347.8l-0.1-1.5c0-0.2,0-0.7-0.2-1.5c1.8,0.8,3.7,1.3,5.7,1.4c0.8,0,1.6-0.1,2.3-0.4
	c0.6-0.2,1.1-0.6,1.4-1.1c0.3-0.4,0.5-0.9,0.5-1.5c0-0.3,0-0.6-0.1-0.9c-0.1-0.3-0.2-0.6-0.4-0.8c-0.2-0.3-0.5-0.6-0.8-0.9
	c-0.3-0.3-1.1-0.9-2.1-1.8s-1.9-1.6-2.5-2c-0.5-0.5-1-1-1.4-1.5c-0.4-0.5-0.7-1-0.9-1.6c-0.2-0.5-0.3-1-0.3-1.6
	c0-0.9,0.3-1.8,0.8-2.5c0.6-0.8,1.4-1.5,2.4-1.8c1.2-0.4,2.4-0.6,3.6-0.6c1.7,0,3.4,0.2,5.1,0.5c0,1,0.1,2,0.2,2.9
	c-1.4-0.6-2.9-0.9-4.5-0.9c-0.7,0-1.5,0.1-2.2,0.3c-0.6,0.1-1.1,0.5-1.5,0.9c-0.3,0.4-0.5,0.9-0.5,1.4c0,0.3,0.1,0.6,0.2,0.9
	c0.1,0.4,0.3,0.7,0.6,1c0.3,0.4,0.6,0.7,1,1c0.4,0.3,1.2,1,2.3,1.9c0.8,0.6,1.6,1.3,2.4,2c0.4,0.4,0.8,0.9,1.1,1.4
	c0.3,0.4,0.5,0.9,0.7,1.4c0.1,0.5,0.2,0.9,0.2,1.4c0,0.9-0.3,1.9-0.8,2.6c-0.6,0.9-1.5,1.5-2.5,1.9c-1.2,0.5-2.4,0.7-3.7,0.7
	c-0.6,0-1.3,0-2-0.1s-1.5-0.2-2-0.3S514.5,348,513.8,347.8z"/>
<path class="st2" d="M533.5,331c0.1-0.6,0.3-1.5,0.4-2.6c1.4-0.4,2.8-0.7,4.2-0.9c1.2-0.2,2.3-0.2,3.5-0.2c1.1,0,2.3,0.1,3.4,0.3
	c0.9,0.2,1.8,0.5,2.6,1.1c0.6,0.4,1.1,1,1.4,1.7c0.2,0.7,0.3,1.4,0.3,2.1c0,0.9-0.1,2.5-0.2,4.7s-0.3,4.2-0.3,6.1s-0.1,3.5-0.1,5
	c-0.7,0-1.3,0-1.8,0H545l0.4-5.5l0.3-6.5c-0.5,0.4-0.8,0.6-1.1,0.8c-0.3,0.2-0.5,0.3-0.8,0.4c-0.3,0.1-0.6,0.3-1,0.4l-2.1,0.6
	c-1,0.3-1.8,0.5-2.2,0.6c-0.8,0.2-1.5,0.5-2.2,0.9c-0.5,0.3-0.9,0.6-1.3,1c-0.3,0.3-0.6,0.7-0.8,1c-0.2,0.4-0.3,0.9-0.3,1.4
	c0,0.7,0.2,1.4,0.6,1.9c0.4,0.5,1,0.9,1.6,1.1c0.8,0.2,1.6,0.3,2.3,0.3c0.6,0,1.2,0,1.8-0.1c0.8-0.1,1.7-0.3,2.5-0.6
	c-0.3,0.8-0.5,1.6-0.7,2.4c-0.8,0.2-1.6,0.3-2.4,0.4c-0.6,0-1.2,0.1-1.8,0.1c-1.5,0.1-2.9-0.2-4.3-0.6c-1-0.4-1.8-1.1-2.3-2
	c-0.5-0.9-0.8-1.9-0.8-2.9c0-0.6,0.1-1.1,0.3-1.7c0.2-0.5,0.4-1,0.7-1.4c0.4-0.5,0.8-0.9,1.3-1.3c0.6-0.4,1.2-0.7,1.8-1
	c0.6-0.3,1.4-0.5,2.2-0.8s2.2-0.6,4-1.1c0.5-0.1,1-0.2,1.5-0.4c0.4-0.1,0.8-0.3,1.1-0.4c0.3-0.1,0.6-0.3,0.8-0.5
	c0.3-0.2,0.5-0.4,0.7-0.7c0.2-0.2,0.3-0.5,0.4-0.8c0.1-0.3,0.1-0.5,0.1-0.8c0-0.6-0.2-1.2-0.6-1.7c-0.5-0.5-1-0.8-1.7-1
	c-0.8-0.2-1.6-0.3-2.5-0.3c-0.9,0-1.8,0.1-2.7,0.2c-0.8,0.1-1.6,0.3-2.4,0.5C535.3,330.3,534.5,330.6,533.5,331z"/>
<path class="st2" d="M565.5,345.5c-0.2,0.7-0.3,1.5-0.5,2.6c-0.7,0.2-1.4,0.3-2.2,0.4c-0.5,0-1,0.1-1.5,0.1c-1,0-2-0.1-2.9-0.5
	c-0.7-0.3-1.3-0.8-1.7-1.5c-0.4-0.8-0.6-1.8-0.6-2.7c0-0.1,0-0.4,0-0.8s0.1-1.7,0.2-3.9l0.5-9h-2.7c0-0.6,0.1-1.4,0.1-2.4h2.8
	c0.1-0.8,0.1-2,0.2-3.9c1.3-0.3,2.3-0.5,3.2-0.7c-0.1,2-0.1,3.5-0.2,4.5h5.6c-0.1,0.9-0.1,1.7-0.1,2.4h-5.6l-0.5,11.4v0.9
	c0,0.8,0.1,1.5,0.3,2.2c0.2,0.5,0.5,0.8,1,1.1c0.4,0.2,0.9,0.3,1.4,0.3c0.4,0,0.7,0,1.1-0.1C563.8,346,564.5,345.8,565.5,345.5z"/>
<path class="st2" d="M569.5,348.2l0.3-5.1l0.4-8.7l0.2-6.7h1.9h1.8c-0.2,2.1-0.3,4.3-0.4,6.6s-0.2,4.8-0.3,7.5
	c-0.1,2.7-0.1,4.8-0.1,6.3h-1.8H569.5z M570.5,323.4c0-1.3,0.1-2.2,0.1-2.9c0.7,0,1.4,0,2,0s1.4,0,1.9,0c0,0.4-0.1,1.4-0.1,2.9h-1.9
	H570.5z"/>
<path class="st2" d="M590,327.3c1.4,0,2.7,0.2,4,0.6c1.2,0.4,2.4,1,3.3,1.9c1,0.9,1.7,2.1,2.1,3.3c0.5,1.4,0.7,2.8,0.7,4.2
	c0,1.6-0.3,3.1-0.8,4.6c-0.5,1.4-1.2,2.6-2.2,3.7c-0.9,1-2.1,1.8-3.4,2.3c-1.4,0.5-2.9,0.7-4.3,0.7c-1.4,0-2.8-0.2-4.1-0.6
	c-1.2-0.4-2.4-1.1-3.3-2c-1-0.9-1.7-2.1-2.1-3.4c-0.5-1.3-0.7-2.7-0.7-4.2c0-2.1,0.4-4.1,1.3-5.9c0.8-1.7,2.2-3.1,3.9-3.9
	C586.1,327.8,588,327.3,590,327.3z M589.9,329.9c-1.3,0-2.6,0.3-3.8,1c-1.2,0.7-2.1,1.8-2.6,3.1c-0.6,1.4-0.8,3-0.8,4.5
	c0,1.3,0.2,2.6,0.7,3.8c0.4,1.1,1.2,2.1,2.3,2.8c1.1,0.7,2.5,1,3.8,1c1,0,1.9-0.2,2.9-0.5c0.9-0.4,1.7-0.9,2.4-1.7
	c0.7-0.8,1.2-1.8,1.5-2.9c0.3-1.2,0.5-2.4,0.5-3.6c0-1.1-0.2-2.3-0.5-3.3c-0.3-0.9-0.8-1.8-1.5-2.5c-0.6-0.6-1.4-1.1-2.3-1.3
	C591.6,330,590.7,329.9,589.9,329.9z"/>
<path class="st2" d="M605,348.2c0.7-8.4,1-15.2,1-20.4h1.8h1.8l-0.3,4c0.3-0.6,0.6-1,0.8-1.3c0.2-0.3,0.5-0.7,0.8-1
	c0.8-0.8,1.8-1.4,2.8-1.7c0.6-0.2,1.2-0.3,1.9-0.4c0.6-0.1,1.3-0.1,1.9-0.1c1.1,0,2.3,0.1,3.3,0.4c1,0.2,1.9,0.7,2.7,1.4
	c0.7,0.6,1.1,1.3,1.4,2.1c0.2,0.8,0.4,1.7,0.3,2.6c0,0.2,0,0.5,0,1s0,1.1-0.1,2l-0.4,8.5c0,0.8,0,1.8-0.1,3c-0.6,0-1.2,0-1.7,0
	s-1.3,0-1.9,0c0.1-1.6,0.2-3.2,0.3-4.7l0.3-4.7c0.1-1.6,0.1-2.8,0.1-3.6c0-1-0.2-2-0.6-2.8c-0.4-0.7-1.1-1.3-1.9-1.6
	c-0.9-0.4-2-0.6-3-0.6c-1.4,0-2.8,0.4-4,1.1c-1.1,0.7-1.9,1.7-2.4,2.9c-0.5,1.3-0.8,2.6-0.8,4c-0.2,2.1-0.3,5.5-0.4,10.1H607
	L605,348.2z"/>
<path class="st2" d="M630.2,347.8l-0.1-1.5c0-0.2,0-0.7-0.2-1.5c1.8,0.8,3.7,1.3,5.7,1.4c0.8,0,1.6-0.1,2.3-0.4
	c0.6-0.2,1.1-0.6,1.4-1.1c0.3-0.4,0.5-0.9,0.5-1.5c0-0.3,0-0.6-0.1-0.9c-0.1-0.3-0.2-0.6-0.4-0.8c-0.2-0.3-0.5-0.6-0.8-0.9
	c-0.3-0.3-1.1-0.9-2.1-1.8s-1.9-1.6-2.5-2c-0.5-0.5-1-1-1.4-1.5c-0.4-0.5-0.7-1-0.9-1.6c-0.2-0.5-0.3-1-0.3-1.6
	c0-0.9,0.3-1.8,0.8-2.5c0.6-0.8,1.4-1.5,2.4-1.8c1.2-0.4,2.4-0.6,3.6-0.6c1.7,0,3.4,0.2,5.1,0.5c0,1,0.1,2,0.2,2.9
	c-1.4-0.6-2.9-0.9-4.5-0.9c-0.7,0-1.5,0.1-2.2,0.3c-0.6,0.1-1.1,0.5-1.5,0.9c-0.3,0.4-0.5,0.9-0.5,1.4c0,0.3,0.1,0.6,0.2,0.9
	c0.1,0.4,0.3,0.7,0.6,1c0.3,0.4,0.6,0.7,1,1c0.4,0.3,1.2,1,2.3,1.9c0.8,0.6,1.6,1.3,2.4,2c0.4,0.4,0.8,0.9,1.1,1.4
	c0.3,0.4,0.5,0.9,0.7,1.4c0.1,0.5,0.2,0.9,0.2,1.4c0,0.9-0.3,1.9-0.8,2.6c-0.6,0.9-1.5,1.5-2.5,1.9c-1.2,0.5-2.4,0.7-3.7,0.7
	c-0.6,0-1.3,0-2-0.1s-1.5-0.2-2-0.3S631,348,630.2,347.8z"/>
<path class="st2" d="M660.4,348.2l0.3-4.6l0.7-15.8l0.1-3.4c0-0.5,0-1.1,0-1.6v-2.2c1.7,0,3,0,4.1,0h2.9c1.3,0,2.3,0,2.9,0
	c1.3,0,2.5,0.1,3.8,0.4c0.8,0.2,1.6,0.7,2.2,1.3c0.6,0.6,1.2,1.3,1.5,2.2c0.4,0.9,0.6,1.9,0.5,2.9c0,1.6-0.4,3.2-1.3,4.6
	c-0.8,1.3-2.1,2.4-3.5,3c-1.6,0.7-3.3,1-5,1c-1.1,0-2.2-0.1-3.2-0.3c-0.2-0.9-0.4-1.7-0.7-2.5c1,0.2,2,0.3,3.1,0.3
	c1,0,1.9-0.1,2.8-0.3c0.8-0.2,1.6-0.6,2.3-1.1c0.6-0.5,1.1-1.2,1.5-2c0.4-0.8,0.5-1.6,0.5-2.5c0-0.7-0.1-1.3-0.4-1.9
	c-0.2-0.5-0.6-1-1.1-1.4c-0.5-0.3-1-0.6-1.5-0.7c-0.8-0.1-1.7-0.2-2.5-0.2h-1.7h-2.1H665c-0.2,3-0.3,5.6-0.3,8l-0.3,8.3
	c-0.1,3.1-0.1,5.3-0.1,6.3v2.3h-1.9L660.4,348.2z"/>
<path class="st2" d="M693.6,327.3c1.4,0,2.7,0.2,4,0.6c1.2,0.4,2.4,1,3.3,1.9c1,0.9,1.7,2.1,2.1,3.3c0.5,1.4,0.7,2.8,0.7,4.2
	c0,1.6-0.3,3.1-0.8,4.6c-0.5,1.4-1.2,2.6-2.2,3.7c-0.9,1-2.1,1.8-3.4,2.3c-1.4,0.5-2.9,0.7-4.3,0.7c-1.4,0-2.8-0.2-4.1-0.6
	c-1.2-0.4-2.4-1.1-3.3-2c-1-0.9-1.7-2.1-2.1-3.4c-0.5-1.3-0.7-2.7-0.7-4.2c0-2.1,0.4-4.1,1.3-5.9c0.8-1.7,2.2-3.1,3.9-3.9
	C689.8,327.7,691.7,327.3,693.6,327.3z M693.5,329.9c-1.3,0-2.6,0.3-3.8,1c-1.2,0.7-2.1,1.8-2.5,3.1c-0.6,1.4-0.8,3-0.8,4.5
	c0,1.3,0.2,2.6,0.7,3.8c0.5,1.1,1.2,2.1,2.3,2.8c1.1,0.7,2.4,1,3.8,1c1,0,2-0.2,2.9-0.5c0.9-0.4,1.7-0.9,2.3-1.7
	c0.7-0.8,1.2-1.8,1.5-2.9c0.3-1.2,0.5-2.4,0.5-3.6c0-1.1-0.2-2.3-0.5-3.3c-0.3-0.9-0.8-1.8-1.5-2.5c-0.6-0.6-1.4-1.1-2.3-1.3
	C695.2,330,694.4,329.9,693.5,329.9L693.5,329.9z"/>
<path class="st2" d="M707.8,347.8l-0.1-1.5c0-0.2,0-0.7-0.2-1.5c1.8,0.8,3.7,1.3,5.7,1.4c0.8,0,1.6-0.1,2.3-0.4
	c0.6-0.2,1.1-0.6,1.4-1.1c0.3-0.4,0.5-0.9,0.5-1.5c0-0.3,0-0.6-0.1-0.9c-0.1-0.3-0.2-0.6-0.4-0.8c-0.2-0.3-0.5-0.6-0.8-0.9
	c-0.3-0.3-1-0.9-2.1-1.8s-1.9-1.6-2.5-2c-0.5-0.5-1-1-1.4-1.5c-0.4-0.5-0.7-1-0.9-1.6c-0.2-0.5-0.3-1-0.3-1.6c0-0.9,0.3-1.8,0.8-2.5
	c0.6-0.8,1.4-1.5,2.4-1.8c1.2-0.4,2.4-0.6,3.6-0.6c1.7,0,3.4,0.2,5.1,0.5c0,1,0.1,2,0.2,2.9c-1.4-0.6-2.9-0.9-4.5-0.9
	c-0.7,0-1.5,0.1-2.2,0.3c-0.6,0.1-1.1,0.5-1.5,0.9c-0.3,0.4-0.5,0.9-0.5,1.4c0,0.3,0.1,0.6,0.2,0.9c0.1,0.4,0.3,0.7,0.6,1
	c0.3,0.4,0.6,0.7,1,1c0.4,0.3,1.2,1,2.3,1.9c0.8,0.6,1.6,1.3,2.4,2c0.4,0.4,0.8,0.9,1.1,1.4c0.3,0.4,0.5,0.9,0.7,1.4
	c0.1,0.5,0.2,0.9,0.2,1.4c0,0.9-0.3,1.9-0.8,2.6c-0.6,0.9-1.5,1.5-2.5,1.9c-1.2,0.5-2.4,0.7-3.7,0.7c-0.6,0-1.3,0-2-0.1
	s-1.5-0.2-2-0.3S708.7,348,707.8,347.8z"/>
<path class="st2" d="M743,345c-0.2,0.7-0.3,1.7-0.5,2.8c-1.1,0.3-2.2,0.5-3.4,0.7c-0.9,0.1-1.9,0.2-2.8,0.2c-1.5,0-3.1-0.2-4.5-0.6
	c-1.3-0.4-2.5-1.1-3.4-2.1c-0.9-1-1.6-2.2-2.1-3.4c-0.4-1.3-0.6-2.7-0.6-4.1c0-1.9,0.4-3.8,1.2-5.6c0.7-1.7,1.9-3.1,3.5-4
	c1.8-1,3.8-1.6,5.9-1.5c1.2,0,2.4,0.2,3.5,0.5c1,0.3,2,0.9,2.8,1.6c0.8,0.8,1.4,1.7,1.7,2.7c0.4,1.1,0.6,2.3,0.6,3.5
	c0,0.5,0,0.9-0.1,1.4h-15.4c0,0.7-0.1,1.3-0.1,1.7c0,1.4,0.3,2.7,0.9,3.9c0.6,1.2,1.5,2.1,2.6,2.7c1.2,0.6,2.6,0.9,4,0.9
	C738.8,346.2,740.9,345.8,743,345z M729.4,335.4h12c0-0.7,0-1.3-0.2-2c-0.1-0.5-0.3-1-0.5-1.5c-0.2-0.5-0.6-0.9-1-1.3
	c-0.5-0.4-1-0.7-1.6-0.9c-0.6-0.2-1.3-0.3-2-0.3c-0.7,0-1.5,0.1-2.2,0.3c-0.7,0.2-1.3,0.5-1.8,0.9c-0.5,0.4-1,0.8-1.3,1.3
	c-0.3,0.4-0.6,0.9-0.8,1.5C729.7,334.1,729.5,334.7,729.4,335.4z M734,325.1l1.8-5.3c0.7,0,1.3,0,2,0s1.3,0,2.1,0
	c-0.9,1.3-2,3-3.5,5.3c-0.4,0-0.8,0-1.3,0S734.4,325.1,734,325.1z"/>
<path class="st2" d="M765.9,345c-0.2,0.7-0.3,1.7-0.5,2.8c-1.1,0.3-2.2,0.5-3.4,0.7c-0.9,0.1-1.9,0.2-2.8,0.2
	c-1.5,0-3.1-0.2-4.5-0.6c-1.3-0.4-2.5-1.1-3.5-2.1c-0.9-1-1.6-2.2-2-3.4c-0.4-1.3-0.6-2.7-0.6-4.1c0-1.9,0.4-3.8,1.2-5.6
	c0.7-1.7,1.9-3.1,3.5-4c1.8-1,3.8-1.6,5.9-1.5c1.2,0,2.4,0.2,3.5,0.5c1,0.3,2,0.9,2.8,1.6c0.8,0.8,1.4,1.7,1.7,2.7
	c0.4,1.1,0.6,2.3,0.6,3.5c0,0.5,0,0.9-0.1,1.4h-15.4c0,0.7-0.1,1.3-0.1,1.7c0,1.4,0.3,2.7,0.9,3.9c0.6,1.2,1.5,2.1,2.6,2.7
	c1.2,0.6,2.6,0.9,4,0.9C761.8,346.2,763.9,345.8,765.9,345z M752.3,335.4h12c0-0.7,0-1.3-0.2-2c-0.1-0.5-0.3-1-0.5-1.5
	c-0.2-0.5-0.6-0.9-1-1.3c-0.5-0.4-1-0.7-1.6-0.9c-0.6-0.2-1.3-0.3-2-0.3c-0.7,0-1.5,0.1-2.2,0.3c-0.7,0.2-1.3,0.5-1.8,0.9
	c-0.5,0.4-1,0.8-1.3,1.3c-0.3,0.4-0.6,0.9-0.8,1.5C752.6,334.1,752.5,334.7,752.3,335.4z"/>
<path class="st2" d="M771.2,347.8l-0.1-1.5c0-0.2-0.1-0.7-0.2-1.5c1.8,0.8,3.8,1.3,5.7,1.4c0.8,0,1.6-0.1,2.3-0.4
	c0.6-0.2,1.1-0.6,1.4-1.1c0.3-0.4,0.5-1,0.5-1.5c0-0.3,0-0.6-0.1-0.9c-0.1-0.3-0.2-0.6-0.4-0.8c-0.2-0.3-0.5-0.6-0.8-0.9
	c-0.3-0.3-1.1-0.9-2.1-1.8s-1.9-1.6-2.5-2c-0.5-0.5-1-1-1.4-1.5c-0.4-0.5-0.7-1-0.9-1.6c-0.2-0.5-0.3-1-0.3-1.6
	c0-0.9,0.3-1.8,0.8-2.5c0.6-0.8,1.4-1.5,2.3-1.8c1.2-0.4,2.4-0.6,3.6-0.6c1.7,0,3.4,0.2,5.1,0.5c0.1,1,0.1,2,0.2,2.9
	c-1.4-0.6-2.9-0.9-4.5-0.9c-0.7,0-1.5,0.1-2.2,0.3c-0.6,0.1-1.1,0.5-1.5,0.9c-0.3,0.4-0.5,0.9-0.5,1.4c0,0.3,0.1,0.6,0.2,0.9
	c0.1,0.4,0.3,0.7,0.6,1c0.3,0.4,0.6,0.7,1,1c0.4,0.3,1.2,1,2.3,1.9c0.8,0.6,1.6,1.3,2.4,2c0.4,0.4,0.8,0.9,1.1,1.4
	c0.3,0.4,0.5,0.9,0.7,1.4c0.1,0.5,0.2,0.9,0.2,1.4c0,0.9-0.3,1.9-0.8,2.6c-0.6,0.9-1.5,1.5-2.5,1.9c-1.2,0.5-2.4,0.7-3.7,0.7
	c-0.6,0-1.3,0-2-0.1s-1.4-0.2-2-0.3S772,348,771.2,347.8z"/>
<path class="st3" d="M406.4,91.8l-1.4-4.5l-11.1-30.9h2.7h2.4l0.8,2.8c0.2,0.6,0.4,1.2,0.6,1.8l9.2,27L423,61.2
	c0.3-0.6,0.6-1.2,0.9-1.9l1.3-2.9h2.7h2.6c-1.6,2.9-3.7,6.9-6.2,11.9l-6.7,13.2c-2,3.8-3.6,7.3-5,10.3c-1.2,0-2.2,0-2.9,0
	S407.7,91.8,406.4,91.8z"/>
<path class="st3" d="M450.9,55.9c2.5,0,4.9,0.4,7.3,1.1c2.3,0.7,4.4,2,6.1,3.7c1.7,1.6,3,3.6,3.8,5.8c0.8,2.2,1.1,4.6,1.1,6.9
	c0,2.6-0.4,5.2-1.3,7.6c-0.8,2.4-2.1,4.5-3.8,6.3c-1.8,1.8-4,3.1-6.4,3.8c-5.1,1.7-10.5,1.7-15.6,0.1c-2.3-0.7-4.4-1.9-6.2-3.6
	c-1.7-1.6-3-3.5-3.7-5.7c-0.8-2.3-1.2-4.6-1.1-7c0-2.7,0.5-5.3,1.4-7.8c0.9-2.4,2.2-4.5,4.1-6.3c1.8-1.7,4.1-3.1,6.5-3.8
	C445.5,56.2,448.2,55.8,450.9,55.9z M450.6,59.3c-2,0-4,0.3-5.9,1c-1.8,0.7-3.5,1.8-4.8,3.2c-1.4,1.5-2.4,3.3-3.1,5.2
	c-0.7,2-1,4.1-1,6.2c0,2,0.3,3.9,1,5.8c0.6,1.7,1.6,3.3,2.9,4.6c1.3,1.2,2.9,2.2,4.6,2.7c1.8,0.6,3.7,0.9,5.6,0.9c2,0,3.9-0.3,5.8-1
	c1.8-0.6,3.4-1.6,4.7-3c1.3-1.4,2.4-3.1,3-5c0.7-2,1-4.1,1-6.2c0-2-0.3-3.9-0.9-5.8c-0.5-1.8-1.5-3.4-2.8-4.8
	c-1.3-1.3-2.8-2.3-4.5-2.9C454.4,59.6,452.5,59.3,450.6,59.3z"/>
<path class="st3" d="M474.8,91.8l0.4-6l0.5-12.4l0.4-12.3c0-0.7,0-1.4,0-2.1v-2.6h2.7h2.5c-0.3,4.3-0.5,8.8-0.7,13.5
	c-0.3,7.5-0.5,14.8-0.6,21.9h-2.4L474.8,91.8z"/>
<path class="st3" d="M488,91.8l0.5-7l0.6-12.9l0.3-10.8c0-2.2,0-3.8,0-4.7c2.1,0,3.8,0,5.2,0c1.2,0,2.5,0,3.9,0s2.6-0.1,3.5-0.1
	c1.5,0,2.9,0.1,4.4,0.3c1.3,0.2,2.5,0.7,3.6,1.5c1,0.7,1.8,1.7,2.3,2.8c0.5,1.1,0.8,2.4,0.7,3.6c0,1.2-0.2,2.4-0.6,3.6
	c-0.4,1.1-1,2.1-1.7,3c-0.7,0.9-1.7,1.6-2.7,2.2c-0.9,0.5-2,0.8-3,1.1c-1.1,0.2-2.2,0.4-3.3,0.5l4.6,7.3l4.7,7.2
	c0.3,0.5,0.8,1.3,1.4,2.3h-2.7H507l-1.9-3.6l-1.1-2.1c-0.4-0.7-0.8-1.4-1.3-2.2l-5.9-9.6c-0.3-0.4-0.6-1-1.2-2
	c1.2,0.2,2.3,0.3,3.5,0.4c1.6,0,3.2-0.2,4.7-0.8c1.3-0.5,2.5-1.4,3.3-2.7c0.8-1.2,1.2-2.6,1.1-4c0-0.8-0.1-1.5-0.4-2.2
	c-0.2-0.7-0.6-1.3-1.2-1.7c-0.5-0.4-1-0.8-1.5-1c-0.6-0.2-1.3-0.4-2-0.5c-0.8-0.1-1.7-0.2-2.5-0.2h-3.7c-1.6,0-2.6,0-3,0
	c-0.5,11.6-0.9,22.3-1,32.1h-2.5H488z"/>
<path class="st3" d="M518.1,91.8l0.4-6l0.5-12.4l0.4-12.3c0-0.7,0-1.4,0-2.1v-2.6h2.7h2.5c-0.3,4.3-0.5,8.8-0.7,13.5
	c-0.3,7.5-0.5,14.8-0.6,21.9h-2.4L518.1,91.8z"/>
<path class="st3" d="M531.3,91.8l0.7-9.8l0.7-18.2l0.1-4c0-1,0-2.2,0-3.5h12h8.3h2.7c-0.1,1.2-0.2,2.4-0.2,3.6l-2.3-0.1
	c-0.6,0-1.5-0.1-2.9-0.1s-2.8,0-4.1,0c-4.1,0-6.9,0-8.5,0.1L537.1,72c2.7,0.1,5.1,0.1,7.2,0.1c2.3,0,5.3,0,9-0.1
	c-0.1,1.2-0.2,2.4-0.2,3.6l-8.9-0.1c-1.7,0-4.2,0-7.3,0.1l-0.5,12.8h2.7c4.9,0,8.1,0,9.8,0c1.6,0,3.5-0.1,5.6-0.2
	c-0.1,1.3-0.2,2.5-0.2,3.7c-4.2,0-7.7,0-10.6,0L531.3,91.8z"/>
<path class="st3" d="M574.7,91.8l0.7-9.8l0.7-18.2l0.1-4c0-1,0-2.2,0-3.5h12h8.3h2.7c-0.1,1.2-0.2,2.4-0.2,3.6l-2.3-0.1
	c-0.6,0-1.5-0.1-2.9-0.1s-2.8,0-4.1,0c-4.1,0-6.9,0-8.5,0.1l-0.5,12.2c2.7,0.1,5.1,0.1,7.2,0.1c2.3,0,5.3,0,9-0.1
	c-0.1,1.2-0.2,2.4-0.2,3.6l-8.9-0.1c-1.7,0-4.2,0-7.3,0.1l-0.5,12.8h2.7c4.9,0,8.1,0,9.7,0c1.6,0,3.5-0.1,5.6-0.2
	c-0.1,1.3-0.2,2.5-0.2,3.7c-4.2,0-7.7,0-10.6,0L574.7,91.8z"/>
<path class="st3" d="M612,91.8l0.5-7.9l0.7-16.4l0.2-7.6c-4.2,0-7.9,0.1-11.1,0.2c0.1-1.4,0.2-2.6,0.2-3.7h14.2h8.3h4.4
	c-0.1,1.5-0.2,2.8-0.2,3.7c-2.7-0.1-5.6-0.2-8.9-0.2h-2.1l-0.5,11.5l-0.5,16.2v4.3h-2.5H612z"/>
<path class="st3" d="M645.7,91.8l0.5-7l0.6-12.9l0.3-10.8c0-2.2,0-3.8,0-4.7c2.1,0,3.8,0,5.2,0c1.2,0,2.5,0,3.9,0s2.6-0.1,3.5-0.1
	c1.5,0,2.9,0.1,4.4,0.3c1.3,0.2,2.5,0.7,3.6,1.5c1,0.7,1.8,1.7,2.3,2.8c0.5,1.1,0.8,2.4,0.7,3.6c0,1.2-0.2,2.4-0.6,3.6
	c-0.4,1.1-1,2.1-1.7,3c-0.7,0.9-1.7,1.6-2.7,2.2c-0.9,0.5-2,0.8-3,1.1c-1.1,0.2-2.2,0.4-3.3,0.5l4.6,7.3l4.7,7.2
	c0.3,0.5,0.8,1.3,1.4,2.3h-2.7h-2.8l-1.9-3.6l-1.2-2.1c-0.4-0.7-0.8-1.4-1.3-2.2l-5.8-9.5c-0.3-0.4-0.7-1-1.2-2
	c1.2,0.2,2.3,0.3,3.5,0.4c1.6,0,3.2-0.3,4.7-0.9c1.3-0.5,2.5-1.4,3.3-2.7c0.8-1.2,1.2-2.6,1.2-4c0-0.8-0.1-1.5-0.4-2.2
	c-0.2-0.7-0.6-1.3-1.1-1.7c-0.5-0.4-1-0.8-1.5-1c-0.6-0.2-1.3-0.4-2-0.5c-0.8-0.1-1.7-0.2-2.6-0.2h-3.7c-1.6,0-2.6,0-3,0
	c-0.5,11.6-0.9,22.3-1,32.1h-2.5L645.7,91.8z"/>
<path class="st3" d="M675.8,91.8l0.7-9.8l0.7-18.2l0.1-4c0-1,0-2.2,0-3.5h12h8.3h2.7c-0.1,1.2-0.2,2.4-0.2,3.6l-2.3-0.1
	c-0.6,0-1.5-0.1-2.9-0.1s-2.8,0-4.1,0c-4.1,0-6.9,0-8.5,0.1l-0.4,12.2c2.7,0,5,0.1,7.2,0.1c2.3,0,5.3,0,9-0.1
	c-0.1,1.2-0.2,2.4-0.2,3.6l-8.9-0.1c-1.7,0-4.2,0-7.3,0.1l-0.5,12.8h2.7c4.9,0,8.1,0,9.7,0s3.5-0.1,5.6-0.2
	c-0.1,1.3-0.2,2.5-0.2,3.7c-4.2,0-7.7,0-10.6,0L675.8,91.8z M686.6,53.1l2.4-6.8c0.8,0,1.7,0,2.6,0s1.7,0,2.7,0
	c-1.2,1.6-2.6,3.9-4.5,6.8c-0.5,0-1-0.1-1.6-0.1S687.1,53.1,686.6,53.1L686.6,53.1z"/>
<path class="st3" d="M704.4,90.9c-0.1-1.7-0.2-3.1-0.3-4.3c1.6,0.8,3.2,1.4,4.9,1.8c1.4,0.3,2.8,0.5,4.2,0.5c1.2,0,2.5-0.2,3.6-0.7
	c1-0.4,1.9-1,2.5-1.9c0.6-0.8,0.9-1.8,0.8-2.8c0-0.6-0.1-1.1-0.3-1.7c-0.2-0.6-0.5-1.1-0.9-1.6c-0.7-0.8-1.4-1.5-2.2-2.2
	c-1.1-0.9-2.5-2.2-4.5-3.8l-1.9-1.6c-0.7-0.6-1.4-1.2-2-1.9c-0.5-0.5-1-1.1-1.5-1.8c-0.4-0.5-0.7-1-0.9-1.5c-0.2-0.5-0.4-1-0.5-1.6
	c-0.1-0.6-0.2-1.1-0.2-1.7c0-1.5,0.4-2.9,1.2-4.1c0.9-1.4,2.2-2.5,3.7-3.1c2-0.9,4.3-1.3,6.5-1.2c2.4,0,4.8,0.3,7.1,0.8
	c0,1.1,0.2,2.5,0.4,4.1c-2.3-0.9-4.7-1.3-7.2-1.4c-1.3,0-2.6,0.2-3.7,0.7c-0.9,0.4-1.7,1.1-2.3,2c-0.5,0.7-0.8,1.5-0.8,2.4
	c0,0.5,0.1,1,0.2,1.4c0.1,0.5,0.3,0.9,0.6,1.3c0.4,0.7,0.9,1.3,1.5,1.8c0.6,0.6,1.4,1.4,2.4,2.2l3,2.4c1.7,1.4,3,2.5,3.8,3.3
	c0.7,0.6,1.3,1.3,1.9,2.1c0.5,0.7,0.8,1.4,1.1,2.2c0.3,0.8,0.4,1.7,0.4,2.5c0,1.3-0.3,2.6-0.9,3.8c-0.6,1.2-1.5,2.2-2.6,2.9
	c-1.1,0.8-2.4,1.3-3.8,1.6c-1.4,0.3-2.8,0.5-4.3,0.5c-1.2,0-2.5-0.1-3.7-0.3C708,91.9,706.2,91.4,704.4,90.9z"/>
<path class="st3" d="M731.1,91.8l0.7-9.8l0.7-18.2l0.1-4c0-1,0-2.2,0-3.5h12h8.3h2.7c-0.1,1.2-0.2,2.4-0.2,3.6l-2.3-0.1
	c-0.6,0-1.5-0.1-3-0.1s-2.8,0-4.1,0c-4.1,0-6.9,0-8.5,0.1L736.9,72c2.7,0.1,5.1,0.1,7.2,0.1c2.3,0,5.3,0,9.1-0.1
	c-0.1,1.2-0.2,2.4-0.2,3.6l-8.9-0.1c-1.7,0-4.2,0-7.3,0.1l-0.5,12.8h2.7c4.9,0,8.1,0,9.8,0c1.6,0,3.5-0.1,5.6-0.2
	c-0.1,1.3-0.2,2.5-0.2,3.7c-4.2,0-7.7,0-10.6,0L731.1,91.8z"/>
<path class="st3" d="M756.4,91.8l4.7-8.9l12-23.5l1.4-3h3h3l4.5,12.7l8.3,22.7h-2.5h-2.8c-0.5-1.7-1.2-4.1-2.3-7.2
	c-1.1-3.1-2-5.7-2.6-7.6H769l-3.8,7.8l-3.3,7.1h-2.7L756.4,91.8z M770.5,73.5h11.7l-4.8-13.7L770.5,73.5z"/>
<path class="st3" d="M799.4,56.4h2.6h2.5l-1.2,19.8l-0.1,2.4v0.5c-0.1,1.9,0.3,3.8,1.1,5.6c0.8,1.4,2,2.4,3.4,3.1
	c1.9,0.8,3.9,1.2,5.9,1.1c1.5,0,3-0.2,4.4-0.6c1-0.3,2-0.8,2.9-1.4c0.8-0.6,1.5-1.4,2-2.2c0.5-0.9,0.8-1.9,1-2.9
	c0.3-2.3,0.6-4.7,0.7-7.1l0.5-8.3c0.1-3.1,0.2-6.4,0.3-9.9h2.7h2.4l-0.8,12.2l-0.5,10.1c-0.1,1.8-0.3,3.7-0.8,5.5
	c-0.3,0.9-0.6,1.8-1.1,2.6c-0.4,0.7-1,1.4-1.7,2c-0.9,0.7-1.8,1.4-2.8,1.8c-1.2,0.6-2.4,1-3.7,1.3c-1.9,0.4-3.9,0.5-5.9,0.5
	c-1.9,0-3.7-0.2-5.5-0.6c-1.4-0.3-2.8-0.9-4.1-1.6c-1.1-0.6-2.2-1.4-3-2.4c-0.7-0.8-1.2-1.7-1.5-2.8c-0.4-1.3-0.6-2.7-0.6-4.1
	c0-1.6,0.1-3.4,0.2-5.5s0.3-5.2,0.5-9.4S799.4,58.6,799.4,56.4z"/>
<path class="st3" d="M832,91.8l5.9-7.4l8.5-11l-7-10.5l-4.4-6.5h3h2.8c1.4,2.3,3,4.8,4.7,7.3c1.8,2.5,3.1,4.5,3.9,5.9l8.4-10.5
	l0.8-1l1.2-1.7h2.7h2.7c-1.4,1.8-3.4,4.3-6,7.6c-2.6,3.2-5.1,6.4-7.3,9.4c1.4,2.2,3,4.7,4.8,7.4l7.3,11h-2.8c-0.8,0-1.8,0-3,0
	l-1.3-2.2c-0.3-0.6-0.8-1.3-1.3-2.1l-6.6-10.3l-6.4,8c-2,2.5-3.7,4.7-5.1,6.6c-1.2,0-2.2,0-2.8,0S833.3,91.8,832,91.8z"/>
<path class="st3" d="M396.3,145l0.7-10.7l0.8-21c0-0.8,0-2.1,0-3.7c2.2,0,4,0,5.6,0c1,0,2.5,0,4.5,0h4.3c2.4,0,4.9,0.2,7.3,0.7
	c1.5,0.3,2.8,0.9,4.1,1.7c1.3,0.9,2.4,2,3.3,3.3c1,1.3,1.7,2.8,2.1,4.4c0.6,2,0.8,4,0.8,6.1c0,2.8-0.5,5.6-1.5,8.3
	c-0.9,2.6-2.5,4.8-4.5,6.6c-1.9,1.7-4.2,2.9-6.8,3.5c-2.7,0.6-5.6,0.9-8.4,0.9h-7.2C401,144.9,399.3,144.9,396.3,145z M401.3,141.5
	c2.1,0.1,4.1,0.1,5.9,0.1c1.5,0,3.1-0.1,4.6-0.2c1.4-0.1,2.9-0.4,4.3-0.8c1.4-0.5,2.6-1.2,3.7-2.1c1.2-1,2.2-2.2,3-3.5
	c0.8-1.4,1.4-2.8,1.7-4.4c0.4-1.6,0.6-3.3,0.6-4.9c0-1.8-0.2-3.5-0.7-5.2c-0.5-1.6-1.3-3.1-2.5-4.3c-1.1-1.2-2.5-2.1-4.1-2.6
	c-2.1-0.5-4.2-0.7-6.3-0.6c-3.2,0-6.2,0-8.9,0.1L401.3,141.5z"/>
<path class="st3" d="M435.5,145l0.4-6l0.5-12.4l0.4-12.2c0-0.7,0-1.4,0-2.1v-2.7h2.7h2.5c-0.3,4.3-0.5,8.8-0.7,13.6
	c-0.3,7.5-0.5,14.8-0.6,21.9h-2.4C438,144.9,437.1,144.9,435.5,145z"/>
<path class="st3" d="M458.8,145l-1.4-4.5l-11.1-30.9h2.7h2.4l0.8,2.8c0.2,0.6,0.4,1.2,0.6,1.8l9.2,27l13.2-26.9
	c0.3-0.6,0.6-1.2,0.9-1.8l1.3-2.9h2.7h2.6c-1.6,2.9-3.7,6.9-6.2,11.8l-6.7,13.2c-1.9,3.8-3.6,7.3-5,10.4c-1.2,0-2.2,0-2.9,0
	S460.1,144.9,458.8,145z"/>
<path class="st3" d="M484.4,145l0.7-9.8l0.7-18.2l0.1-4c0-1,0-2.2,0-3.4c3.9,0,7.9,0,12,0h8.3h2.6c-0.1,1.2-0.2,2.4-0.2,3.6
	l-2.3-0.1c-0.6,0-1.6-0.1-3-0.1h-4.1c-4.1,0-6.9,0-8.5,0.1l-0.5,12.1c2.7,0,5.1,0.1,7.2,0.1c2.3,0,5.3,0,9.1-0.1
	c-0.1,1.2-0.2,2.4-0.2,3.6l-8.9-0.1c-1.7,0-4.2,0-7.3,0.1l-0.4,12.8h2.7c4.9,0,8.1,0,9.8,0s3.5-0.1,5.6-0.2
	c-0.1,1.3-0.2,2.5-0.2,3.7c-4.2,0-7.7,0-10.6,0L484.4,145z"/>
<path class="st3" d="M514.4,145l0.5-7l0.6-12.9l0.3-10.8c0-2.2,0.1-3.8,0.1-4.7c2.1,0,3.8,0,5.2,0c1.2,0,2.5,0,3.9,0s2.6,0,3.5,0
	c1.5,0,2.9,0.1,4.4,0.3c1.3,0.2,2.5,0.7,3.5,1.5c1,0.7,1.8,1.7,2.3,2.8c0.5,1.1,0.8,2.4,0.7,3.6c0,1.2-0.2,2.4-0.6,3.6
	c-0.4,1.1-1,2.1-1.7,3c-0.7,0.9-1.7,1.6-2.7,2.2c-0.9,0.5-2,0.9-3,1.1c-1.1,0.2-2.2,0.4-3.3,0.5l4.6,7.3l4.7,7.2
	c0.3,0.5,0.8,1.3,1.4,2.3c-1.3,0-2.2,0-2.7,0s-1.4,0-2.8,0l-1.9-3.6l-1.1-2l-1.3-2.2l-5.9-9.6c-0.2-0.4-0.6-1.1-1.2-2
	c1.2,0.2,2.3,0.4,3.5,0.4c1.6,0,3.2-0.3,4.7-0.9c1.3-0.5,2.5-1.4,3.3-2.7c0.8-1.2,1.2-2.6,1.2-4c0-0.8-0.1-1.5-0.4-2.2
	c-0.2-0.7-0.6-1.3-1.2-1.7c-0.5-0.4-1-0.8-1.6-1c-0.6-0.2-1.3-0.4-2-0.5c-0.8-0.1-1.7-0.2-2.5-0.2l-3.7,0.1c-1.6,0-2.6,0-3,0
	c-0.5,11.6-0.9,22.3-1,32.1h-2.5C516.5,144.9,515.7,144.9,514.4,145z"/>
<path class="st3" d="M543.1,144c-0.1-1.6-0.2-3.1-0.3-4.3c1.6,0.8,3.2,1.4,5,1.8c1.4,0.3,2.8,0.5,4.2,0.5c1.2,0,2.5-0.2,3.6-0.7
	c1-0.4,1.9-1,2.5-1.9c0.6-0.8,0.9-1.8,0.8-2.8c0-0.6-0.1-1.2-0.3-1.7c-0.2-0.6-0.5-1.1-0.9-1.6c-0.7-0.8-1.4-1.5-2.2-2.2
	c-1-0.9-2.5-2.2-4.5-3.8l-1.9-1.6c-0.7-0.6-1.4-1.2-2-1.9c-0.5-0.5-1-1.1-1.5-1.8c-0.3-0.5-0.7-1-0.9-1.5c-0.2-0.5-0.4-1-0.5-1.5
	c-0.1-0.6-0.2-1.1-0.2-1.7c0-1.5,0.4-2.9,1.2-4.2c0.9-1.4,2.2-2.4,3.7-3.1c2-0.9,4.3-1.3,6.5-1.2c2.4,0,4.7,0.3,7.1,0.8
	c0,1.1,0.2,2.5,0.4,4.1c-2.3-0.9-4.7-1.3-7.2-1.4c-1.3,0-2.6,0.2-3.7,0.7c-0.9,0.4-1.7,1.1-2.3,1.9c-0.5,0.7-0.8,1.5-0.8,2.4
	c0,0.5,0.1,1,0.2,1.4c0.1,0.5,0.4,0.9,0.6,1.3c0.4,0.7,0.9,1.3,1.5,1.8c0.8,0.8,1.6,1.5,2.4,2.3l3,2.4c1.7,1.4,3,2.5,3.8,3.3
	c0.7,0.7,1.3,1.4,1.9,2.2c0.5,0.7,0.8,1.4,1.1,2.1c0.3,0.8,0.4,1.7,0.4,2.5c0,1.3-0.3,2.6-0.9,3.8c-0.6,1.2-1.5,2.2-2.6,2.9
	c-1.1,0.7-2.4,1.3-3.7,1.6c-1.4,0.3-2.8,0.5-4.3,0.5c-1.2,0-2.5-0.1-3.7-0.3C546.7,144.9,544.9,144.5,543.1,144z"/>
<line class="st4" x1="370.4" y1="41.7" x2="370.4" y2="366.1"/>
<path class="st3" d="M194.9,211.5c0,0.2,0,0.4,0,0.7c0,4.4,3.6,7.9,7.9,7.9c4.4,0,7.9-3.5,7.9-7.9c0-0.2,0-0.5,0-0.7
	C210.7,211.4,194.9,211.5,194.9,211.5z"/>
<path class="st5" d="M193,209.1h19.6c0.1,0,0.2,0.1,0.2,0.2v1.3c0,0.1-0.1,0.2-0.2,0.2H193c-0.1,0-0.2-0.1-0.2-0.2v-1.3
	C192.8,209.2,192.9,209.1,193,209.1z"/>
<path class="st3" d="M206.7,201.8v1.7c0,0.4-0.3,0.6-0.6,0.6c-0.4,0-0.7-0.3-0.7-0.6v-2.2c-0.6-0.2-1.2-0.3-1.8-0.3v2.6
	c0,0.4-0.3,0.6-0.6,0.6c-0.4,0-0.7-0.3-0.7-0.6V201c-0.6,0-1.2,0.2-1.9,0.3v2.3c0,0.4-0.3,0.7-0.7,0.7s-0.7-0.3-0.7-0.7v-1.8
	c-2.9,1.4-4.9,4.2-5.3,7.4h18.1C211.6,206,209.6,203.2,206.7,201.8z"/>
<path class="st3" d="M217.7,222.3h-30c-4.8,0-7.3,2.5-7.3,7.3v31.8c0,2.3,2.4,4.1,4.7,4.1s4.7-1.8,4.7-4.1v-26.9c0-0.5,0.7-1,0.9-1
	s0.9,0.4,0.9,1v69.8c-0.2,2.6,1.8,4.8,4.4,5c2.6,0.2,4.8-1.8,5-4.4c0-0.2,0-0.4,0-0.6V265c0-0.9,0.6-1.6,1.4-1.8h0.9
	c0.9,0.1,1.5,0.9,1.4,1.8v39.2c-0.2,2.6,1.8,4.8,4.4,5c2.6,0.2,4.8-1.8,5-4.4c0-0.2,0-0.4,0-0.6v-69.8c0-0.6,0.7-1,0.9-1
	c0.5,0.1,0.9,0.5,0.9,1v26.9c0,2.3,2.4,4.1,4.7,4.1s4.7-1.8,4.7-4.1v-31.7C225.2,224.8,222.5,222.3,217.7,222.3z"/>
<rect x="194.9" y="236.4" class="st6" width="15.8" height="9.8"/>
<rect x="192.4" y="222.2" class="st6" width="3.1" height="8.9"/>
<rect x="192" y="231.4" class="st6" width="3.8" height="3"/>
<rect x="210.5" y="222.2" class="st6" width="3.1" height="8.9"/>
<rect x="210.2" y="231.4" class="st6" width="3.8" height="3"/>
<path class="st3" d="M288.7,113.2c0,0.2,0,0.4,0,0.7c0,4.4,3.5,7.9,7.9,7.9c4.4,0,7.9-3.5,7.9-7.9c0,0,0,0,0,0c0-0.2,0-0.5,0-0.7
	C304.5,113.1,288.7,113.2,288.7,113.2z"/>
<path class="st5" d="M286.8,110.9h19.6c0.1,0,0.2,0.1,0.2,0.2v1.3c0,0.1-0.1,0.2-0.2,0.2h-19.6c-0.1,0-0.2-0.1-0.2-0.2v-1.3
	C286.6,110.9,286.7,110.9,286.8,110.9z"/>
<path class="st3" d="M300.5,103.6v1.7c0,0.4-0.3,0.7-0.6,0.7c-0.4,0-0.7-0.3-0.7-0.7v-2.2c-0.6-0.2-1.2-0.3-1.9-0.3v2.6
	c0,0.4-0.3,0.7-0.7,0.7s-0.7-0.3-0.7-0.7v-2.6c-0.6,0-1.2,0.1-1.9,0.3v2.3c0,0.4-0.3,0.7-0.7,0.7c-0.4,0-0.6-0.3-0.6-0.7v-1.8
	c-2.9,1.3-4.9,4.2-5.3,7.4h18C305.3,107.7,303.4,104.9,300.5,103.6z"/>
<path class="st3" d="M311.5,124h-30c-4.8,0-7.2,2.5-7.2,7.3v31.8c0,2.3,2.4,4.1,4.7,4.1s4.6-1.8,4.6-4.1v-26.9c0-0.5,0.7-1,0.9-1
	s0.9,0.4,0.9,1V206c-0.2,2.6,1.8,4.8,4.4,5c2.6,0.2,4.8-1.8,5-4.4c0-0.2,0-0.4,0-0.6v-39.2c0-0.9,0.6-1.6,1.4-1.8h0.9
	c0.9,0.1,1.5,0.9,1.4,1.8V206c-0.2,2.6,1.8,4.8,4.4,5c2.6,0.2,4.8-1.8,5-4.4c0-0.2,0-0.4,0-0.6v-69.8c0-0.6,0.7-1,0.9-1
	c0.5,0.1,0.9,0.5,0.9,1v26.9c0,2.3,2.4,4.1,4.7,4.1s4.7-1.8,4.7-4.1v-31.8C319,126.5,316.3,124,311.5,124z"/>
<rect x="288.7" y="138.2" class="st6" width="15.8" height="9.8"/>
<rect x="286.1" y="123.9" class="st6" width="3.1" height="8.9"/>
<rect x="285.8" y="133.1" class="st6" width="3.8" height="3"/>
<rect x="304.3" y="123.9" class="st6" width="3.1" height="8.9"/>
<rect x="304" y="133.1" class="st6" width="3.8" height="3"/>
<path class="st7" d="M3.2,209h151.6c5.2,0.3,9.8,3.3,12.1,8c4,8.1,25,84.7,25,84.7s4,8.1,12.1,8.1h35.9c8.1,0,12.1-8.1,12.1-8.1
	s21-76.6,25-84.7c2.3-4.7,6.9-7.7,12.1-8h31.3"/>
<line class="st8" x1="220.4" y1="126.8" x2="220.4" y2="257.1"/>
<circle class="st9" cx="220.4" cy="260.7" r="22"/>
<polygon class="st3" points="183.6,60.4 135.9,89.6 133.6,87.9 181.4,58.8 "/>
<path class="st3" d="M191.1,63.2l-1-1.4c-1.4-1.9-4-2.3-5.9-0.9c0,0,0,0,0,0l-48.5,30.2l6,8.1L190.3,69
	C192.1,67.6,192.5,65,191.1,63.2z"/>
<path class="st10" d="M199.5,58.3l57,48.8l-5.7,6.6l-62-43l0,0L179,59.3c-0.4-0.4-0.4-1.1,0-1.5l1.7-1.8c0.6-0.7,1.5-1,2.5-0.8
	L199.5,58.3z"/>
<path class="st3" d="M194.1,66.1c-1.4,0.6-3.1-0.1-3.6-1.6c-0.6-1.4,0.1-3.1,1.6-3.6c1.4-0.6,3.1,0.1,3.6,1.6
	C196.2,63.9,195.5,65.5,194.1,66.1C194.1,66.1,194.1,66.1,194.1,66.1z"/>
<path class="st9" d="M262.8,122.1l-5.5-13.1c-0.5-1.1-1.7-1.6-2.8-1.1c-0.1,0-0.2,0.1-0.3,0.1l-31,18.4l-2.6-0.7
	c-0.2-0.1-0.5-0.1-0.7,0l-1.3,0.3c-0.3,0.1-0.5,0.4-0.4,0.8c0,0.2,0.2,0.3,0.3,0.4l22.4,12c2.9,1.5,6.4,1.3,9-0.6l10.5-7.6
	C263.1,129,264.1,125.3,262.8,122.1z"/>
<path class="st11" d="M136.7,85.3L136.7,85.3c-3.6,1.6-6,5-6.3,8.8l-0.5,69.2l19,3.8l-6.7-78.6c-0.1-2.1-2-3.8-4.1-3.6
	C137.6,85,137.1,85.1,136.7,85.3z"/>
<path class="st3" d="M259.9,111.5c-0.6,3-3.5,5-6.6,4.5c-3-0.6-5-3.5-4.5-6.6c0.6-3,3.5-5,6.6-4.5c0,0,0,0,0,0
	C258.4,105.5,260.4,108.4,259.9,111.5z"/>
<path class="st3" d="M136.7,94.5c-1.1,0.4-2.3-0.1-2.7-1.2c-0.4-1.1,0.1-2.3,1.2-2.7c1.1-0.4,2.3,0.1,2.7,1.2
	C138.3,92.8,137.8,94,136.7,94.5C136.7,94.5,136.7,94.5,136.7,94.5z"/>
<path class="st9" d="M110.6,184.4H13.6c-3,0-5.4-2.4-5.4-5.4l7.6-36c0-3,2.4-5.4,5.4-5.4l89.3-7.6c3,0,5.4,2.4,5.4,5.4V179
	C115.9,182,113.5,184.4,110.6,184.4z"/>
<path class="st10" d="M122.1,90c0-2.3-1.9-4.2-4.3-4.3H76c-3.3,0-6,2.7-6,6l-8.5,39.9l8.9,39.3h51.9L122.1,90z"/>
<circle class="st12" cx="121.3" cy="175.7" r="30.4"/>
<circle class="st3" cx="121.3" cy="175.7" r="19"/>
<circle class="st12" cx="23.6" cy="186" r="21.3"/>
<circle class="st3" cx="23.6" cy="186" r="13.3"/>
<path class="st3" d="M73.2,174l1-1.1c1.3-1.5,1.2-3.8-0.3-5.1l-34.2-35.4l-5.8,6.5l34.2,35.4C69.6,175.7,71.9,175.5,73.2,174
	C73.2,174,73.2,174,73.2,174z"/>
<path class="st10" d="M3.2,146.8l24.3-13.3l0,0l15-2.1c0.6-0.1,1.1,0.3,1.3,0.8l0.7,2.4c0.3,0.9,0,1.9-0.6,2.5l-11.6,12.1l-26.8,6.4
	"/>
<path class="st3" d="M27.8,144.7c-1.6,0.3-3.2-0.7-3.5-2.3s0.7-3.2,2.3-3.5c1.6-0.3,3.2,0.7,3.5,2.3
	C30.5,142.7,29.5,144.3,27.8,144.7C27.8,144.7,27.8,144.7,27.8,144.7z"/>
</svg>
