<svg id="Layer_1" data-name="Layer 1" xmlns="http://www.w3.org/2000/svg" viewBox="0 0 865 402"><defs><style>.cls-1,.cls-12{fill:none;}.cls-2{fill:#0060ad;}.cls-3{fill:#0060a9;}.cls-4,.cls-5,.cls-6,.cls-7,.cls-8,.cls-9{fill:#fff;}.cls-5,.cls-6,.cls-7,.cls-8,.cls-9{stroke:#0060ad;}.cls-5,.cls-7,.cls-8,.cls-9{stroke-linecap:round;stroke-linejoin:round;}.cls-5{stroke-width:2.24px;}.cls-12,.cls-6{stroke-miterlimit:10;}.cls-6,.cls-8{stroke-width:3.49px;}.cls-7{stroke-width:3.14px;stroke-dasharray:4.74 3.79;}.cls-9{stroke-width:5.04px;}.cls-10{fill:#eb1c24;}.cls-11{fill:#808285;}.cls-12{stroke:#e61d28;stroke-width:2.96px;}</style></defs><title>Chiffre 03</title><rect class="cls-1" width="865" height="402"/><path class="cls-2" d="M239.52,156.73q0,.33,0,.66a8,8,0,0,1-15.9,0c0-.21,0-.5,0-.71C223.68,156.66,239.52,156.73,239.52,156.73Z" transform="translate(0.02)"/><rect class="cls-3" x="221.57" y="154.38" width="20.06" height="1.7" rx="0.19" ry="0.19" transform="translate(463.22 310.46) rotate(-180)"/><path class="cls-2" d="M227.71,147.05v1.72a.66.66,0,1,0,1.31,0v-2.23a9.5,9.5,0,0,1,1.87-.34v2.57a.66.66,0,1,0,1.31,0v-2.58a8.81,8.81,0,0,1,1.87.32v2.26a.66.66,0,1,0,1.31,0V147a9.13,9.13,0,0,1,5.28,7.39H222.54A9.15,9.15,0,0,1,227.71,147.05Z" transform="translate(0.02)"/><path class="cls-2" d="M216.66,167.57h30.12c4.79,0,7.27,2.54,7.27,7.33v31.9c0,2.27-2.41,4.12-4.68,4.12s-4.68-1.85-4.68-4.12v-27a1.15,1.15,0,0,0-.93-1c-.23,0-.94.37-.94,1v70a4.68,4.68,0,1,1-9.35,0V210.5a1.71,1.71,0,0,0-1.43-1.78h-.87a1.72,1.72,0,0,0-1.44,1.78v39.38a4.68,4.68,0,1,1-9.35,0v-70c0-.59-.71-1-.93-1s-.94.42-.94,1v27c0,2.27-2.41,4.12-4.68,4.12s-4.67-1.85-4.67-4.12V174.9C209.16,170.11,211.87,167.57,216.66,167.57Z" transform="translate(0.02)"/><rect class="cls-4" x="223.65" y="181.81" width="15.9" height="9.85" transform="translate(463.22 373.47) rotate(-180)"/><rect class="cls-4" x="238.93" y="167.5" width="3.16" height="8.92" transform="translate(481.04 343.92) rotate(-180)"/><rect class="cls-4" x="238.59" y="176.73" width="3.83" height="3.06" transform="translate(481.04 356.52) rotate(-180)"/><rect class="cls-4" x="220.74" y="167.5" width="3.16" height="8.92" transform="translate(444.64 343.92) rotate(-180)"/><rect class="cls-4" x="220.4" y="176.73" width="3.83" height="3.06" transform="translate(444.64 356.52) rotate(-180)"/><line class="cls-5" x1="214.58" y1="222.21" x2="91.34" y2="222.21"/><line class="cls-5" x1="129.43" y1="213.25" x2="93.58" y2="213.25"/><line class="cls-5" x1="129.43" y1="204.28" x2="93.58" y2="204.28"/><line class="cls-5" x1="129.43" y1="195.32" x2="93.58" y2="195.32"/><line class="cls-5" x1="129.43" y1="186.36" x2="93.58" y2="186.36"/><line class="cls-5" x1="129.43" y1="177.39" x2="93.58" y2="177.39"/><line class="cls-5" x1="129.43" y1="168.43" x2="93.58" y2="168.43"/><line class="cls-5" x1="214.58" y1="231.17" x2="91.34" y2="231.17"/><line class="cls-5" x1="214.58" y1="240.14" x2="91.34" y2="240.14"/><line class="cls-5" x1="214.58" y1="249.1" x2="91.34" y2="249.1"/><line class="cls-5" x1="214.58" y1="258.06" x2="91.34" y2="258.06"/><path class="cls-5" d="M91.32,258.06" transform="translate(0.02)"/><line class="cls-5" x1="206.74" y1="256.94" x2="206.74" y2="196.44"/><line class="cls-5" x1="197.78" y1="256.94" x2="197.78" y2="196.44"/><line class="cls-5" x1="188.81" y1="256.94" x2="188.81" y2="196.44"/><line class="cls-5" x1="179.85" y1="256.94" x2="179.85" y2="196.44"/><line class="cls-5" x1="170.89" y1="256.94" x2="170.89" y2="196.44"/><line class="cls-5" x1="161.92" y1="256.94" x2="161.92" y2="196.44"/><line class="cls-5" x1="152.96" y1="256.94" x2="152.96" y2="196.44"/><line class="cls-5" x1="144" y1="256.94" x2="144" y2="196.44"/><line class="cls-5" x1="135.03" y1="256.94" x2="135.03" y2="196.44"/><line class="cls-5" x1="126.07" y1="256.94" x2="126.07" y2="151.62"/><line class="cls-5" x1="117.11" y1="256.94" x2="117.11" y2="151.62"/><line class="cls-5" x1="108.14" y1="256.94" x2="108.14" y2="151.62"/><line class="cls-5" x1="99.18" y1="256.94" x2="99.18" y2="151.62"/><path class="cls-2" d="M158.24,161.68c0,.22,0,.44,0,.67a8,8,0,0,0,15.9,0c0-.22,0-.51,0-.72C174.09,161.61,158.24,161.68,158.24,161.68Z" transform="translate(0.02)"/><rect class="cls-3" x="156.15" y="159.33" width="20.06" height="1.7" rx="0.19" ry="0.19"/><path class="cls-2" d="M170.06,152v1.72a.66.66,0,0,1-1.32,0V151.5a8.74,8.74,0,0,0-1.86-.35v2.57a.66.66,0,0,1-1.32,0v-2.58a8.83,8.83,0,0,0-1.86.32v2.26a.66.66,0,0,1-1.32,0v-1.78a9.13,9.13,0,0,0-5.27,7.39h18.11A9.14,9.14,0,0,0,170.06,152Z" transform="translate(0.02)"/><path class="cls-2" d="M181.1,172.52H151c-4.79,0-7.27,2.54-7.27,7.33v31.91c0,2.26,2.41,4.11,4.68,4.11s4.67-1.85,4.67-4.11v-27c0-.54.68-1,.94-1s.93.37.93,1v70.05a4.68,4.68,0,1,0,9.35,0V215.45a1.72,1.72,0,0,1,1.44-1.78h.87a1.71,1.71,0,0,1,1.43,1.78v39.38a4.69,4.69,0,1,0,9.36,0V184.78a1.12,1.12,0,0,1,.93-1c.26,0,.94.42.94,1v27c0,2.26,2.4,4.11,4.67,4.11s4.68-1.85,4.68-4.11V179.85C188.61,175.06,185.89,172.52,181.1,172.52Z" transform="translate(0.02)"/><rect class="cls-4" x="158.23" y="186.76" width="15.9" height="9.85"/><rect class="cls-4" x="155.69" y="172.46" width="3.16" height="8.92"/><rect class="cls-4" x="155.35" y="181.68" width="3.83" height="3.06"/><rect class="cls-4" x="173.89" y="172.46" width="3.16" height="8.92"/><rect class="cls-4" x="173.55" y="181.68" width="3.83" height="3.06"/><rect class="cls-2" x="270.5" y="169.02" width="103.66" height="21.68" rx="1.42" ry="1.42"/><rect class="cls-6" x="244.17" y="161.28" width="170.32" height="15.48" rx="1.42" ry="1.42"/><path class="cls-6" d="M359.71,150.28l17.93-46.14A6.37,6.37,0,0,1,384,97.79h17.94a6.37,6.37,0,0,1,6.35,6.35v46.14a6.37,6.37,0,0,1-6.35,6.35H366.07A6.37,6.37,0,0,1,359.71,150.28Z" transform="translate(0.02)"/><circle class="cls-7" cx="327.63" cy="189.1" r="21.09"/><circle class="cls-2" cx="327.63" cy="189.1" r="13.18"/><circle class="cls-7" cx="274.99" cy="189.1" r="21.09"/><circle class="cls-2" cx="274.99" cy="189.1" r="13.18"/><path class="cls-6" d="M339.58,150.44l-33.59.19-65.61-45.54a4.41,4.41,0,0,1-2.5-5.69l14.82-38a4.42,4.42,0,0,1,5.69-2.5l78.94,10.86,24.76,23c2.25.87,6.89,11.45,6,13.7l-14.82,38C352.4,146.67,341.83,151.31,339.58,150.44Z" transform="translate(0.02)"/><circle class="cls-6" cx="392.81" cy="100.89" r="15.48"/><polygon class="cls-8" points="231.78 110.18 205.62 138.05 236.99 123.61 246.75 160.76 299.74 160.76 231.78 110.18"/><rect class="cls-6" x="355.65" y="169.02" width="58.84" height="21.68" rx="1.42" ry="1.42"/><polyline class="cls-4" points="409.54 311.85 409.54 213.25 216.82 213.25 216.82 258.06 93.58 258.06 93.58 308.86"/><polyline class="cls-9" points="409.54 311.85 409.54 213.25 216.82 213.25 216.82 258.06 93.58 258.06"/><circle class="cls-2" cx="371.45" cy="244.62" r="2.24"/><circle class="cls-2" cx="371.45" cy="293.92" r="2.24"/><circle class="cls-2" cx="322.15" cy="244.62" r="2.24"/><circle class="cls-2" cx="322.15" cy="293.92" r="2.24"/><circle class="cls-2" cx="272.85" cy="244.62" r="2.24"/><circle class="cls-2" cx="272.85" cy="293.92" r="2.24"/><circle class="cls-2" cx="219.07" cy="293.92" r="2.24"/><circle class="cls-2" cx="169.77" cy="293.92" r="2.24"/><circle class="cls-2" cx="120.47" cy="293.92" r="2.24"/><path class="cls-10" d="M497,251.58a32.28,32.28,0,0,1-.75-3.21c-.23-1.22-.46-2.93-.68-5.11s-.39-5-.48-8.51-.13-8-.13-13.42,0-9.93.13-13.43.25-6.33.48-8.51.45-3.89.68-5.11a32.28,32.28,0,0,1,.75-3.21,24.26,24.26,0,0,1,9.2-13.08q6.46-4.49,16.14-4.49T538.48,178a24.26,24.26,0,0,1,9.2,13.08,32.28,32.28,0,0,1,.75,3.21c.23,1.22.45,2.93.68,5.11s.39,5,.48,8.51.13,8,.13,13.43,0,9.92-.13,13.42-.25,6.33-.48,8.51-.45,3.89-.68,5.11a32.28,32.28,0,0,1-.75,3.21,24.26,24.26,0,0,1-9.2,13.08q-6.47,4.5-16.15,4.49t-16.14-4.49A24.26,24.26,0,0,1,497,251.58Zm11.31-2.32a13.08,13.08,0,0,0,5.25,6.95,17.79,17.79,0,0,0,17.57,0,13.08,13.08,0,0,0,5.25-6.95,15.32,15.32,0,0,0,.68-2.59q.27-1.5.48-4.5t.27-8c.05-3.31.07-7.61.07-12.87s0-9.56-.07-12.88-.14-6-.27-8-.3-3.5-.48-4.5a15.32,15.32,0,0,0-.68-2.59,13.12,13.12,0,0,0-5.25-6.95,17.86,17.86,0,0,0-17.57,0,13.12,13.12,0,0,0-5.25,6.95,15.32,15.32,0,0,0-.68,2.59q-.27,1.5-.48,4.5c-.14,2-.23,4.65-.27,8s-.07,7.61-.07,12.88,0,9.56.07,12.87.13,6,.27,8,.3,3.5.48,4.5A15.32,15.32,0,0,0,508.3,249.26Z" transform="translate(0.02)"/><path class="cls-10" d="M591,227.87l-.27-.28a11.65,11.65,0,0,1-3.89,1.57,23.25,23.25,0,0,1-5.51.61,27.23,27.23,0,0,1-10.22-1.9,24.71,24.71,0,0,1-8.38-5.52,25.66,25.66,0,0,1-5.66-8.66,30.26,30.26,0,0,1-2-11.44,31.61,31.61,0,0,1,2.18-12.13,25.49,25.49,0,0,1,15-14.65,31.83,31.83,0,0,1,11.25-2,32.58,32.58,0,0,1,11.31,1.9,25,25,0,0,1,8.92,5.59,26.73,26.73,0,0,1,5.93,8.93,30.86,30.86,0,0,1,2.18,11.92,35.62,35.62,0,0,1-1.7,10.9A57.41,57.41,0,0,1,605.73,223L582.15,266.7a1.87,1.87,0,0,1-1.77,1h-9.26c-1,0-1.28-.46-.82-1.37Zm-7.49-8.72c5.08,0,9.13-1.62,12.12-4.84s4.5-7.43,4.5-12.61-1.5-9.4-4.5-12.67-7-4.9-12.12-4.9-9.16,1.63-12.2,4.9-4.56,7.5-4.56,12.67,1.52,9.38,4.56,12.61S578.43,219.15,583.52,219.15Z" transform="translate(0.02)"/><path class="cls-11" d="M488.12,308.68l.57-8.34L489.3,284c0-.67,0-1.64,0-2.92,1.7,0,3.15,0,4.35,0,.76,0,1.93,0,3.51,0s2.69,0,3.36,0a25.79,25.79,0,0,1,5.66.52,9.17,9.17,0,0,1,3.19,1.36,10.38,10.38,0,0,1,2.59,2.54,11.46,11.46,0,0,1,1.68,3.46,17.2,17.2,0,0,1,.64,4.73,17.83,17.83,0,0,1-1.19,6.49,13,13,0,0,1-3.56,5.19,11.85,11.85,0,0,1-5.28,2.73,29.75,29.75,0,0,1-6.53.66l-5.65,0ZM492,306q2.46.06,4.59.06,1.78,0,3.63-.18a15.55,15.55,0,0,0,3.32-.63,8.39,8.39,0,0,0,2.88-1.67,10.74,10.74,0,0,0,2.32-2.74,12,12,0,0,0,1.34-3.42,16.52,16.52,0,0,0,.45-3.84,13.81,13.81,0,0,0-.57-4.05,8.75,8.75,0,0,0-1.93-3.36,6.57,6.57,0,0,0-3.24-2,20,20,0,0,0-4.95-.5q-3.8,0-6.93.06Z" transform="translate(0.02)"/><path class="cls-11" d="M535.47,305.46c-.16.74-.32,1.69-.48,2.83a26.29,26.29,0,0,1-3.37.66,22.84,22.84,0,0,1-2.85.18,15.83,15.83,0,0,1-4.54-.61,7.81,7.81,0,0,1-3.46-2.12,8.83,8.83,0,0,1-2.06-3.45,13.29,13.29,0,0,1-.63-4.11,13.56,13.56,0,0,1,1.15-5.6,9.13,9.13,0,0,1,3.48-4.06,10.69,10.69,0,0,1,5.88-1.48,11.42,11.42,0,0,1,3.52.54,7,7,0,0,1,2.8,1.63,7.49,7.49,0,0,1,1.72,2.7,10,10,0,0,1,.61,3.51,8.25,8.25,0,0,1-.12,1.42H521.66c0,.74-.08,1.31-.08,1.7a8.72,8.72,0,0,0,.89,3.92,6,6,0,0,0,2.64,2.71,8.36,8.36,0,0,0,4,.93A20.14,20.14,0,0,0,535.47,305.46Zm-13.64-9.64H533.9a11.52,11.52,0,0,0-.17-2,5.77,5.77,0,0,0-.52-1.47,4.2,4.2,0,0,0-1.05-1.32,4.61,4.61,0,0,0-1.58-.85,6.64,6.64,0,0,0-2-.29,7.6,7.6,0,0,0-2.2.32,6.84,6.84,0,0,0-1.84.89,5.93,5.93,0,0,0-1.36,1.33,6.52,6.52,0,0,0-.83,1.47A13,13,0,0,0,521.83,295.82Z" transform="translate(0.02)"/><path class="cls-11" d="M540.69,317.83q.4-5.22.76-14.21t.4-14.7q3.31-.72,5.31-1a33.43,33.43,0,0,1,4-.25,14,14,0,0,1,5.49,1,7.29,7.29,0,0,1,3.62,3.53,12.33,12.33,0,0,1,1.3,5.7,15.13,15.13,0,0,1-.61,4.26,11.3,11.3,0,0,1-1.86,3.68,7.91,7.91,0,0,1-3,2.43,9.13,9.13,0,0,1-3.93.83,9.77,9.77,0,0,1-2.49-.32,8.43,8.43,0,0,1-2.08-.82,6.71,6.71,0,0,1-1.48-1.13,15.5,15.5,0,0,1-1.44-1.89l-.25,8c-.06,1.31-.08,2.26-.08,2.84v2c-.69,0-1.29,0-1.8,0S541.45,317.81,540.69,317.83Zm4.64-26.5-.15,1.53-.1,2.11q-.08,1.66-.12,2.7c0,.7,0,1.19,0,1.47a12.36,12.36,0,0,0,.31,2.84,5.77,5.77,0,0,0,1.26,2.44,6.33,6.33,0,0,0,4.85,2.23,6,6,0,0,0,3.45-1,6.8,6.8,0,0,0,2.42-3.14,11.71,11.71,0,0,0,.87-4.55,9.44,9.44,0,0,0-.91-4.3,5.69,5.69,0,0,0-2.45-2.6,7.47,7.47,0,0,0-3.48-.8A17.52,17.52,0,0,0,545.33,291.33Z" transform="translate(0.02)"/><path class="cls-11" d="M585.21,308.68c-.66,0-1.23,0-1.7,0s-1.1,0-1.68,0l.1-3.91a15.38,15.38,0,0,1-.84,1.41,7,7,0,0,1-2,1.77,7.15,7.15,0,0,1-1.3.58,11.13,11.13,0,0,1-1.76.42,12,12,0,0,1-2.13.18,10.74,10.74,0,0,1-4.23-.75,5.8,5.8,0,0,1-2.65-2.13,6.83,6.83,0,0,1-.9-3.77c0-.24,0-.65,0-1.23s.07-1.34.12-2.27l.34-6.74.06-2.17c0-.5,0-1.13,0-1.9l1.87,0,1.74,0q-.29,3.54-.54,7.75c-.17,2.81-.26,4.61-.26,5.39a6,6,0,0,0,.58,2.84,3.78,3.78,0,0,0,1.93,1.64,7.54,7.54,0,0,0,3.05.58,7.81,7.81,0,0,0,2.87-.53,5.82,5.82,0,0,0,2-1.25,7,7,0,0,0,1.46-2.25,10.76,10.76,0,0,0,.65-2.61c.09-.77.18-2.15.28-4.15q.17-3.65.22-7.41l1.89,0,1.7,0q-.28,3.65-.67,11.07Q585.27,303.34,585.21,308.68Z" transform="translate(0.02)"/><path class="cls-11" d="M591.17,308.68l.35-5.1.39-8.71.17-6.7,1.86,0,1.83,0c-.15,2.1-.29,4.31-.42,6.61s-.22,4.81-.3,7.54-.11,4.85-.11,6.36c-.85,0-1.46,0-1.82,0S592.13,308.65,591.17,308.68Zm.93-24.93c0-1.27.06-2.23.06-2.87.75,0,1.4,0,2,0s1.36,0,1.94,0c0,.41-.07,1.37-.12,2.87l-1.88,0Z" transform="translate(0.02)"/><path class="cls-11" d="M599.87,308.29l-.13-1.48c0-.17,0-.68-.16-1.55a14.61,14.61,0,0,0,5.75,1.35,6.59,6.59,0,0,0,2.33-.36,2.85,2.85,0,0,0,1.43-1.08,2.63,2.63,0,0,0,.48-1.48,2.8,2.8,0,0,0-.14-.85A3.23,3.23,0,0,0,609,302a5.26,5.26,0,0,0-.78-.86c-.34-.32-1.06-.92-2.15-1.79s-1.91-1.57-2.47-2.06a10.07,10.07,0,0,1-1.43-1.52,5.51,5.51,0,0,1-.88-1.57,4.7,4.7,0,0,1-.29-1.6,4.41,4.41,0,0,1,.82-2.51,4.91,4.91,0,0,1,2.37-1.81,10,10,0,0,1,3.64-.6,26.4,26.4,0,0,1,5.12.55c0,1.05.12,2,.2,2.89a11.71,11.71,0,0,0-4.47-.93,7.49,7.49,0,0,0-2.22.32,2.88,2.88,0,0,0-1.5.94,2.2,2.2,0,0,0-.48,1.37,2.7,2.7,0,0,0,.17.94,3.59,3.59,0,0,0,.57,1,8.06,8.06,0,0,0,1,1c.39.34,1.17,1,2.33,1.9a28.55,28.55,0,0,1,2.4,2.07,8.37,8.37,0,0,1,1.12,1.38,5.8,5.8,0,0,1,.68,1.4,5,5,0,0,1,.21,1.43,4.52,4.52,0,0,1-.84,2.63,5.44,5.44,0,0,1-2.5,1.89,10,10,0,0,1-3.73.67,20.33,20.33,0,0,1-2-.12c-.79-.07-1.45-.16-2-.26S600.68,308.5,599.87,308.29Z" transform="translate(0.02)"/><path class="cls-11" d="M628.52,308.68c0-.46.07-1.39.1-2.8q3.38-3.25,6.17-6.25t5.11-5.85a30.44,30.44,0,0,0,2.73-3.79,6.09,6.09,0,0,0,.66-1.49,4.6,4.6,0,0,0,.17-1.26,3.18,3.18,0,0,0-.83-2.29,5.06,5.06,0,0,0-2.15-1.34,9.49,9.49,0,0,0-3.06-.44,31.23,31.23,0,0,0-7.42,1.15q.29-1.44.48-2.94a42.77,42.77,0,0,1,8-.79A16.88,16.88,0,0,1,642,281a8.46,8.46,0,0,1,3,1.19,5.61,5.61,0,0,1,1.91,2,5.08,5.08,0,0,1,.61,2.47,7.61,7.61,0,0,1-.15,1.52,6.83,6.83,0,0,1-.43,1.37,19.15,19.15,0,0,1-1.44,2.6c-.6.9-1.57,2.17-2.93,3.82s-2.8,3.3-4.34,4.94-3.26,3.42-5.19,5.31c.94,0,2.55,0,4.82,0,1.27,0,2.71,0,4.31,0s3-.1,4.32-.22c-.11,1.17-.17,2.09-.2,2.75-2.4,0-5.29,0-8.65,0l-3.7,0Z" transform="translate(0.02)"/><path class="cls-11" d="M662.93,280.59a10.4,10.4,0,0,1,2.83.38,7.42,7.42,0,0,1,2.61,1.4,8,8,0,0,1,2.15,2.74,14.5,14.5,0,0,1,1.25,3.8,22.93,22.93,0,0,1,.4,4.4,29.77,29.77,0,0,1-.65,6.16,18.21,18.21,0,0,1-1.89,5.24,8.19,8.19,0,0,1-3.38,3.3,9.79,9.79,0,0,1-4.61,1.12,8.66,8.66,0,0,1-5-1.45,8.84,8.84,0,0,1-3.19-4.26,18.17,18.17,0,0,1-1.09-6.59,32.17,32.17,0,0,1,.62-6.26,18.19,18.19,0,0,1,1.92-5.43,8.34,8.34,0,0,1,3.46-3.43A9.73,9.73,0,0,1,662.93,280.59Zm-.11,2.6a4.86,4.86,0,0,0-1.79.34,5.68,5.68,0,0,0-1.7,1.07,6.75,6.75,0,0,0-1.35,1.7,13.33,13.33,0,0,0-1.05,2.53,20,20,0,0,0-.75,3.71,37.89,37.89,0,0,0-.25,4.42,22,22,0,0,0,.28,3.74,9.67,9.67,0,0,0,.89,2.69,5.7,5.7,0,0,0,1.24,1.73,5.36,5.36,0,0,0,1.62,1.07,4.91,4.91,0,0,0,1.85.34,4.75,4.75,0,0,0,3.72-1.68,8.79,8.79,0,0,0,1.64-2.8,17.86,17.86,0,0,0,1.08-4.18,33.9,33.9,0,0,0,.33-4.74,22.41,22.41,0,0,0-.23-3.49,13.35,13.35,0,0,0-.76-2.81,6.44,6.44,0,0,0-1.36-2.16,5,5,0,0,0-1.65-1.16A4.66,4.66,0,0,0,662.82,283.19Z" transform="translate(0.02)"/><path class="cls-11" d="M684.81,308.68q.27-3.17.42-7.17l.36-9.05c.15-3.39.24-6,.28-8-.71.43-1.25.78-1.63,1l-1.37.93c.11-1.26.16-2.37.16-3.32,1.7-1,2.8-1.68,3.3-2.06l1.7,0,1.85,0-.5,8.65-.51,12-.08,3c0,.77,0,1.55,0,2.33l0,1.66c-.68,0-1.31,0-1.89,0S685.54,308.65,684.81,308.68Z" transform="translate(0.02)"/><path class="cls-11" d="M706.31,294.59a11.14,11.14,0,0,1-1.93-.95,5.78,5.78,0,0,1-1.28-1.22,5.38,5.38,0,0,1-1-1.8,7,7,0,0,1-.33-2.17,7.65,7.65,0,0,1,.77-3.41,6.89,6.89,0,0,1,2.2-2.59,8.9,8.9,0,0,1,3.09-1.44,14,14,0,0,1,3.46-.42,11.66,11.66,0,0,1,4.18.74,6.65,6.65,0,0,1,3.09,2.37,6.58,6.58,0,0,1,1.15,3.9,9,9,0,0,1-.16,1.72A6.08,6.08,0,0,1,719,291a6.7,6.7,0,0,1-1,1.46,6.93,6.93,0,0,1-1.24,1.06,13.85,13.85,0,0,1-2,1,13.64,13.64,0,0,1,2.1.68,6.1,6.1,0,0,1,1.31.85,5.15,5.15,0,0,1,1.08,1.25,6.06,6.06,0,0,1,.67,1.6,7.62,7.62,0,0,1,.23,1.88,8.19,8.19,0,0,1-.74,3.45,7.47,7.47,0,0,1-2.09,2.72,9,9,0,0,1-3.33,1.65,15.56,15.56,0,0,1-4.11.55,12.93,12.93,0,0,1-5.17-1,7,7,0,0,1-3.29-2.62,6.9,6.9,0,0,1-1.08-3.84,8,8,0,0,1,.24-1.93,6.4,6.4,0,0,1,.76-1.84,6.1,6.1,0,0,1,1.23-1.5,7,7,0,0,1,1.46-1A16.11,16.11,0,0,1,706.31,294.59Zm4.15,1.25a8.23,8.23,0,0,0-3.57.68,5.15,5.15,0,0,0-2.19,1.93,5.5,5.5,0,0,0-.05,5.56A4.76,4.76,0,0,0,706.9,306a7.72,7.72,0,0,0,3.24.68,7.58,7.58,0,0,0,3.27-.72,5.24,5.24,0,0,0,2.33-2.13,6,6,0,0,0,.82-3.06,4.49,4.49,0,0,0-1.51-3.57A6.89,6.89,0,0,0,710.46,295.84Zm.57-12.78a5.75,5.75,0,0,0-4.23,1.58,5.45,5.45,0,0,0-1.58,4,4.85,4.85,0,0,0,.65,2.58,4.08,4.08,0,0,0,1.9,1.64,6.83,6.83,0,0,0,5.72-.14,5.25,5.25,0,0,0,2.11-2,5.45,5.45,0,0,0,.77-2.93,4.56,4.56,0,0,0-.79-2.73,4.4,4.4,0,0,0-2-1.59A6.81,6.81,0,0,0,711,283.06Z" transform="translate(0.02)"/><path class="cls-2" d="M488.92,92.44l.45-5.91.83-20.36.1-4.37c0-.69,0-1.38,0-2.06V56.91c2.17,0,3.93.05,5.28.05.82,0,2.07,0,3.75-.05s2.95-.06,3.78-.06a18.14,18.14,0,0,1,4.89.49A7.23,7.23,0,0,1,510.85,59a8.12,8.12,0,0,1,1.92,2.8,9.31,9.31,0,0,1,.71,3.67,10.77,10.77,0,0,1-1.67,5.9,10.27,10.27,0,0,1-4.54,3.9,15.53,15.53,0,0,1-6.42,1.29,23.35,23.35,0,0,1-4.17-.42,30.18,30.18,0,0,0-.88-3.25,20.91,20.91,0,0,0,4,.39,14.45,14.45,0,0,0,3.58-.43,7.4,7.4,0,0,0,2.92-1.43,6.78,6.78,0,0,0,1.9-2.51,7.65,7.65,0,0,0,.68-3.21,6.11,6.11,0,0,0-.49-2.46A4.45,4.45,0,0,0,507,61.4a5,5,0,0,0-2-.9,16.36,16.36,0,0,0-3.21-.23H499.6l-2.73,0-2,0c-.2,3.8-.35,7.26-.44,10.36L494,81.35c-.12,4.07-.18,6.78-.18,8.15v2.94l-2.42,0Z" transform="translate(0.02)"/><path class="cls-2" d="M517.85,92.44l.52-7L519,72.5l.26-10.88c0-2.21,0-3.78,0-4.71,2.08,0,3.81.05,5.18.05,1.18,0,2.49,0,3.92-.05s2.61-.06,3.53-.06a27.07,27.07,0,0,1,4.41.34,8,8,0,0,1,3.57,1.55,7.69,7.69,0,0,1,2.32,2.81,8.64,8.64,0,0,1,.74,3.64,10.8,10.8,0,0,1-.59,3.61,9.6,9.6,0,0,1-1.71,3A9.49,9.49,0,0,1,538,74a11.78,11.78,0,0,1-3,1.06c-.8.18-1.89.34-3.28.5l4.58,7.32L541,90.18c.33.5.8,1.26,1.43,2.26l-2.7,0-2.77,0-1.88-3.56c-.38-.7-.76-1.38-1.15-2.06s-.8-1.4-1.25-2.19l-5.9-9.6q-.36-.57-1.2-2a19.54,19.54,0,0,0,3.54.37,12.57,12.57,0,0,0,4.73-.86,6.79,6.79,0,0,0,3.28-2.67,7.34,7.34,0,0,0,1.16-4,6.48,6.48,0,0,0-.37-2.23,4.12,4.12,0,0,0-1.15-1.73,5.66,5.66,0,0,0-1.57-1,8.28,8.28,0,0,0-2-.46,18.91,18.91,0,0,0-2.56-.16l-3.7,0c-1.59,0-2.61,0-3,0q-.81,17.49-1,32.17l-2.55,0Z" transform="translate(0.02)"/><path class="cls-2" d="M567,56.33a23.85,23.85,0,0,1,7.32,1.12,15.43,15.43,0,0,1,6.1,3.7,14.82,14.82,0,0,1,3.76,5.78,20.8,20.8,0,0,1,1.12,6.95,23.77,23.77,0,0,1-1.25,7.71,15.73,15.73,0,0,1-3.85,6.27,16.49,16.49,0,0,1-6.4,3.87,25.49,25.49,0,0,1-15.64.12A16.14,16.14,0,0,1,552,88.24a14.21,14.21,0,0,1-3.73-5.73,21.17,21.17,0,0,1-1.14-7,22.33,22.33,0,0,1,1.38-7.8,16.57,16.57,0,0,1,4.07-6.31,17,17,0,0,1,6.51-3.83A25.53,25.53,0,0,1,567,56.33Zm-.29,3.49a17.55,17.55,0,0,0-5.91,1A12.26,12.26,0,0,0,556,64a14,14,0,0,0-3.07,5.2,19.43,19.43,0,0,0-1,6.24,17.1,17.1,0,0,0,1,5.79,11.79,11.79,0,0,0,2.92,4.62,12.1,12.1,0,0,0,4.63,2.74,17.82,17.82,0,0,0,5.65.9,17.34,17.34,0,0,0,5.77-1,11.94,11.94,0,0,0,4.74-3.06,13,13,0,0,0,2.95-5.06,20.3,20.3,0,0,0,.1-12.08,11.85,11.85,0,0,0-2.79-4.78,11.46,11.46,0,0,0-4.54-2.87A17.13,17.13,0,0,0,566.74,59.82Z" transform="translate(0.02)"/><path class="cls-2" d="M586.69,92.13c-.07-1.4-.18-2.75-.34-4a39.64,39.64,0,0,0,4.19,1.09,16.78,16.78,0,0,0,2.89.26,9.71,9.71,0,0,0,2.6-.34,7.79,7.79,0,0,0,1.91-.81,4.49,4.49,0,0,0,1.11-.93,6.5,6.5,0,0,0,1-1.7,7.6,7.6,0,0,0,.6-2.29c.16-1.25.32-3.76.5-7.53l.28-9.25.18-9.69,2.5,0,2.61,0q-.56,8.13-.82,14.3l-.39,9.87a30.51,30.51,0,0,1-.6,5.62A7,7,0,0,1,603.09,90a9.29,9.29,0,0,1-3.56,2.19,14.76,14.76,0,0,1-5.06.81A39.73,39.73,0,0,1,586.69,92.13Z" transform="translate(0.02)"/><path class="cls-2" d="M613.32,92.44l.66-9.78.73-18.31.08-4c0-1,0-2.16,0-3.46l12,0,8.3,0h2.65c-.12,1.2-.2,2.42-.23,3.64l-2.32-.13c-.57,0-1.56-.06-2.95-.08l-4.16,0c-4.09,0-6.95,0-8.56.08l-.48,12.18c2.68,0,5.07.08,7.19.08q3.47,0,9.09-.11c-.12,1.22-.2,2.42-.23,3.6l-9-.08q-2.64,0-7.32.1L618.42,89l2.7,0q7.38,0,9.79,0c1.6,0,3.48-.11,5.64-.24-.13,1.29-.2,2.51-.24,3.67q-6.27,0-10.59,0Z" transform="translate(0.02)"/><path class="cls-2" d="M650.74,92.44l.52-8L652,68l.23-7.63q-6.37,0-11.16.24c.1-1.39.17-2.61.18-3.67l14.27,0,8.33,0h4.42c-.12,1.53-.18,2.76-.18,3.67q-4-.24-8.93-.24H657l-.54,11.53L655.9,88.1v4.34l-2.51,0Z" transform="translate(0.02)"/><path class="cls-2" d="M669.85,91.51c-.07-1.65-.19-3.08-.34-4.3a26.61,26.61,0,0,0,5,1.84,18.14,18.14,0,0,0,4.23.53,9.84,9.84,0,0,0,3.63-.66A5.47,5.47,0,0,0,684.86,87a4.72,4.72,0,0,0,.84-2.77,4.8,4.8,0,0,0-.29-1.71,5.94,5.94,0,0,0-.92-1.61,17.91,17.91,0,0,0-2.21-2.21q-1.57-1.39-4.47-3.84l-1.92-1.64q-1.1-.95-2-1.86a15.79,15.79,0,0,1-1.49-1.78,10.3,10.3,0,0,1-.92-1.53,6.79,6.79,0,0,1-.51-1.54,8.26,8.26,0,0,1-.18-1.73A7.8,7.8,0,0,1,672,60.63a8.56,8.56,0,0,1,3.69-3.12,15.06,15.06,0,0,1,6.49-1.18,40.21,40.21,0,0,1,7.11.78c0,1.12.16,2.49.36,4.12a21.83,21.83,0,0,0-7.23-1.41,8.49,8.49,0,0,0-3.75.74,5.65,5.65,0,0,0-2.29,1.89,4.19,4.19,0,0,0-.78,2.37,5.18,5.18,0,0,0,.2,1.42,4.79,4.79,0,0,0,.63,1.31,13.11,13.11,0,0,0,1.48,1.84,32.27,32.27,0,0,0,2.45,2.25l3,2.45c1.73,1.42,3,2.53,3.78,3.31A15.43,15.43,0,0,1,689,79.57a8.47,8.47,0,0,1,1.1,2.16,7.81,7.81,0,0,1,.39,2.51,8.29,8.29,0,0,1-.9,3.84A7.52,7.52,0,0,1,687,91a11,11,0,0,1-3.73,1.59A19.54,19.54,0,0,1,679,93a25.18,25.18,0,0,1-3.71-.28A48.18,48.18,0,0,1,669.85,91.51Z" transform="translate(0.02)"/><path class="cls-2" d="M710,92.44l.65-9.78.73-18.31.08-4c0-1,0-2.16,0-3.46l12,0,8.3,0h2.66c-.13,1.2-.2,2.42-.24,3.64l-2.32-.13c-.57,0-1.55-.06-2.95-.08l-4.15,0c-4.1,0-6.95,0-8.57.08l-.47,12.18q4,.08,7.19.08,3.45,0,9.08-.11c-.12,1.22-.2,2.42-.23,3.6l-9-.08q-2.62,0-7.32.1L715.06,89l2.71,0q7.37,0,9.78,0c1.61,0,3.49-.11,5.64-.24-.12,1.29-.2,2.51-.23,3.67q-6.29,0-10.6,0Z" transform="translate(0.02)"/><path class="cls-2" d="M740.12,92.44l.52-7.23.89-21.14.1-4.12c0-1.3,0-2.31,0-3l3.25,0,3,0,2.84,4.58,17.21,26L769,56.91l2.32,0,2.29,0L773.08,66l-.7,16.06-.31,10.36c-1,0-2,0-3,0s-1.95,0-3.15,0l-2.39-3.82L745.87,62.19c-.07,1-.14,2.5-.21,4.58l-.72,18.41-.16,7.26-2.27,0Z" transform="translate(0.02)"/><path class="cls-2" d="M516.47,141.21c-.24,1.26-.46,2.62-.65,4.09a47.84,47.84,0,0,1-9.4,1,23.53,23.53,0,0,1-7.34-1.16,16.58,16.58,0,0,1-6.16-3.58,14.47,14.47,0,0,1-3.81-5.7,20.32,20.32,0,0,1-1.2-7,22.72,22.72,0,0,1,1.33-7.73,16,16,0,0,1,4-6.32,17.33,17.33,0,0,1,6.51-3.88,24.71,24.71,0,0,1,8-1.29,43.63,43.63,0,0,1,8.93.94c0,.88.11,2.23.28,4a34.26,34.26,0,0,0-4.92-1.19,26.27,26.27,0,0,0-3.85-.3,18.71,18.71,0,0,0-5.94,1,13.45,13.45,0,0,0-5,3,13.78,13.78,0,0,0-3.35,5.11,17.6,17.6,0,0,0-1.15,6.32,17.86,17.86,0,0,0,.92,5.78,11.62,11.62,0,0,0,2.84,4.62,12.92,12.92,0,0,0,4.54,2.89,16.43,16.43,0,0,0,5.91,1A33.37,33.37,0,0,0,516.47,141.21Z" transform="translate(0.02)"/><path class="cls-2" d="M541.41,109.65a23.85,23.85,0,0,1,7.32,1.12,15.43,15.43,0,0,1,6.1,3.7,14.92,14.92,0,0,1,3.77,5.78,21.1,21.1,0,0,1,1.12,7,24,24,0,0,1-1.25,7.71,15.87,15.87,0,0,1-3.86,6.27,16.42,16.42,0,0,1-6.4,3.87,25.49,25.49,0,0,1-15.64.12,16.08,16.08,0,0,1-6.23-3.61,14.09,14.09,0,0,1-3.72-5.73,20.92,20.92,0,0,1-1.15-7,22.37,22.37,0,0,1,1.38-7.8,16.57,16.57,0,0,1,4.07-6.31,17,17,0,0,1,6.51-3.83A25.62,25.62,0,0,1,541.41,109.65Zm-.28,3.49a17.46,17.46,0,0,0-5.91,1,12.22,12.22,0,0,0-4.86,3.22,14,14,0,0,0-3.07,5.2,19.46,19.46,0,0,0-1,6.24,17.1,17.1,0,0,0,1,5.79,11.77,11.77,0,0,0,2.91,4.62,12.14,12.14,0,0,0,4.64,2.74,17.73,17.73,0,0,0,5.65.9,17.32,17.32,0,0,0,5.76-1,11.83,11.83,0,0,0,4.74-3.06,13.18,13.18,0,0,0,3-5.06,20.08,20.08,0,0,0,1-6.22,19.6,19.6,0,0,0-.87-5.86,11.64,11.64,0,0,0-2.79-4.77A11.3,11.3,0,0,0,546.7,114,17.07,17.07,0,0,0,541.13,113.14Z" transform="translate(0.02)"/><path class="cls-2" d="M566.66,110.23l2.58,0,2.53,0-1.17,19.86-.08,2.42v.5a12,12,0,0,0,1.07,5.61A7.06,7.06,0,0,0,575,141.7a13.9,13.9,0,0,0,5.9,1.1,14.92,14.92,0,0,0,4.43-.63,9.28,9.28,0,0,0,2.88-1.46,7.65,7.65,0,0,0,2-2.23,9.36,9.36,0,0,0,1-2.89,66.44,66.44,0,0,0,.65-7.09l.47-8.38c.13-3.09.23-6.39.28-9.89l2.69,0,2.42,0-.76,12.26-.47,10.15a30.46,30.46,0,0,1-.75,5.5,10.26,10.26,0,0,1-1.15,2.6,8.59,8.59,0,0,1-1.66,1.95,12.44,12.44,0,0,1-2.84,1.85,16.86,16.86,0,0,1-3.75,1.25,30.55,30.55,0,0,1-5.88.55,24.46,24.46,0,0,1-5.55-.6,15.4,15.4,0,0,1-4.11-1.59,10.58,10.58,0,0,1-3-2.42A8.07,8.07,0,0,1,566.3,139a13.22,13.22,0,0,1-.62-4.14c0-1.61.06-3.46.19-5.54s.29-5.23.49-9.43S566.66,112.45,566.66,110.23Z" transform="translate(0.02)"/><path class="cls-2" d="M604.05,145.77l.52-7,.6-12.94.26-10.88c0-2.2.05-3.78.05-4.71,2.09,0,3.81,0,5.18,0,1.18,0,2.49,0,3.92,0s2.61,0,3.53,0a27.16,27.16,0,0,1,4.42.33,8.09,8.09,0,0,1,3.56,1.55,7.59,7.59,0,0,1,2.32,2.81,8.49,8.49,0,0,1,.74,3.64,10.9,10.9,0,0,1-.58,3.62,9.85,9.85,0,0,1-1.72,3,9.42,9.42,0,0,1-2.69,2.21,12.25,12.25,0,0,1-3,1.07c-.8.17-1.89.33-3.28.49l4.58,7.32,4.74,7.26c.33.5.81,1.26,1.43,2.27-1.35,0-2.24-.06-2.69-.06s-1.41,0-2.78.06l-1.88-3.57c-.38-.7-.76-1.38-1.14-2.06s-.8-1.4-1.26-2.18L613,128.35q-.37-.57-1.2-2a19.37,19.37,0,0,0,3.54.37,12.52,12.52,0,0,0,4.72-.86,6.74,6.74,0,0,0,3.28-2.67,7.26,7.26,0,0,0,1.16-4,6.73,6.73,0,0,0-.36-2.23A4.2,4.2,0,0,0,623,115.2a5.62,5.62,0,0,0-1.56-1,8.4,8.4,0,0,0-2-.46,19.06,19.06,0,0,0-2.57-.16l-3.69,0c-1.6,0-2.62,0-3,0q-.81,17.49-1,32.18l-2.56-.06Z" transform="translate(0.02)"/><path class="cls-2" d="M632.82,144.83c-.07-1.65-.18-3.08-.33-4.3a26.55,26.55,0,0,0,5,1.84,18.29,18.29,0,0,0,4.24.53,9.84,9.84,0,0,0,3.63-.66,5.32,5.32,0,0,0,2.52-1.88,4.66,4.66,0,0,0,.85-2.77,5,5,0,0,0-.29-1.7,6.1,6.1,0,0,0-.92-1.62,18.16,18.16,0,0,0-2.22-2.21c-1-.93-2.53-2.21-4.46-3.84l-1.93-1.64q-1.1-.94-2-1.86A16.51,16.51,0,0,1,635.4,123a10,10,0,0,1-.92-1.54,6.79,6.79,0,0,1-.51-1.54,8.26,8.26,0,0,1-.18-1.73A7.71,7.71,0,0,1,635,114a8.53,8.53,0,0,1,3.68-3.12,15.11,15.11,0,0,1,6.5-1.18,39.41,39.41,0,0,1,7.11.79q0,1.66.36,4.11a21.89,21.89,0,0,0-7.24-1.41,8.48,8.48,0,0,0-3.74.74,5.75,5.75,0,0,0-2.3,1.89,4.19,4.19,0,0,0-.78,2.37,4.83,4.83,0,0,0,.21,1.42,5,5,0,0,0,.63,1.32,13.06,13.06,0,0,0,1.48,1.83,32.27,32.27,0,0,0,2.45,2.25l3,2.45c1.73,1.42,3,2.53,3.77,3.31a16.26,16.26,0,0,1,1.89,2.17,8.8,8.8,0,0,1,1.1,2.16,7.81,7.81,0,0,1,.38,2.51,8.28,8.28,0,0,1-.89,3.84,7.45,7.45,0,0,1-2.58,2.88,11,11,0,0,1-3.74,1.59,19.38,19.38,0,0,1-4.29.47,25.08,25.08,0,0,1-3.71-.28A48.25,48.25,0,0,1,632.82,144.83Z" transform="translate(0.02)"/><line class="cls-12" x1="462.87" y1="42.15" x2="462.87" y2="367.69"/></svg>