<?xml version="1.0" encoding="utf-8"?>
<!-- Generator: Adobe Illustrator 19.2.0, SVG Export Plug-In . SVG Version: 6.00 Build 0)  -->
<svg version="1.1" id="Layer_1" xmlns="http://www.w3.org/2000/svg" xmlns:xlink="http://www.w3.org/1999/xlink" x="0px" y="0px"
	 viewBox="0 0 508 508" style="enable-background:new 0 0 508 508;" xml:space="preserve">
<style type="text/css">
	.st0{fill:#9DCE57;}
	.st1{fill:#E6E9EE;}
	.st2{fill:#F3F6F9;}
	.st3{fill:#FFD05B;}
	.st4{fill:#116CD6;}
	.st5{fill:#FFFFFF;}
	.st6{fill:#F9B54C;}
	.st7{fill:#0D2033;}
</style>
<circle class="st0" cx="254" cy="254" r="254"/>
<g>
	<path class="st1" d="M255.2,363.2c-0.4,0-0.8,0.4-1.6,0.4c-0.4,0-0.8-0.4-1.6-0.4H255.2L255.2,363.2z"/>
	<path class="st2" d="M458.9,404.1c-46,62.8-118.2,103.5-205.7,103.5c-84,0-158.4-40.8-204.8-104c36-38.4,85.7-60.3,126.5-70.7
		c-3.6,29.2,11.5,70.3,11.9,69.1c15.2-35.2,66-38.8,66-38.8s52.4,3.2,68,38.8c0.4,0.8,16.1-38.1,12.5-67.3
		C374.5,345.1,422.9,365.7,458.9,404.1z"/>
</g>
<path class="st3" d="M316.8,308c0,5.2-3.2,32.8-61.6,55.2H252c-58.4-22.4-61.6-50-61.6-55.2c0.4-10.4,2.8-20.8,7.2-30.4
	c16,18,35.2,30,56,30c20.4,0,40-11.6,56-30C314,287.2,316.8,297.6,316.8,308z"/>
<g>
	<polygon class="st4" points="218,505.6 218,505.6 218,505.6 	"/>
	<path class="st4" d="M290,505.6L275.6,398l12.8-25.6c-17.2-7.6-34.8-8.8-34.8-8.8s-17.2,1.2-34.8,8.8l12.8,25.6L218,505.6
		c11.6,1.6,23.6,2.4,36,2.4C266,508,278,507.2,290,505.6z"/>
</g>
<g>
	<path class="st5" d="M316.8,307.2c0,0,2.8,32-63.2,56.4c0,0,51.6,2.8,67.2,38.4C321.2,403.6,351.2,326,316.8,307.2z"/>
	<path class="st5" d="M190.4,307.2c-34,18.8-4.4,96-3.6,94.8c15.2-35.2,67.2-38.4,67.2-38.4C187.6,339.2,190.4,307.2,190.4,307.2z"
		/>
</g>
<path class="st6" d="M312.8,285.6c-16.8,18-36.8,29.6-59.2,29.6s-42.4-11.6-59.2-29.6c0.8-2.8,2-5.6,3.2-8c16,18,35.2,30,56,30
	s40-11.6,56-30C310.8,280,312,282.8,312.8,285.6z"/>
<path class="st3" d="M362.8,224.4c-8.4,14-21.2,22.4-30.8,20.8c-19.2,35.6-47.2,62-78.4,62s-59.2-26.8-78.4-62
	c-9.6,1.2-22.4-6.8-30.8-20.8c-10-16.4-10.4-34.4-0.8-40.4c2.4-1.2,4.8-2,7.6-1.6c6.4,16.4,15.2,26.4,15.2,26.4
	c-9.2-50.8,28.4-56.4,22-105.2c0,0,23.6,52.4,91.2,15.6l-5.2,10c94.4-21.2,62.8,90,62,92.8c10.8-13.6,17.6-27.2,21.6-39.6
	c1.6,0,3.6,0.8,4.8,1.6C373.2,189.6,372.8,208,362.8,224.4z"/>
<path class="st7" d="M308,50.8c7.6-0.8,20,6,20,6c-34-38.8-89.6-14-89.6-14c18.8-16,35.6-14.4,35.6-14.4
	c-79.6-12-93.2,35.6-93.2,35.6c-3.6-5.6-3.6-13.6-3.2-17.6C172,56,178,75.2,178,75.2c-5.6-14-25.2-11.6-25.2-11.6
	c16.8,2.8,19.6,13.2,19.6,13.2c-42,15.6-34.8,59.2-34.8,59.2l10-12c-12.4,47.6,19.2,84.4,19.2,84.4c-9.2-50.8,28.4-56.4,22-105.2
	c0,0,23.6,52.4,91.2,15.6l-5.2,10c95.6-21.6,62,93.2,62,93.2c34-43.2,28.8-87.6,28.8-87.6l4,16C380.4,78.4,308,50.8,308,50.8
	L308,50.8z"/>
</svg>
