<svg id="_1px" data-name="1px" xmlns="http://www.w3.org/2000/svg" viewBox="0 0 512 469.33"><defs><style>.cls-1{fill:#ddd;}</style></defs><title>server</title><path class="cls-1" d="M288,490.67H224a21.35,21.35,0,0,1-21.33-21.33V362.67H149.33a10.68,10.68,0,0,1-7.55-18.22L248.45,237.78a10.67,10.67,0,0,1,15.08,0L370.2,344.45a10.68,10.68,0,0,1-7.53,18.22H309.33V469.33A21.35,21.35,0,0,1,288,490.67ZM175.08,341.33h38.25A10.67,10.67,0,0,1,224,352V469.33h64V352a10.67,10.67,0,0,1,10.67-10.67h38.25L256,260.42Z" transform="translate(0 -21.33)"/><path class="cls-1" d="M96,362a11.91,11.91,0,0,1-1.22-.06,106.64,106.64,0,0,1,4.52-212.37C114.09,75.86,179.9,21.33,256,21.33a160.17,160.17,0,0,1,141.93,86.27C462.4,114.37,512,169,512,234.67c0,57.17-38.31,107.73-93.14,122.92a10.67,10.67,0,0,1-5.7-20.57c45.63-12.63,77.5-54.74,77.5-102.36,0-56.47-44-103.15-100.2-106.26a10.66,10.66,0,0,1-9.09-6.14A138.74,138.74,0,0,0,256,42.67c-68.59,0-127.51,51.09-137.07,118.83a10.68,10.68,0,0,1-10.56,9.17c-48.77,0-87,38.27-87,85.33a85.17,85.17,0,0,0,75.86,84.76A10.67,10.67,0,0,1,96,362Z" transform="translate(0 -21.33)"/></svg>